shantell_bounce--extrabold.ufo
<glyph name="exclam" format="2">
  <advance width="309"/>
  <unicode hex="0021"/>
  <outline>
    <contour>
      <point x="235.0" y="544.5" type="curve" smooth="yes"/>
      <point x="235.0" y="512.5"/>
      <point x="230.0" y="475.5"/>
      <point x="230.0" y="431.5" type="curve" smooth="yes"/>
      <point x="230.0" y="369.5"/>
      <point x="236.0" y="305.5"/>
      <point x="236.0" y="266.5" type="curve" smooth="yes"/>
      <point x="236.0" y="208.5"/>
      <point x="209.0" y="180.5"/>
      <point x="166.0" y="180.5" type="curve" smooth="yes"/>
      <point x="119.0" y="180.5"/>
      <point x="88.0" y="200.5"/>
      <point x="78.0" y="246.5" type="curve" smooth="yes"/>
      <point x="67.0" y="302.5"/>
      <point x="63.0" y="341.54761904761904"/>
      <point x="63.0" y="405.5" type="curve" smooth="yes"/>
      <point x="63.0" y="457.5"/>
      <point x="70.0" y="515.5"/>
      <point x="68.0" y="583.5" type="curve" smooth="yes"/>
      <point x="66.0" y="628.5"/>
      <point x="81.96153846153845" y="662.5"/>
      <point x="134.0" y="662.5" type="curve" smooth="yes"/>
      <point x="196.35652173913044" y="662.5"/>
      <point x="235.0" y="628.5"/>
    </contour>
    <contour>
      <point x="172.0" y="-68.5" type="curve" smooth="yes"/>
      <point x="229.0" y="-68.5"/>
      <point x="259.0" y="-41.5"/>
      <point x="259.0" y="1.5" type="curve" smooth="yes"/>
      <point x="259.0" y="56.5"/>
      <point x="221.0" y="109.5"/>
      <point x="139.0" y="109.5" type="curve" smooth="yes"/>
      <point x="86.0" y="109.5"/>
      <point x="50.0" y="80.5"/>
      <point x="50.0" y="20.5" type="curve" smooth="yes"/>
      <point x="50.0" y="-36.5"/>
      <point x="96.0" y="-68.5"/>
    </contour>
  </outline>
</glyph>
<glyph name="quotedbl" format="2">
  <advance width="548"/>
  <unicode hex="0022"/>
  <outline>
    <contour>
      <point x="130.0" y="299.0" type="curve" smooth="yes"/>
      <point x="169.46153846153845" y="299.0"/>
      <point x="196.9374907167479" y="319.8258669966549"/>
      <point x="211.0" y="359.0" type="curve" smooth="yes"/>
      <point x="240.0" y="440.0"/>
      <point x="249.0" y="534.0"/>
      <point x="235.0" y="599.0" type="curve" smooth="yes"/>
      <point x="226.9885471289919" y="636.0529695284124"/>
      <point x="193.73684210526315" y="667.0"/>
      <point x="137.0" y="667.0" type="curve" smooth="yes"/>
      <point x="84.0" y="667.0"/>
      <point x="58.0" y="629.0"/>
      <point x="64.0" y="573.0" type="curve" smooth="yes"/>
      <point x="70.0" y="521.0"/>
      <point x="61.0" y="457.0"/>
      <point x="46.0" y="413.0" type="curve" smooth="yes"/>
      <point x="31.0" y="368.0"/>
      <point x="73.0" y="299.0"/>
    </contour>
    <contour>
      <point x="397.0" y="299.0" type="curve" smooth="yes"/>
      <point x="435.0" y="299.0"/>
      <point x="461.0" y="320.0"/>
      <point x="475.0" y="359.0" type="curve" smooth="yes"/>
      <point x="503.687143940666" y="440.11537252188316"/>
      <point x="512.8373241657723" y="537.7669003613591"/>
      <point x="499.0" y="603.0" type="curve" smooth="yes"/>
      <point x="490.62565603674835" y="639.6377548392259"/>
      <point x="459.0" y="667.0"/>
      <point x="404.0" y="667.0" type="curve" smooth="yes"/>
      <point x="350.0" y="667.0"/>
      <point x="329.0" y="630.0"/>
      <point x="331.0" y="573.0" type="curve" smooth="yes"/>
      <point x="333.0" y="520.0"/>
      <point x="323.0" y="457.0"/>
      <point x="312.0" y="397.0" type="curve" smooth="yes"/>
      <point x="302.0" y="341.0"/>
      <point x="341.0" y="299.0"/>
    </contour>
  </outline>
</glyph>
<glyph name="numbersign" format="2">
  <advance width="1004"/>
  <unicode hex="0023"/>
  <outline>
    <contour>
      <point x="524.0" y="629.0" type="curve" smooth="yes"/>
      <point x="524.0" y="466.0"/>
      <point x="317.0" y="49.0"/>
      <point x="317.0" y="-131.0" type="curve" smooth="yes"/>
      <point x="317.0" y="-181.0"/>
      <point x="275.0" y="-220.0"/>
      <point x="233.0" y="-219.0" type="curve" smooth="yes"/>
      <point x="179.0" y="-218.0"/>
      <point x="135.0" y="-179.0"/>
      <point x="135.0" y="-102.0" type="curve" smooth="yes"/>
      <point x="135.0" y="66.0"/>
      <point x="343.0" y="485.0"/>
      <point x="343.0" y="641.0" type="curve" smooth="yes"/>
      <point x="343.0" y="707.0"/>
      <point x="370.0" y="738.0"/>
      <point x="418.0" y="739.0" type="curve" smooth="yes"/>
      <point x="475.0" y="740.0"/>
      <point x="524.0" y="689.0"/>
    </contour>
    <contour>
      <point x="813.0" y="688.0"/>
      <point x="869.0" y="647.0"/>
      <point x="869.0" y="584.0" type="curve" smooth="yes"/>
      <point x="869.0" y="439.0"/>
      <point x="667.0" y="90.0"/>
      <point x="667.0" y="-182.0" type="curve" smooth="yes"/>
      <point x="667.0" y="-239.0"/>
      <point x="634.0" y="-270.0"/>
      <point x="589.0" y="-269.0" type="curve" smooth="yes"/>
      <point x="525.0" y="-268.0"/>
      <point x="484.0" y="-223.0"/>
      <point x="485.0" y="-166.0" type="curve" smooth="yes"/>
      <point x="490.0" y="102.0"/>
      <point x="691.0" y="444.0"/>
      <point x="691.0" y="607.0" type="curve" smooth="yes"/>
      <point x="691.0" y="658.0"/>
      <point x="712.0" y="688.0"/>
      <point x="757.0" y="688.0" type="curve" smooth="yes"/>
    </contour>
    <contour>
      <point x="113.0" y="173.0" type="curve" smooth="yes"/>
      <point x="356.0" y="173.0"/>
      <point x="645.0" y="206.0"/>
      <point x="888.0" y="206.0" type="curve" smooth="yes"/>
      <point x="947.0" y="206.0"/>
      <point x="968.0" y="185.0"/>
      <point x="969.0" y="147.0" type="curve" smooth="yes"/>
      <point x="971.0" y="93.0"/>
      <point x="927.0" y="38.0"/>
      <point x="823.0" y="34.0" type="curve" smooth="yes"/>
      <point x="625.0" y="29.0"/>
      <point x="339.0" y="-23.0"/>
      <point x="165.0" y="-23.0" type="curve" smooth="yes"/>
      <point x="51.0" y="-23.0"/>
      <point x="17.0" y="36.0"/>
      <point x="20.0" y="95.0" type="curve" smooth="yes"/>
      <point x="22.0" y="138.0"/>
      <point x="63.0" y="173.0"/>
    </contour>
    <contour>
      <point x="316.0" y="532.0"/>
      <point x="359.0" y="478.0"/>
      <point x="905.0" y="478.0" type="curve" smooth="yes"/>
      <point x="952.0" y="478.0"/>
      <point x="978.0" y="454.0"/>
      <point x="979.0" y="410.0" type="curve" smooth="yes"/>
      <point x="980.0" y="363.0"/>
      <point x="941.0" y="317.0"/>
      <point x="875.0" y="317.0" type="curve" smooth="yes"/>
      <point x="645.0" y="317.0"/>
      <point x="444.0" y="324.0"/>
      <point x="275.0" y="344.0" type="curve" smooth="yes"/>
      <point x="162.0" y="356.0"/>
      <point x="138.0" y="410.0"/>
      <point x="138.0" y="455.0" type="curve" smooth="yes"/>
      <point x="138.0" y="500.0"/>
      <point x="163.0" y="532.0"/>
      <point x="225.0" y="532.0" type="curve" smooth="yes"/>
    </contour>
  </outline>
</glyph>
<glyph name="dollar" format="2">
  <advance width="603"/>
  <unicode hex="0024"/>
  <outline>
    <contour>
      <point x="262.0" y="18.0" type="curve" smooth="yes"/>
      <point x="459.0" y="18.0"/>
      <point x="556.0" y="73.0"/>
      <point x="556.0" y="195.0" type="curve" smooth="yes"/>
      <point x="556.0" y="389.0"/>
      <point x="226.0" y="412.0"/>
      <point x="226.0" y="478.0" type="curve" smooth="yes"/>
      <point x="226.0" y="531.0"/>
      <point x="312.0" y="557.0"/>
      <point x="488.0" y="567.0" type="curve" smooth="yes"/>
      <point x="529.0" y="569.0"/>
      <point x="554.0" y="603.0"/>
      <point x="554.0" y="642.0" type="curve" smooth="yes"/>
      <point x="554.0" y="691.0"/>
      <point x="530.0" y="737.0"/>
      <point x="458.0" y="737.0" type="curve" smooth="yes"/>
      <point x="329.0" y="737.0"/>
      <point x="47.0" y="666.0"/>
      <point x="47.0" y="482.0" type="curve" smooth="yes"/>
      <point x="47.0" y="284.0"/>
      <point x="382.9327678114" y="320.3697770374"/>
      <point x="405.0" y="199.0" type="curve"/>
      <point x="350.4439060533" y="185.6640659241"/>
      <point x="318.1044776119" y="185.0"/>
      <point x="241.0" y="185.0" type="curve" smooth="yes"/>
      <point x="166.0" y="185.0"/>
      <point x="148.0" y="212.0"/>
      <point x="112.0" y="212.0" type="curve" smooth="yes"/>
      <point x="70.0" y="212.0"/>
      <point x="60.0" y="191.0"/>
      <point x="60.0" y="156.0" type="curve" smooth="yes"/>
      <point x="60.0" y="86.0"/>
      <point x="131.0" y="18.0"/>
    </contour>
    <contour>
      <point x="321.0" y="475.0" type="curve" smooth="yes"/>
      <point x="353.0" y="475.0"/>
      <point x="371.0" y="497.0"/>
      <point x="383.0" y="539.0" type="curve" smooth="yes"/>
      <point x="407.0" y="631.0"/>
      <point x="407.0" y="715.0"/>
      <point x="392.0" y="787.0" type="curve" smooth="yes"/>
      <point x="383.0" y="822.0"/>
      <point x="347.0" y="848.0"/>
      <point x="307.0" y="848.0" type="curve" smooth="yes"/>
      <point x="257.0" y="848.0"/>
      <point x="216.0" y="802.0"/>
      <point x="224.0" y="754.0" type="curve" smooth="yes"/>
      <point x="232.0" y="706.0"/>
      <point x="245.0" y="660.0"/>
      <point x="251.0" y="590.0" type="curve" smooth="yes"/>
      <point x="258.0" y="511.0"/>
      <point x="266.0" y="474.0"/>
    </contour>
    <contour>
      <point x="278.0" y="239.0" type="curve" smooth="yes"/>
      <point x="245.0" y="239.0"/>
      <point x="221.0" y="219.0"/>
      <point x="218.0" y="177.0" type="curve" smooth="yes"/>
      <point x="212.0" y="83.0"/>
      <point x="201.0" y="43.0"/>
      <point x="210.0" y="-38.0" type="curve" smooth="yes"/>
      <point x="214.0" y="-70.0"/>
      <point x="251.0" y="-111.0"/>
      <point x="321.0" y="-111.0" type="curve" smooth="yes"/>
      <point x="358.0" y="-111.0"/>
      <point x="375.0" y="-86.0"/>
      <point x="373.0" y="-24.0" type="curve" smooth="yes"/>
      <point x="370.0" y="29.0"/>
      <point x="355.0" y="95.0"/>
      <point x="346.0" y="144.0" type="curve" smooth="yes"/>
      <point x="334.0" y="204.0"/>
      <point x="315.0" y="239.0"/>
    </contour>
  </outline>
</glyph>
<glyph name="percent" format="2">
  <advance width="995"/>
  <unicode hex="0025"/>
  <outline>
    <contour>
      <point x="775.0" y="571.0" type="curve" smooth="yes"/>
      <point x="622.0" y="432.0"/>
      <point x="503.0" y="291.0"/>
      <point x="385.0" y="85.0" type="curve" smooth="yes"/>
      <point x="363.0" y="47.0"/>
      <point x="336.0" y="27.0"/>
      <point x="304.0" y="27.0" type="curve" smooth="yes"/>
      <point x="243.0" y="27.0"/>
      <point x="195.0" y="105.0"/>
      <point x="233.0" y="167.0" type="curve" smooth="yes"/>
      <point x="359.0" y="379.0"/>
      <point x="536.0" y="591.0"/>
      <point x="668.0" y="714.0" type="curve" smooth="yes"/>
      <point x="706.0" y="750.0"/>
      <point x="738.0" y="763.0"/>
      <point x="767.0" y="763.0" type="curve" smooth="yes"/>
      <point x="837.0" y="763.0"/>
      <point x="867.0" y="654.0"/>
    </contour>
    <contour>
      <point x="249.0" y="395.0" type="curve" smooth="yes"/>
      <point x="358.0" y="395.0"/>
      <point x="441.0" y="476.0"/>
      <point x="441.0" y="584.0" type="curve" smooth="yes"/>
      <point x="441.0" y="690.0"/>
      <point x="370.0" y="756.0"/>
      <point x="246.0" y="756.0" type="curve" smooth="yes"/>
      <point x="192.0" y="756.0"/>
      <point x="160.0" y="723.0"/>
      <point x="160.0" y="676.0" type="curve" smooth="yes"/>
      <point x="160.0" y="623.0"/>
      <point x="201.0" y="604.0"/>
      <point x="247.0" y="604.0" type="curve" smooth="yes"/>
      <point x="261.0" y="604.0"/>
      <point x="270.0" y="595.0"/>
      <point x="270.0" y="582.0" type="curve" smooth="yes"/>
      <point x="270.0" y="565.0"/>
      <point x="259.0" y="552.0"/>
      <point x="244.0" y="552.0" type="curve" smooth="yes"/>
      <point x="226.0" y="552.0"/>
      <point x="214.0" y="562.0"/>
      <point x="214.0" y="577.0" type="curve" smooth="yes"/>
      <point x="214.0" y="586.0"/>
      <point x="221.0" y="601.0"/>
      <point x="243.0" y="615.0" type="curve" smooth="yes"/>
      <point x="267.0" y="629.0"/>
      <point x="283.0" y="659.0"/>
      <point x="283.0" y="686.0" type="curve" smooth="yes"/>
      <point x="283.0" y="727.0"/>
      <point x="251.0" y="764.0"/>
      <point x="215.0" y="764.0" type="curve" smooth="yes"/>
      <point x="113.0" y="764.0"/>
      <point x="37.0" y="682.0"/>
      <point x="37.0" y="584.0" type="curve" smooth="yes"/>
      <point x="37.0" y="474.0"/>
      <point x="126.0" y="395.0"/>
    </contour>
    <contour>
      <point x="766.0" y="35.0" type="curve" smooth="yes"/>
      <point x="885.0" y="35.0"/>
      <point x="961.0" y="113.0"/>
      <point x="961.0" y="227.0" type="curve" smooth="yes"/>
      <point x="961.0" y="343.0"/>
      <point x="885.0" y="416.0"/>
      <point x="753.0" y="416.0" type="curve" smooth="yes"/>
      <point x="698.0" y="416.0"/>
      <point x="665.0" y="389.0"/>
      <point x="665.0" y="341.0" type="curve" smooth="yes"/>
      <point x="665.0" y="282.0"/>
      <point x="694.0" y="264.0"/>
      <point x="734.0" y="264.0" type="curve" smooth="yes"/>
      <point x="768.0" y="264.0"/>
      <point x="790.0" y="247.0"/>
      <point x="790.0" y="221.0" type="curve" smooth="yes"/>
      <point x="790.0" y="205.0"/>
      <point x="778.0" y="192.0"/>
      <point x="761.0" y="192.0" type="curve" smooth="yes"/>
      <point x="742.0" y="192.0"/>
      <point x="731.0" y="204.0"/>
      <point x="731.0" y="217.0" type="curve" smooth="yes"/>
      <point x="731.0" y="236.0"/>
      <point x="743.0" y="250.0"/>
      <point x="776.0" y="256.0" type="curve" smooth="yes"/>
      <point x="793.0" y="259.0"/>
      <point x="800.0" y="286.0"/>
      <point x="800.0" y="326.0" type="curve" smooth="yes"/>
      <point x="800.0" y="363.0"/>
      <point x="773.0" y="384.0"/>
      <point x="732.0" y="384.0" type="curve" smooth="yes"/>
      <point x="640.0" y="384.0"/>
      <point x="554.0" y="310.0"/>
      <point x="554.0" y="209.0" type="curve" smooth="yes"/>
      <point x="554.0" y="114.0"/>
      <point x="623.0" y="35.0"/>
    </contour>
  </outline>
</glyph>
<glyph name="ampersand" format="2">
  <advance width="713"/>
  <unicode hex="0026"/>
  <outline>
    <contour>
      <point x="429.0" y="476.5"/>
      <point x="398.0" y="508.5"/>
      <point x="308.0" y="508.5" type="curve" smooth="yes"/>
      <point x="243.0" y="508.5"/>
      <point x="208.0" y="488.6886792453"/>
      <point x="208.0" y="458.5" type="curve" smooth="yes"/>
      <point x="208.0" y="430.8360655738"/>
      <point x="223.0" y="413.5"/>
      <point x="390.0" y="333.5" type="curve" smooth="yes"/>
      <point x="652.0" y="207.5"/>
      <point x="679.0" y="123.5"/>
      <point x="679.0" y="1.5" type="curve" smooth="yes"/>
      <point x="679.0" y="-77.5"/>
      <point x="643.0" y="-197.5"/>
      <point x="544.0" y="-197.5" type="curve" smooth="yes"/>
      <point x="498.0" y="-197.5"/>
      <point x="469.0" y="-171.5"/>
      <point x="469.0" y="-124.5" type="curve" smooth="yes"/>
      <point x="469.0" y="-70.5"/>
      <point x="509.0" y="-65.5"/>
      <point x="509.0" y="-3.5" type="curve" smooth="yes"/>
      <point x="509.0" y="60.5"/>
      <point x="469.0" y="112.5"/>
      <point x="248.0" y="221.5" type="curve" smooth="yes"/>
      <point x="60.0" y="314.5"/>
      <point x="38.0" y="388.5"/>
      <point x="38.0" y="462.5" type="curve" smooth="yes"/>
      <point x="38.0" y="568.5"/>
      <point x="113.0" y="678.5"/>
      <point x="304.0" y="678.5" type="curve" smooth="yes"/>
      <point x="383.0" y="678.5"/>
      <point x="442.0" y="666.5"/>
      <point x="502.0" y="639.5" type="curve" smooth="yes"/>
      <point x="534.0" y="624.5"/>
      <point x="552.0" y="593.5"/>
      <point x="552.0" y="560.5" type="curve" smooth="yes"/>
      <point x="552.0" y="514.5"/>
      <point x="511.0" y="476.5"/>
      <point x="466.0" y="476.5" type="curve" smooth="yes"/>
    </contour>
    <contour>
      <point x="254.0" y="252.5" type="curve" smooth="yes"/>
      <point x="226.0" y="216.5"/>
      <point x="218.0" y="199.5"/>
      <point x="218.0" y="170.5" type="curve" smooth="yes"/>
      <point x="218.0" y="136.5"/>
      <point x="247.0" y="119.5"/>
      <point x="277.0" y="119.5" type="curve" smooth="yes"/>
      <point x="366.0" y="119.5"/>
      <point x="437.0" y="200.5"/>
      <point x="539.0" y="379.5" type="curve" smooth="yes"/>
      <point x="553.0" y="406.5"/>
      <point x="565.0" y="423.5"/>
      <point x="592.0" y="423.5" type="curve" smooth="yes"/>
      <point x="637.0" y="423.5"/>
      <point x="680.0" y="387.5"/>
      <point x="680.0" y="330.5" type="curve" smooth="yes"/>
      <point x="680.0" y="316.5"/>
      <point x="673.0" y="285.5"/>
      <point x="651.0" y="251.5" type="curve" smooth="yes"/>
      <point x="490.0" y="1.5"/>
      <point x="400.0" y="-41.5"/>
      <point x="263.0" y="-41.5" type="curve" smooth="yes"/>
      <point x="146.0" y="-41.5"/>
      <point x="48.0" y="30.5"/>
      <point x="48.0" y="150.5" type="curve" smooth="yes"/>
      <point x="48.0" y="237.5"/>
      <point x="89.0" y="294.5"/>
      <point x="144.0" y="330.5" type="curve" smooth="yes"/>
      <point x="179.0" y="353.5"/>
      <point x="214.0" y="357.5"/>
      <point x="247.0" y="332.5" type="curve" smooth="yes"/>
      <point x="266.0" y="318.5"/>
      <point x="271.0" y="274.5"/>
    </contour>
  </outline>
</glyph>
<glyph name="quotesingle" format="2">
  <advance width="281"/>
  <unicode hex="0027"/>
  <outline>
    <contour>
      <point x="130.0" y="285.5" type="curve" smooth="yes"/>
      <point x="168.0" y="285.5"/>
      <point x="194.0" y="306.5"/>
      <point x="208.0" y="345.5" type="curve" smooth="yes"/>
      <point x="237.0" y="427.5"/>
      <point x="246.0" y="522.5"/>
      <point x="232.0" y="588.5" type="curve" smooth="yes"/>
      <point x="223.0" y="623.5"/>
      <point x="193.0" y="653.5"/>
      <point x="141.0" y="653.5" type="curve" smooth="yes"/>
      <point x="89.0" y="653.5"/>
      <point x="56.0" y="616.5"/>
      <point x="64.0" y="563.5" type="curve" smooth="yes"/>
      <point x="73.0" y="508.5"/>
      <point x="61.0" y="445.5"/>
      <point x="46.0" y="399.5" type="curve" smooth="yes"/>
      <point x="32.0" y="353.5"/>
      <point x="73.0" y="285.5"/>
    </contour>
  </outline>
</glyph>
<glyph name="parenleft" format="2">
  <advance width="519"/>
  <unicode hex="0028"/>
  <outline>
    <contour>
      <point x="441.0" y="698.0" type="curve" smooth="yes"/>
      <point x="341.0" y="580.0"/>
      <point x="245.0" y="418.0"/>
      <point x="245.0" y="228.0" type="curve" smooth="yes"/>
      <point x="245.0" y="66.0"/>
      <point x="319.0" y="-42.0"/>
      <point x="439.0" y="-82.0" type="curve" smooth="yes"/>
      <point x="483.0" y="-97.0"/>
      <point x="499.0" y="-110.0"/>
      <point x="499.0" y="-141.0" type="curve" smooth="yes"/>
      <point x="499.0" y="-190.0"/>
      <point x="448.0" y="-221.0"/>
      <point x="402.0" y="-221.0" type="curve" smooth="yes"/>
      <point x="381.0" y="-221.0"/>
      <point x="366.0" y="-219.0"/>
      <point x="321.0" y="-201.0" type="curve" smooth="yes"/>
      <point x="186.0" y="-145.0"/>
      <point x="69.0" y="-17.0"/>
      <point x="69.0" y="228.0" type="curve" smooth="yes"/>
      <point x="69.0" y="460.0"/>
      <point x="181.0" y="662.0"/>
      <point x="310.0" y="815.0" type="curve" smooth="yes"/>
      <point x="333.0" y="843.0"/>
      <point x="358.0" y="853.0"/>
      <point x="383.0" y="853.0" type="curve" smooth="yes"/>
      <point x="428.0" y="853.0"/>
      <point x="474.0" y="807.0"/>
      <point x="474.0" y="762.0" type="curve" smooth="yes"/>
      <point x="474.0" y="742.0"/>
      <point x="464.0" y="725.0"/>
    </contour>
  </outline>
</glyph>
<glyph name="parenright" format="2">
  <advance width="514"/>
  <unicode hex="0029"/>
  <outline>
    <contour>
      <point x="68.0" y="-205.5" type="curve" smooth="yes"/>
      <point x="189.0" y="-102.5"/>
      <point x="269.0" y="25.5"/>
      <point x="269.0" y="190.5" type="curve" smooth="yes"/>
      <point x="269.0" y="373.5"/>
      <point x="200.0" y="491.5"/>
      <point x="87.0" y="566.5" type="curve" smooth="yes"/>
      <point x="42.0" y="596.5"/>
      <point x="20.0" y="627.5"/>
      <point x="20.0" y="662.5" type="curve" smooth="yes"/>
      <point x="20.0" y="705.5"/>
      <point x="58.0" y="735.5"/>
      <point x="107.0" y="735.5" type="curve" smooth="yes"/>
      <point x="144.0" y="735.5"/>
      <point x="163.0" y="730.5"/>
      <point x="194.0" y="710.5" type="curve" smooth="yes"/>
      <point x="342.0" y="616.5"/>
      <point x="445.0" y="430.5"/>
      <point x="445.0" y="190.5" type="curve" smooth="yes"/>
      <point x="445.0" y="-18.5"/>
      <point x="350.0" y="-195.5"/>
      <point x="203.0" y="-299.5" type="curve" smooth="yes"/>
      <point x="168.0" y="-324.5"/>
      <point x="135.0" y="-335.5"/>
      <point x="109.0" y="-335.5" type="curve" smooth="yes"/>
      <point x="74.0" y="-335.5"/>
      <point x="32.0" y="-318.5"/>
      <point x="32.0" y="-272.5" type="curve" smooth="yes"/>
      <point x="32.0" y="-244.5"/>
      <point x="44.0" y="-227.5"/>
    </contour>
  </outline>
</glyph>
<glyph name="asterisk" format="2">
  <advance width="516"/>
  <unicode hex="002A"/>
  <outline>
    <contour>
      <point x="277.0" y="853.0"/>
      <point x="320.0" y="795.0"/>
      <point x="320.0" y="657.0" type="curve" smooth="yes"/>
      <point x="320.0" y="586.0"/>
      <point x="316.0" y="472.0"/>
      <point x="332.0" y="385.0" type="curve" smooth="yes"/>
      <point x="340.0" y="341.0"/>
      <point x="322.0" y="313.0"/>
      <point x="274.0" y="313.0" type="curve" smooth="yes"/>
      <point x="239.0" y="313.0"/>
      <point x="220.0" y="333.0"/>
      <point x="214.0" y="361.0" type="curve" smooth="yes"/>
      <point x="195.0" y="454.0"/>
      <point x="200.0" y="580.0"/>
      <point x="200.0" y="657.0" type="curve" smooth="yes"/>
      <point x="200.0" y="764.0"/>
      <point x="169.0" y="767.0"/>
      <point x="169.0" y="808.0" type="curve" smooth="yes"/>
      <point x="169.0" y="836.0"/>
      <point x="184.0" y="853.0"/>
      <point x="219.0" y="853.0" type="curve" smooth="yes"/>
    </contour>
    <contour>
      <point x="441.0" y="683.0" type="curve" smooth="yes"/>
      <point x="385.0" y="606.0"/>
      <point x="235.0" y="527.0"/>
      <point x="171.0" y="428.0" type="curve" smooth="yes"/>
      <point x="158.0" y="408.0"/>
      <point x="144.0" y="401.0"/>
      <point x="123.0" y="401.0" type="curve" smooth="yes"/>
      <point x="91.0" y="401.0"/>
      <point x="61.0" y="430.0"/>
      <point x="61.0" y="462.0" type="curve" smooth="yes"/>
      <point x="61.0" y="473.0"/>
      <point x="62.0" y="486.0"/>
      <point x="81.0" y="511.0" type="curve" smooth="yes"/>
      <point x="142.0" y="592.0"/>
      <point x="305.0" y="691.0"/>
      <point x="351.0" y="758.0" type="curve" smooth="yes"/>
      <point x="367.0" y="782.0"/>
      <point x="383.0" y="795.0"/>
      <point x="407.0" y="795.0" type="curve" smooth="yes"/>
      <point x="443.0" y="795.0"/>
      <point x="459.0" y="769.0"/>
      <point x="459.0" y="738.0" type="curve" smooth="yes"/>
      <point x="459.0" y="715.0"/>
      <point x="452.0" y="699.0"/>
    </contour>
    <contour>
      <point x="115.0" y="726.0" type="curve" smooth="yes"/>
      <point x="187.0" y="687.0"/>
      <point x="332.0" y="639.0"/>
      <point x="451.0" y="575.0" type="curve" smooth="yes"/>
      <point x="471.0" y="565.0"/>
      <point x="483.0" y="546.0"/>
      <point x="483.0" y="521.0" type="curve" smooth="yes"/>
      <point x="483.0" y="489.0"/>
      <point x="466.0" y="460.0"/>
      <point x="430.0" y="460.0" type="curve" smooth="yes"/>
      <point x="411.0" y="460.0"/>
      <point x="403.0" y="464.0"/>
      <point x="364.0" y="485.0" type="curve" smooth="yes"/>
      <point x="274.0" y="533.0"/>
      <point x="127.0" y="583.0"/>
      <point x="57.0" y="623.0" type="curve" smooth="yes"/>
      <point x="18.0" y="646.0"/>
      <point x="9.0" y="678.0"/>
      <point x="9.0" y="699.0" type="curve" smooth="yes"/>
      <point x="9.0" y="731.0"/>
      <point x="28.0" y="747.0"/>
      <point x="56.0" y="747.0" type="curve" smooth="yes"/>
      <point x="76.0" y="747.0"/>
      <point x="86.0" y="741.0"/>
    </contour>
  </outline>
</glyph>
<glyph name="plus" format="2">
  <advance width="700"/>
  <unicode hex="002B"/>
  <outline>
    <contour>
      <point x="432.0" y="513.0" type="curve" smooth="yes"/>
      <point x="432.0" y="392.0"/>
      <point x="419.0" y="207.0"/>
      <point x="419.0" y="143.0" type="curve" smooth="yes"/>
      <point x="419.0" y="85.0"/>
      <point x="390.0" y="57.0"/>
      <point x="344.0" y="57.0" type="curve" smooth="yes"/>
      <point x="300.0" y="57.0"/>
      <point x="263.0" y="86.0"/>
      <point x="258.0" y="149.0" type="curve" smooth="yes"/>
      <point x="244.0" y="329.0"/>
      <point x="270.0" y="428.0"/>
      <point x="265.0" y="576.0" type="curve" smooth="yes"/>
      <point x="263.0" y="621.0"/>
      <point x="278.0" y="651.0"/>
      <point x="327.0" y="651.0" type="curve" smooth="yes"/>
      <point x="392.0" y="651.0"/>
      <point x="432.0" y="611.0"/>
    </contour>
    <contour>
      <point x="270.0" y="307.0"/>
      <point x="196.0" y="249.0"/>
      <point x="122.0" y="249.0" type="curve" smooth="yes"/>
      <point x="72.0" y="249.0"/>
      <point x="45.0" y="288.0"/>
      <point x="45.0" y="334.0" type="curve" smooth="yes"/>
      <point x="45.0" y="374.0"/>
      <point x="58.0" y="406.0"/>
      <point x="128.0" y="422.0" type="curve" smooth="yes"/>
      <point x="248.0" y="449.0"/>
      <point x="391.0" y="458.0"/>
      <point x="509.0" y="458.0" type="curve" smooth="yes"/>
      <point x="588.0" y="458.0"/>
      <point x="634.0" y="422.0"/>
      <point x="634.0" y="365.0" type="curve" smooth="yes"/>
      <point x="634.0" y="331.0"/>
      <point x="619.0" y="307.0"/>
      <point x="565.0" y="307.0" type="curve" smooth="yes"/>
    </contour>
  </outline>
</glyph>
<glyph name="comma" format="2">
  <advance width="322"/>
  <unicode hex="002C"/>
  <outline>
    <contour>
      <point x="272.0" y="246.5"/>
      <point x="225.0" y="289.5"/>
      <point x="151.0" y="289.5" type="curve" smooth="yes"/>
      <point x="97.0" y="289.5"/>
      <point x="72.0" y="253.5"/>
      <point x="72.0" y="198.5" type="curve" smooth="yes"/>
      <point x="72.0" y="171.5"/>
      <point x="82.0" y="98.5"/>
      <point x="54.0" y="21.5" type="curve" smooth="yes"/>
      <point x="43.0" y="-7.5"/>
      <point x="39.0" y="-26.5"/>
      <point x="39.0" y="-44.5" type="curve" smooth="yes"/>
      <point x="39.0" y="-76.5"/>
      <point x="57.0" y="-94.5"/>
      <point x="95.0" y="-94.5" type="curve" smooth="yes"/>
      <point x="140.0" y="-94.5"/>
      <point x="188.0" y="-59.5"/>
      <point x="214.0" y="-17.5" type="curve" smooth="yes"/>
      <point x="249.0" y="38.5"/>
      <point x="272.0" y="114.5"/>
      <point x="272.0" y="183.5" type="curve" smooth="yes"/>
    </contour>
  </outline>
</glyph>
<glyph name="hyphen" format="2">
  <advance width="531"/>
  <unicode hex="002D"/>
  <outline>
    <contour>
      <point x="206.0" y="209.0" type="curve" smooth="yes"/>
      <point x="238.7592592593" y="209.0"/>
      <point x="291.9259259259" y="219.0"/>
      <point x="438.0" y="219.0" type="curve" smooth="yes"/>
      <point x="469.0" y="219.0"/>
      <point x="487.0" y="240.0"/>
      <point x="487.0" y="273.0" type="curve" smooth="yes"/>
      <point x="487.0" y="314.0"/>
      <point x="444.0" y="382.0"/>
      <point x="325.0" y="382.0" type="curve" smooth="yes"/>
      <point x="241.9642857143" y="382.0"/>
      <point x="160.9762270093" y="381.8388390798"/>
      <point x="77.0" y="356.0" type="curve" smooth="yes"/>
      <point x="49.0" y="348.0"/>
      <point x="43.0" y="334.0"/>
      <point x="43.0" y="312.0" type="curve" smooth="yes"/>
      <point x="43.0" y="262.0"/>
      <point x="101.0" y="209.0"/>
    </contour>
  </outline>
</glyph>
<glyph name="period" format="2">
  <advance width="329"/>
  <unicode hex="002E"/>
  <outline>
    <contour>
      <point x="187.0" y="0.5" type="curve" smooth="yes"/>
      <point x="251.0" y="0.5"/>
      <point x="284.0" y="34.5"/>
      <point x="284.0" y="81.5" type="curve" smooth="yes"/>
      <point x="284.0" y="144.5"/>
      <point x="243.0" y="213.5"/>
      <point x="139.0" y="213.5" type="curve" smooth="yes"/>
      <point x="80.0" y="213.5"/>
      <point x="45.0" y="175.5"/>
      <point x="45.0" y="117.5" type="curve" smooth="yes"/>
      <point x="45.0" y="38.5"/>
      <point x="93.0" y="0.5"/>
    </contour>
  </outline>
</glyph>
<glyph name="slash" format="2">
  <advance width="455"/>
  <unicode hex="002F"/>
  <outline>
    <contour>
      <point x="459.0" y="723.0"/>
      <point x="509.0" y="646.0"/>
      <point x="463.0" y="556.0" type="curve" smooth="yes"/>
      <point x="342.0" y="309.0"/>
      <point x="261.0" y="60.0"/>
      <point x="225.0" y="-255.0" type="curve" smooth="yes"/>
      <point x="219.0" y="-312.0"/>
      <point x="187.0" y="-343.0"/>
      <point x="137.0" y="-343.0" type="curve" smooth="yes"/>
      <point x="74.0" y="-343.0"/>
      <point x="39.0" y="-292.0"/>
      <point x="46.0" y="-228.0" type="curve" smooth="yes"/>
      <point x="83.0" y="87.0"/>
      <point x="195.0" y="453.0"/>
      <point x="292.0" y="639.0" type="curve" smooth="yes"/>
      <point x="322.0" y="697.0"/>
      <point x="355.0" y="724.0"/>
      <point x="397.0" y="724.0" type="curve" smooth="yes"/>
    </contour>
  </outline>
</glyph>
<glyph name="zero" format="2">
  <advance width="700"/>
  <unicode hex="0030"/>
  <outline>
    <contour>
      <point x="305.0" y="547.0" type="curve" smooth="yes"/>
      <point x="223.0" y="491.0"/>
      <point x="194.0" y="424.0"/>
      <point x="194.0" y="330.0" type="curve" smooth="yes"/>
      <point x="194.0" y="266.0"/>
      <point x="234.0" y="220.0"/>
      <point x="315.0" y="220.0" type="curve" smooth="yes"/>
      <point x="406.0" y="220.0"/>
      <point x="505.0" y="311.0"/>
      <point x="505.0" y="477.0" type="curve" smooth="yes"/>
      <point x="505.0" y="545.0"/>
      <point x="479.0" y="599.0"/>
      <point x="400.0" y="599.0" type="curve" smooth="yes"/>
      <point x="320.0" y="599.0"/>
      <point x="285.0" y="567.0"/>
      <point x="247.0" y="535.0" type="curve" smooth="yes"/>
      <point x="228.0" y="519.0"/>
      <point x="208.0" y="506.0"/>
      <point x="189.0" y="506.0" type="curve" smooth="yes"/>
      <point x="122.0" y="506.0"/>
      <point x="94.0" y="568.0"/>
      <point x="94.0" y="608.0" type="curve" smooth="yes"/>
      <point x="94.0" y="672.0"/>
      <point x="202.0" y="771.0"/>
      <point x="400.0" y="771.0" type="curve" smooth="yes"/>
      <point x="594.0" y="771.0"/>
      <point x="678.0" y="659.0"/>
      <point x="678.0" y="477.0" type="curve" smooth="yes"/>
      <point x="678.0" y="188.0"/>
      <point x="494.0" y="49.0"/>
      <point x="317.0" y="49.0" type="curve" smooth="yes"/>
      <point x="140.0" y="49.0"/>
      <point x="21.0" y="134.0"/>
      <point x="21.0" y="330.0" type="curve" smooth="yes"/>
      <point x="21.0" y="562.0"/>
      <point x="193.0" y="683.0"/>
      <point x="266.0" y="683.0" type="curve" smooth="yes"/>
      <point x="315.0" y="683.0"/>
      <point x="334.0" y="663.0"/>
      <point x="334.0" y="609.0" type="curve" smooth="yes"/>
      <point x="334.0" y="588.0"/>
      <point x="324.0" y="560.0"/>
    </contour>
  </outline>
</glyph>
<glyph name="one" format="2">
  <advance width="700"/>
  <unicode hex="0031"/>
  <outline>
    <contour>
      <point x="161.0" y="255.5" type="curve" smooth="yes"/>
      <point x="233.0" y="255.5"/>
      <point x="419.0" y="262.5"/>
      <point x="528.0" y="262.5" type="curve" smooth="yes"/>
      <point x="622.0" y="262.5"/>
      <point x="658.0" y="222.5"/>
      <point x="660.0" y="167.5" type="curve" smooth="yes"/>
      <point x="662.0" y="121.5"/>
      <point x="632.0" y="88.5"/>
      <point x="541.0" y="88.5" type="curve" smooth="yes"/>
      <point x="325.0" y="88.5"/>
      <point x="236.0" y="79.5"/>
      <point x="188.0" y="79.5" type="curve" smooth="yes"/>
      <point x="68.0" y="79.5"/>
      <point x="45.0" y="132.5"/>
      <point x="45.0" y="183.5" type="curve" smooth="yes"/>
      <point x="45.0" y="225.5"/>
      <point x="79.0" y="255.5"/>
    </contour>
    <contour>
      <point x="121.0" y="699.5" type="curve" smooth="yes"/>
      <point x="197.0" y="707.5"/>
      <point x="260.0" y="736.5"/>
      <point x="302.0" y="774.5" type="curve" smooth="yes"/>
      <point x="321.0" y="791.5"/>
      <point x="343.0" y="804.5"/>
      <point x="375.0" y="804.5" type="curve" smooth="yes"/>
      <point x="447.0" y="804.5"/>
      <point x="498.6738295556" y="738.4325330911"/>
      <point x="477.0" y="667.5" type="curve" smooth="yes"/>
      <point x="429.0" y="487.5"/>
      <point x="433.0" y="287.5"/>
      <point x="433.0" y="251.5" type="curve" smooth="yes"/>
      <point x="433.0" y="213.5"/>
      <point x="410.0" y="184.5"/>
      <point x="367.0" y="184.5" type="curve" smooth="yes"/>
      <point x="300.0" y="184.5"/>
      <point x="260.0" y="237.5"/>
      <point x="260.0" y="303.5" type="curve" smooth="yes"/>
      <point x="260.0" y="412.5"/>
      <point x="275.0" y="524.5"/>
      <point x="296.0" y="625.5" type="curve"/>
      <point x="328.0" y="597.5" type="line"/>
      <point x="287.9930727825" y="563.6479846621"/>
      <point x="214.0" y="539.5"/>
      <point x="151.0" y="539.5" type="curve" smooth="yes"/>
      <point x="81.0" y="539.5"/>
      <point x="49.0" y="586.4793814433"/>
      <point x="49.0" y="632.5" type="curve" smooth="yes"/>
      <point x="49.0" y="665.4361702128"/>
      <point x="70.0" y="693.5"/>
    </contour>
  </outline>
</glyph>
<glyph name="two" format="2">
  <advance width="700"/>
  <unicode hex="0032"/>
  <outline>
    <contour>
      <point x="102.0" y="657.5" type="curve" smooth="yes"/>
      <point x="200.0" y="726.5"/>
      <point x="289.2040816327" y="762.5"/>
      <point x="378.0" y="762.5" type="curve" smooth="yes"/>
      <point x="538.0" y="762.5"/>
      <point x="600.0" y="674.3823529412"/>
      <point x="600.0" y="548.5" type="curve" smooth="yes"/>
      <point x="600.0" y="450.0678496868"/>
      <point x="553.0" y="352.5"/>
      <point x="289.0" y="175.5" type="curve"/>
      <point x="246.0" y="220.5" type="line"/>
      <point x="272.0" y="213.5"/>
      <point x="298.0" y="211.5"/>
      <point x="323.0" y="211.5" type="curve" smooth="yes"/>
      <point x="376.0" y="211.5"/>
      <point x="454.0" y="223.5"/>
      <point x="547.0" y="223.5" type="curve" smooth="yes"/>
      <point x="649.0" y="223.5"/>
      <point x="684.0" y="181.0471698113"/>
      <point x="684.0" y="123.5" type="curve" smooth="yes"/>
      <point x="684.0" y="84.3235294118"/>
      <point x="653.4" y="49.5"/>
      <point x="599.0" y="49.5" type="curve" smooth="yes"/>
      <point x="366.2422907489" y="49.5"/>
      <point x="227.3700440529" y="29.5"/>
      <point x="155.0" y="29.5" type="curve" smooth="yes"/>
      <point x="84.0" y="29.5"/>
      <point x="52.0" y="78.5"/>
      <point x="52.0" y="146.5" type="curve" smooth="yes"/>
      <point x="52.0" y="188.5"/>
      <point x="67.0" y="206.5"/>
      <point x="85.0" y="218.5" type="curve" smooth="yes"/>
      <point x="329.0510847817" y="375.2768876906"/>
      <point x="427.0" y="460.1650943396"/>
      <point x="427.0" y="548.5" type="curve" smooth="yes"/>
      <point x="427.0" y="572.6870503597"/>
      <point x="412.0" y="587.5"/>
      <point x="378.0" y="587.5" type="curve" smooth="yes"/>
      <point x="264.2192982456" y="587.5"/>
      <point x="194.0" y="495.5"/>
      <point x="144.0" y="495.5" type="curve" smooth="yes"/>
      <point x="98.0" y="495.5"/>
      <point x="61.0" y="537.5"/>
      <point x="61.0" y="585.5" type="curve" smooth="yes"/>
      <point x="61.0" y="617.5"/>
      <point x="71.0" y="635.5"/>
    </contour>
  </outline>
</glyph>
<glyph name="three" format="2">
  <advance width="700"/>
  <unicode hex="0033"/>
  <outline>
    <contour>
      <point x="372.0" y="691.0" type="curve" smooth="yes"/>
      <point x="536.0" y="691.0"/>
      <point x="614.0" y="620.0"/>
      <point x="614.0" y="511.0" type="curve" smooth="yes"/>
      <point x="614.0" y="441.0"/>
      <point x="570.3647598726" y="368.0595526323"/>
      <point x="423.0" y="344.0" type="curve"/>
      <point x="417.0" y="383.0" type="line"/>
      <point x="620.0" y="381.0"/>
      <point x="668.0" y="304.8934911243"/>
      <point x="668.0" y="207.0" type="curve" smooth="yes"/>
      <point x="668.0" y="38.0"/>
      <point x="488.0" y="-33.0"/>
      <point x="257.0" y="-33.0" type="curve"/>
      <point x="92.2" y="-33.0"/>
      <point x="51.0" y="21.0"/>
      <point x="51.0" y="100.0" type="curve" smooth="yes"/>
      <point x="51.0" y="144.0"/>
      <point x="68.2833333333" y="180.0"/>
      <point x="112.0" y="180.0" type="curve" smooth="yes"/>
      <point x="153.0" y="180.0"/>
      <point x="156.3609022556" y="140.0"/>
      <point x="230.0" y="140.0" type="curve" smooth="yes"/>
      <point x="389.0" y="140.0"/>
      <point x="495.0" y="166.0"/>
      <point x="495.0" y="218.0" type="curve" smooth="yes"/>
      <point x="495.0" y="251.0"/>
      <point x="458.0" y="261.0"/>
      <point x="291.0" y="261.0" type="curve" smooth="yes"/>
      <point x="238.0" y="261.0"/>
      <point x="211.0" y="307.0"/>
      <point x="211.0" y="356.0" type="curve" smooth="yes"/>
      <point x="211.0" y="382.0"/>
      <point x="223.0" y="400.0"/>
      <point x="253.0" y="406.0" type="curve" smooth="yes"/>
      <point x="373.0" y="431.0"/>
      <point x="433.0" y="460.0"/>
      <point x="433.0" y="501.0" type="curve" smooth="yes"/>
      <point x="433.0" y="519.0"/>
      <point x="422.0" y="526.0"/>
      <point x="383.0" y="526.0" type="curve" smooth="yes"/>
      <point x="220.0" y="526.0"/>
      <point x="180.4285714286" y="454.0"/>
      <point x="120.0" y="454.0" type="curve" smooth="yes"/>
      <point x="92.0" y="454.0"/>
      <point x="42.0" y="489.0"/>
      <point x="42.0" y="535.0" type="curve" smooth="yes"/>
      <point x="42.0" y="598.7419354839"/>
      <point x="191.7765650081" y="691.0"/>
    </contour>
  </outline>
</glyph>
<glyph name="four" format="2">
  <advance width="700"/>
  <unicode hex="0034"/>
  <outline>
    <contour>
      <point x="327.0" y="175.0" type="curve" smooth="yes"/>
      <point x="327.0" y="332.6883116883"/>
      <point x="372.0" y="479.0"/>
      <point x="372.0" y="577.0" type="curve" smooth="yes"/>
      <point x="372.0" y="592.0"/>
      <point x="369.0" y="604.0"/>
      <point x="358.0" y="628.0" type="curve"/>
      <point x="411.0" y="571.0" type="line"/>
      <point x="316.0" y="512.0"/>
      <point x="234.0" y="409.0"/>
      <point x="180.0" y="287.0" type="curve"/>
      <point x="127.0" y="357.0" type="line"/>
      <point x="160.0" y="344.0"/>
      <point x="168.0" y="341.0"/>
      <point x="193.0" y="341.0" type="curve" smooth="yes"/>
      <point x="322.15" y="341.0"/>
      <point x="428.75" y="385.0"/>
      <point x="603.0" y="385.0" type="curve" smooth="yes"/>
      <point x="652.0" y="385.0"/>
      <point x="692.0" y="333.0"/>
      <point x="692.0" y="277.0" type="curve" smooth="yes"/>
      <point x="692.0" y="239.0"/>
      <point x="674.0" y="210.0"/>
      <point x="629.0" y="210.0" type="curve" smooth="yes"/>
      <point x="418.7700205339" y="210.0"/>
      <point x="298.3470225873" y="165.0"/>
      <point x="132.0" y="165.0" type="curve" smooth="yes"/>
      <point x="61.0" y="165.0"/>
      <point x="15.0" y="222.0"/>
      <point x="15.0" y="270.0" type="curve" smooth="yes"/>
      <point x="15.0" y="318.935483871"/>
      <point x="22.7022043817" y="373.8376479795"/>
      <point x="73.0" y="455.0" type="curve" smooth="yes"/>
      <point x="182.0" y="632.0"/>
      <point x="341.0" y="733.0"/>
      <point x="415.0" y="733.0" type="curve" smooth="yes"/>
      <point x="508.0" y="733.0"/>
      <point x="551.0" y="661.0"/>
      <point x="551.0" y="599.0" type="curve" smooth="yes"/>
      <point x="551.0" y="445.0"/>
      <point x="502.0" y="329.8096385542"/>
      <point x="502.0" y="166.0" type="curve" smooth="yes"/>
      <point x="502.0" y="118.0"/>
      <point x="512.0" y="97.0"/>
      <point x="512.0" y="71.0" type="curve" smooth="yes"/>
      <point x="512.0" y="31.0"/>
      <point x="476.0" y="7.0"/>
      <point x="422.0" y="7.0" type="curve" smooth="yes"/>
      <point x="354.0" y="7.0"/>
      <point x="327.0" y="57.0"/>
    </contour>
  </outline>
</glyph>
<glyph name="five" format="2">
  <advance width="700"/>
  <unicode hex="0035"/>
  <outline>
    <contour>
      <point x="601.0" y="598.5" type="curve" smooth="yes"/>
      <point x="438.0" y="598.5"/>
      <point x="362.0" y="579.5"/>
      <point x="170.0" y="582.5" type="curve"/>
      <point x="239.0" y="633.5" type="line"/>
      <point x="225.0" y="604.5"/>
      <point x="222.0" y="592.5"/>
      <point x="222.0" y="572.5" type="curve" smooth="yes"/>
      <point x="222.0" y="550.5"/>
      <point x="231.0" y="544.5"/>
      <point x="381.0" y="521.5" type="curve" smooth="yes"/>
      <point x="595.0" y="484.5"/>
      <point x="641.0" y="427.5"/>
      <point x="641.0" y="312.5" type="curve" smooth="yes"/>
      <point x="641.0" y="154.5"/>
      <point x="483.0" y="43.5"/>
      <point x="242.0" y="43.5" type="curve" smooth="yes"/>
      <point x="123.0" y="43.5"/>
      <point x="69.0" y="95.5"/>
      <point x="69.0" y="173.5" type="curve" smooth="yes"/>
      <point x="69.0" y="216.5"/>
      <point x="91.0" y="250.5"/>
      <point x="136.0" y="250.5" type="curve" smooth="yes"/>
      <point x="171.0" y="250.5"/>
      <point x="175.0" y="213.5"/>
      <point x="233.0" y="213.5" type="curve" smooth="yes"/>
      <point x="329.0" y="213.5"/>
      <point x="457.0" y="248.5"/>
      <point x="457.0" y="310.5" type="curve" smooth="yes"/>
      <point x="457.0" y="336.5"/>
      <point x="446.0" y="353.5"/>
      <point x="365.0" y="367.5" type="curve" smooth="yes"/>
      <point x="90.0" y="416.5"/>
      <point x="45.0" y="447.5"/>
      <point x="45.0" y="562.5" type="curve" smooth="yes"/>
      <point x="45.0" y="599.5"/>
      <point x="54.0" y="646.5"/>
      <point x="73.0" y="702.5" type="curve" smooth="yes"/>
      <point x="84.0" y="738.5"/>
      <point x="98.0" y="755.5"/>
      <point x="134.0" y="755.5" type="curve" smooth="yes"/>
      <point x="324.0" y="755.5"/>
      <point x="392.0" y="771.5"/>
      <point x="534.0" y="771.5" type="curve" smooth="yes"/>
      <point x="620.0" y="771.5"/>
      <point x="666.0" y="717.5"/>
      <point x="663.0" y="658.5" type="curve" smooth="yes"/>
      <point x="662.0" y="622.5"/>
      <point x="637.0" y="598.5"/>
    </contour>
  </outline>
</glyph>
<glyph name="six" format="2">
  <advance width="700"/>
  <unicode hex="0036"/>
  <outline>
    <contour>
      <point x="465.0" y="481.5" type="curve" smooth="yes"/>
      <point x="318.5493302526" y="377.7517751317"/>
      <point x="205.0" y="280.5"/>
      <point x="205.0" y="176.5" type="curve" smooth="yes"/>
      <point x="205.0" y="112.7025316456"/>
      <point x="269.9192546584" y="92.5"/>
      <point x="361.0" y="92.5" type="curve" smooth="yes"/>
      <point x="447.0970149254" y="92.5"/>
      <point x="500.0" y="124.5"/>
      <point x="500.0" y="163.5" type="curve" smooth="yes"/>
      <point x="500.0" y="192.5"/>
      <point x="473.3913043478" y="220.5"/>
      <point x="398.0" y="220.5" type="curve" smooth="yes"/>
      <point x="313.3971631206" y="220.5"/>
      <point x="291.9787234043" y="199.5"/>
      <point x="247.0" y="199.5" type="curve" smooth="yes"/>
      <point x="205.0" y="199.5"/>
      <point x="191.0" y="219.5"/>
      <point x="191.0" y="245.5" type="curve" smooth="yes"/>
      <point x="191.0" y="288.4606299213"/>
      <point x="286.0" y="369.5"/>
      <point x="443.0" y="369.5" type="curve" smooth="yes"/>
      <point x="585.0" y="369.5"/>
      <point x="675.0" y="276.811627907"/>
      <point x="675.0" y="157.5" type="curve" smooth="yes"/>
      <point x="675.0" y="19.5"/>
      <point x="552.5339805825" y="-77.5"/>
      <point x="357.0" y="-77.5" type="curve" smooth="yes"/>
      <point x="130.1495601173" y="-77.5"/>
      <point x="25.0" y="23.5"/>
      <point x="25.0" y="171.5" type="curve" smooth="yes"/>
      <point x="25.0" y="316.1681922197"/>
      <point x="137.4108697986" y="468.44772643470003"/>
      <point x="328.0" y="607.5" type="curve" smooth="yes"/>
      <point x="370.8236519665" y="639.05426987"/>
      <point x="389.0724637681" y="642.5"/>
      <point x="414.0" y="642.5" type="curve" smooth="yes"/>
      <point x="467.5638297873" y="642.5"/>
      <point x="509.0" y="596.0"/>
      <point x="509.0" y="549.5" type="curve" smooth="yes"/>
      <point x="509.0" y="524.6746031746"/>
      <point x="503.9486356518" y="508.20763587550005"/>
    </contour>
  </outline>
</glyph>
<glyph name="seven" format="2">
  <advance width="700"/>
  <unicode hex="0037"/>
  <outline>
    <contour>
      <point x="172.0" y="349.5" type="curve" smooth="yes"/>
      <point x="285.9679144385" y="349.5"/>
      <point x="386.5882352941" y="377.5"/>
      <point x="556.0" y="377.5" type="curve" smooth="yes"/>
      <point x="635.0" y="377.5"/>
      <point x="682.0" y="330.5"/>
      <point x="682.0" y="272.5" type="curve" smooth="yes"/>
      <point x="682.0" y="236.5"/>
      <point x="657.0" y="212.5"/>
      <point x="611.0" y="212.5" type="curve" smooth="yes"/>
      <point x="387.4245524297" y="212.5"/>
      <point x="307.4296675192" y="184.5"/>
      <point x="210.0" y="184.5" type="curve" smooth="yes"/>
      <point x="153.0" y="184.5"/>
      <point x="111.0" y="231.5"/>
      <point x="111.0" y="281.5" type="curve" smooth="yes"/>
      <point x="111.0" y="325.5"/>
      <point x="130.0" y="349.5"/>
    </contour>
    <contour>
      <point x="52.0" y="628.5" type="curve" smooth="yes"/>
      <point x="151.0" y="665.5"/>
      <point x="295.1998732257" y="693.5"/>
      <point x="376.0" y="693.5" type="curve" smooth="yes"/>
      <point x="553.0196078431" y="693.5"/>
      <point x="620.0" y="618.5"/>
      <point x="620.0" y="508.5" type="curve" smooth="yes"/>
      <point x="620.0" y="348.5"/>
      <point x="440.0" y="218.5"/>
      <point x="440.0" y="53.5" type="curve" smooth="yes"/>
      <point x="440.0" y="-7.5"/>
      <point x="421.0" y="-25.5"/>
      <point x="373.0" y="-25.5" type="curve" smooth="yes"/>
      <point x="315.0" y="-25.5"/>
      <point x="267.0" y="3.5"/>
      <point x="267.0" y="66.5" type="curve" smooth="yes"/>
      <point x="267.0" y="223.5"/>
      <point x="443.0" y="419.5"/>
      <point x="443.0" y="489.5" type="curve" smooth="yes"/>
      <point x="443.0" y="518.5"/>
      <point x="427.0" y="529.5"/>
      <point x="383.0" y="529.5" type="curve" smooth="yes"/>
      <point x="224.0" y="529.5"/>
      <point x="156.309352518" y="477.5"/>
      <point x="109.0" y="477.5" type="curve" smooth="yes"/>
      <point x="67.4772727273" y="477.5"/>
      <point x="22.0" y="530.5"/>
      <point x="22.0" y="576.5" type="curve" smooth="yes"/>
      <point x="22.0" y="598.5"/>
      <point x="32.0" y="621.5"/>
    </contour>
  </outline>
</glyph>
<glyph name="eight" format="2">
  <advance width="700"/>
  <unicode hex="0038"/>
  <outline>
    <contour>
      <point x="396.0" y="574.0" type="curve" smooth="yes"/>
      <point x="238.7312883765" y="579.2774735444"/>
      <point x="206.0" y="565.0"/>
      <point x="206.0" y="552.0" type="curve" smooth="yes"/>
      <point x="206.0" y="518.5340909091"/>
      <point x="298.0" y="495.0"/>
      <point x="412.0" y="457.0" type="curve" smooth="yes"/>
      <point x="625.7009717466" y="385.4205482985"/>
      <point x="663.0" y="345.0"/>
      <point x="663.0" y="252.0" type="curve" smooth="yes"/>
      <point x="663.0" y="129.0"/>
      <point x="568.2941176471" y="18.0"/>
      <point x="318.0" y="18.0" type="curve" smooth="yes"/>
      <point x="116.3076923077" y="18.0"/>
      <point x="39.99993101" y="104.996653985"/>
      <point x="42.0" y="202.0" type="curve" smooth="yes"/>
      <point x="44.0001121211" y="280.0043727217"/>
      <point x="81.289040218" y="334.8521062748"/>
      <point x="306.0" y="452.0" type="curve" smooth="yes"/>
      <point x="458.1391672542" y="530.9293424100999"/>
      <point x="491.8685127595" y="569.4860044236"/>
      <point x="503.0" y="613.0" type="curve" smooth="yes"/>
      <point x="513.0" y="649.0"/>
      <point x="528.0" y="672.0"/>
      <point x="563.0" y="672.0" type="curve" smooth="yes"/>
      <point x="615.0" y="672.0"/>
      <point x="659.0" y="625.0"/>
      <point x="659.0" y="565.0" type="curve" smooth="yes"/>
      <point x="659.0" y="510.0"/>
      <point x="616.013180004" y="443.3579264201"/>
      <point x="463.0" y="360.0" type="curve" smooth="yes"/>
      <point x="235.0" y="235.0"/>
      <point x="219.0" y="218.0213903743"/>
      <point x="219.0" y="183.0" type="curve" smooth="yes"/>
      <point x="219.0" y="161.7647058824"/>
      <point x="218.1581885492" y="131.87749779109998"/>
      <point x="239.0" y="88.0" type="curve"/>
      <point x="144.0" y="214.0" type="line"/>
      <point x="208.6474761064" y="188.3639318888"/>
      <point x="255.1384615385" y="189.0"/>
      <point x="316.0" y="189.0" type="curve" smooth="yes"/>
      <point x="405.935483871" y="189.0"/>
      <point x="480.0" y="203.9032258065"/>
      <point x="480.0" y="255.0" type="curve" smooth="yes"/>
      <point x="480.0" y="277.0"/>
      <point x="465.0" y="301.0"/>
      <point x="325.0" y="337.0" type="curve" smooth="yes"/>
      <point x="80.0" y="401.0"/>
      <point x="32.0" y="458.0"/>
      <point x="33.0" y="552.0" type="curve" smooth="yes"/>
      <point x="34.999984884" y="671.9990930416"/>
      <point x="125.0479452055" y="741.0"/>
      <point x="335.0" y="741.0" type="curve" smooth="yes"/>
      <point x="419.0" y="741.0"/>
      <point x="465.0" y="686.0"/>
      <point x="463.0" y="635.0" type="curve" smooth="yes"/>
      <point x="462.0" y="601.0"/>
      <point x="432.0" y="573.0"/>
    </contour>
  </outline>
</glyph>
<glyph name="nine" format="2">
  <advance width="700"/>
  <unicode hex="0039"/>
  <outline>
    <contour>
      <point x="462.0" y="559.5" type="curve" smooth="yes"/>
      <point x="501.0" y="559.5"/>
      <point x="518.0" y="592.5"/>
      <point x="518.0" y="624.5" type="curve" smooth="yes"/>
      <point x="518.0" y="698.5"/>
      <point x="463.7033898305" y="744.5"/>
      <point x="369.0" y="744.5" type="curve" smooth="yes"/>
      <point x="140.0" y="744.5"/>
      <point x="32.0" y="604.5"/>
      <point x="32.0" y="476.5" type="curve" smooth="yes"/>
      <point x="32.0" y="356.5"/>
      <point x="119.0" y="274.5"/>
      <point x="271.0" y="274.5" type="curve" smooth="yes"/>
      <point x="394.0" y="274.5"/>
      <point x="481.5653363309" y="324.3945195109"/>
      <point x="560.0" y="448.5" type="curve"/>
      <point x="455.0" y="395.5" type="line"/>
      <point x="455.0" y="277.6201413428"/>
      <point x="458.2370330897" y="182.9118782989"/>
      <point x="468.0" y="117.5" type="curve" smooth="yes"/>
      <point x="477.5202892732" y="63.551694118499995"/>
      <point x="521.0" y="25.5"/>
      <point x="580.0" y="25.5" type="curve" smooth="yes"/>
      <point x="625.0" y="25.5"/>
      <point x="650.0" y="48.5"/>
      <point x="650.0" y="101.5" type="curve" smooth="yes"/>
      <point x="650.0" y="139.5"/>
      <point x="633.0" y="186.5"/>
      <point x="633.0" y="317.5" type="curve" smooth="yes"/>
      <point x="633.0" y="369.5"/>
      <point x="634.0" y="422.5"/>
      <point x="637.0" y="515.5" type="curve"/>
      <point x="663.0" y="635.5"/>
      <point x="630.0" y="700.5"/>
      <point x="533.0" y="700.5" type="curve" smooth="yes"/>
      <point x="498.0" y="700.5"/>
      <point x="474.0" y="676.5"/>
      <point x="474.0" y="634.5" type="curve" smooth="yes"/>
      <point x="474.0" y="482.7994652406"/>
      <point x="381.5376884422" y="437.5"/>
      <point x="274.0" y="437.5" type="curve" smooth="yes"/>
      <point x="225.5428571429" y="437.5"/>
      <point x="210.0" y="456.5"/>
      <point x="210.0" y="482.5" type="curve" smooth="yes"/>
      <point x="210.0" y="519.5"/>
      <point x="251.6890243902" y="573.5"/>
      <point x="369.0" y="573.5" type="curve" smooth="yes"/>
      <point x="415.0" y="573.5"/>
      <point x="436.0" y="559.5"/>
    </contour>
  </outline>
</glyph>
<glyph name="colon" format="2">
  <advance width="320"/>
  <unicode hex="003A"/>
  <outline>
    <contour>
      <point x="163.0" y="265.5" type="curve" smooth="yes"/>
      <point x="240.0" y="265.5"/>
      <point x="280.0" y="308.8150684932"/>
      <point x="280.0" y="358.5" type="curve" smooth="yes"/>
      <point x="280.0" y="419.3571428571"/>
      <point x="241.8275862069" y="478.5"/>
      <point x="145.0" y="478.5" type="curve" smooth="yes"/>
      <point x="87.4680851064" y="478.5"/>
      <point x="41.0" y="444.5"/>
      <point x="41.0" y="382.5" type="curve" smooth="yes"/>
      <point x="41.0" y="306.5"/>
      <point x="86.0" y="265.5"/>
    </contour>
    <contour>
      <point x="173.0" y="-63.5" type="curve" smooth="yes"/>
      <point x="243.0" y="-63.5"/>
      <point x="280.0" y="-20.1849315068"/>
      <point x="280.0" y="29.5" type="curve" smooth="yes"/>
      <point x="280.0" y="90.3571428571"/>
      <point x="240.6965517241" y="149.5"/>
      <point x="141.0" y="149.5" type="curve" smooth="yes"/>
      <point x="85.6808510638" y="149.5"/>
      <point x="41.0" y="115.5"/>
      <point x="41.0" y="53.5" type="curve" smooth="yes"/>
      <point x="41.0" y="-22.5"/>
      <point x="89.0" y="-63.5"/>
    </contour>
  </outline>
</glyph>
<glyph name="semicolon" format="2">
  <advance width="318"/>
  <unicode hex="003B"/>
  <outline>
    <contour>
      <point x="153.0" y="395.0" type="curve" smooth="yes"/>
      <point x="236.5811965812" y="395.0"/>
      <point x="280.0" y="438.3150684932"/>
      <point x="280.0" y="488.0" type="curve" smooth="yes"/>
      <point x="280.0" y="538.8333333333001"/>
      <point x="250.3103448276" y="588.0"/>
      <point x="175.0" y="588.0" type="curve" smooth="yes"/>
      <point x="100.8723404255" y="588.0"/>
      <point x="41.0" y="550.4583333333001"/>
      <point x="41.0" y="482.0" type="curve" smooth="yes"/>
      <point x="41.0" y="423.7010309278"/>
      <point x="78.6393442623" y="395.0"/>
    </contour>
    <component base="comma" yOffset="-25.5"/>
  </outline>
</glyph>
<glyph name="less" format="2">
  <advance width="700"/>
  <unicode hex="003C"/>
  <guideline x="161" y="344.5" angle="0" identifier="VLAmwIKhLM"/>
  <outline>
    <contour>
      <point x="561.0" y="428.5" type="curve" smooth="yes"/>
      <point x="422.0" y="392.5"/>
      <point x="301.0" y="344.5"/>
      <point x="213.0" y="287.5" type="curve"/>
      <point x="213.0" y="356.5" type="line"/>
      <point x="305.0" y="285.5"/>
      <point x="424.0" y="251.5"/>
      <point x="578.0" y="229.5" type="curve" smooth="yes"/>
      <point x="641.0" y="221.5"/>
      <point x="675.0" y="202.8119266055"/>
      <point x="675.0" y="146.5" type="curve" smooth="yes"/>
      <point x="675.0" y="95.5"/>
      <point x="632.0" y="69.5"/>
      <point x="591.0" y="69.5" type="curve" smooth="yes"/>
      <point x="550.0" y="69.5"/>
      <point x="525.0" y="72.5"/>
      <point x="486.0" y="79.5" type="curve" smooth="yes"/>
      <point x="303.0" y="108.5"/>
      <point x="166.0" y="168.5"/>
      <point x="72.0" y="252.5" type="curve" smooth="yes"/>
      <point x="44.0" y="277.5"/>
      <point x="31.0" y="304.5"/>
      <point x="31.0" y="334.5" type="curve" smooth="yes"/>
      <point x="31.0" y="359.5"/>
      <point x="41.0" y="383.5"/>
      <point x="75.0" y="409.5" type="curve" smooth="yes"/>
      <point x="174.0" y="486.5"/>
      <point x="336.0" y="550.5"/>
      <point x="449.0" y="584.5" type="curve" smooth="yes"/>
      <point x="485.0" y="595.5"/>
      <point x="508.0" y="598.5"/>
      <point x="532.0" y="598.5" type="curve" smooth="yes"/>
      <point x="605.0" y="598.5"/>
      <point x="645.0" y="555.5"/>
      <point x="645.0" y="504.5" type="curve" smooth="yes"/>
      <point x="645.0" y="455.0"/>
      <point x="624.0" y="445.5"/>
    </contour>
  </outline>
</glyph>
<glyph name="equal" format="2">
  <advance width="700"/>
  <unicode hex="003D"/>
  <outline>
    <contour>
      <point x="274.0" y="322.0"/>
      <point x="207.3252427184" y="294.0"/>
      <point x="140.0" y="294.0" type="curve" smooth="yes"/>
      <point x="83.0" y="294.0"/>
      <point x="52.0" y="335.0"/>
      <point x="52.0" y="379.0" type="curve" smooth="yes"/>
      <point x="52.0" y="418.0"/>
      <point x="76.0" y="447.0"/>
      <point x="154.0" y="459.0" type="curve" smooth="yes"/>
      <point x="257.288731986" y="475.4103592875"/>
      <point x="336.25" y="482.0"/>
      <point x="424.0" y="482.0" type="curve" smooth="yes"/>
      <point x="575.0" y="482.0"/>
      <point x="644.0" y="451.0"/>
      <point x="644.0" y="390.0" type="curve" smooth="yes"/>
      <point x="644.0" y="350.0"/>
      <point x="622.0" y="322.0"/>
      <point x="542.0" y="322.0" type="curve" smooth="yes"/>
    </contour>
    <contour>
      <point x="273.0" y="90.0"/>
      <point x="228.0" y="28.0"/>
      <point x="141.0" y="28.0" type="curve" smooth="yes"/>
      <point x="79.0" y="28.0"/>
      <point x="40.0" y="62.0"/>
      <point x="40.0" y="111.0" type="curve" smooth="yes"/>
      <point x="40.0" y="145.0"/>
      <point x="59.0" y="175.0"/>
      <point x="136.0" y="193.0" type="curve" smooth="yes"/>
      <point x="264.0" y="221.0"/>
      <point x="384.0" y="237.0"/>
      <point x="499.0" y="237.0" type="curve" smooth="yes"/>
      <point x="581.0" y="237.0"/>
      <point x="628.0" y="212.0"/>
      <point x="628.0" y="155.0" type="curve" smooth="yes"/>
      <point x="628.0" y="117.0"/>
      <point x="607.0" y="90.0"/>
      <point x="534.0" y="90.0" type="curve" smooth="yes"/>
    </contour>
  </outline>
</glyph>
<glyph name="greater" format="2">
  <advance width="700"/>
  <unicode hex="003E"/>
  <outline>
    <contour>
      <point x="145.0" y="309.0" type="curve" smooth="yes"/>
      <point x="284.0" y="345.0"/>
      <point x="405.0" y="393.0"/>
      <point x="493.0" y="450.0" type="curve"/>
      <point x="493.0" y="381.0" type="line"/>
      <point x="401.0" y="452.0"/>
      <point x="282.0" y="486.0"/>
      <point x="128.0" y="508.0" type="curve" smooth="yes"/>
      <point x="65.0" y="516.0"/>
      <point x="31.0" y="535.0"/>
      <point x="31.0" y="591.0" type="curve" smooth="yes"/>
      <point x="31.0" y="639.0"/>
      <point x="66.0" y="667.0"/>
      <point x="119.0" y="667.0" type="curve" smooth="yes"/>
      <point x="158.0" y="667.0"/>
      <point x="182.5587109851" y="664.7202313617"/>
      <point x="220.0" y="658.0" type="curve" smooth="yes"/>
      <point x="403.0" y="629.0"/>
      <point x="540.0" y="569.0"/>
      <point x="634.0" y="485.0" type="curve" smooth="yes"/>
      <point x="662.0" y="460.0"/>
      <point x="675.0" y="433.0"/>
      <point x="675.0" y="403.0" type="curve" smooth="yes"/>
      <point x="675.0" y="378.0"/>
      <point x="665.0" y="354.0"/>
      <point x="631.0" y="328.0" type="curve" smooth="yes"/>
      <point x="532.0" y="251.0"/>
      <point x="370.0" y="187.0"/>
      <point x="257.0" y="153.0" type="curve" smooth="yes"/>
      <point x="221.0" y="142.0"/>
      <point x="198.0" y="139.0"/>
      <point x="174.0" y="139.0" type="curve" smooth="yes"/>
      <point x="102.2920353982" y="139.0"/>
      <point x="63.0" y="181.08510638299998"/>
      <point x="63.0" y="231.0" type="curve" smooth="yes"/>
      <point x="63.0" y="275.1315789474"/>
      <point x="83.280555338" y="292.3455466785"/>
    </contour>
  </outline>
</glyph>
<glyph name="question" format="2">
  <advance width="541"/>
  <unicode hex="003F"/>
  <outline>
    <contour>
      <point x="56.0" y="694.5" type="curve" smooth="yes"/>
      <point x="107.0" y="721.5"/>
      <point x="189.0" y="736.5"/>
      <point x="251.0" y="736.5" type="curve" smooth="yes"/>
      <point x="420.0" y="736.5"/>
      <point x="510.0" y="667.5"/>
      <point x="510.0" y="549.5" type="curve" smooth="yes"/>
      <point x="510.0" y="470.5"/>
      <point x="459.0" y="424.5"/>
      <point x="396.0" y="395.5" type="curve" smooth="yes"/>
      <point x="327.0" y="361.5"/>
      <point x="314.0" y="352.5"/>
      <point x="314.0" y="343.5" type="curve" smooth="yes"/>
      <point x="314.0" y="335.5"/>
      <point x="331.0" y="321.5"/>
      <point x="331.0" y="299.5" type="curve" smooth="yes"/>
      <point x="331.0" y="275.5"/>
      <point x="310.0" y="247.5"/>
      <point x="268.0" y="247.5" type="curve" smooth="yes"/>
      <point x="191.0" y="247.5"/>
      <point x="144.0" y="303.5"/>
      <point x="144.0" y="366.5" type="curve" smooth="yes"/>
      <point x="144.0" y="410.5"/>
      <point x="170.0" y="448.5"/>
      <point x="257.0" y="485.5" type="curve" smooth="yes"/>
      <point x="323.0" y="513.5"/>
      <point x="330.0" y="525.5"/>
      <point x="330.0" y="539.5" type="curve" smooth="yes"/>
      <point x="330.0" y="556.5"/>
      <point x="312.0" y="566.5"/>
      <point x="262.0" y="566.5" type="curve" smooth="yes"/>
      <point x="162.0" y="566.5"/>
      <point x="136.0" y="532.5"/>
      <point x="90.0" y="532.5" type="curve" smooth="yes"/>
      <point x="44.0" y="532.5"/>
      <point x="7.0" y="559.5"/>
      <point x="7.0" y="615.5" type="curve" smooth="yes"/>
      <point x="7.0" y="652.5"/>
      <point x="23.0" y="677.5"/>
    </contour>
    <contour>
      <point x="256.0" y="3.5" type="curve" smooth="yes"/>
      <point x="320.0" y="3.5"/>
      <point x="353.0" y="34.5"/>
      <point x="353.0" y="83.5" type="curve" smooth="yes"/>
      <point x="353.0" y="133.5"/>
      <point x="315.0" y="181.5"/>
      <point x="233.0" y="181.5" type="curve" smooth="yes"/>
      <point x="180.0" y="181.5"/>
      <point x="144.0" y="152.5"/>
      <point x="144.0" y="92.5" type="curve" smooth="yes"/>
      <point x="144.0" y="35.5"/>
      <point x="186.0" y="3.5"/>
    </contour>
  </outline>
</glyph>
<glyph name="at" format="2">
  <advance width="924"/>
  <unicode hex="0040"/>
  <outline>
    <contour>
      <point x="550.0" y="226.5" type="curve" smooth="yes"/>
      <point x="493.0" y="207.5"/>
      <point x="454.0" y="169.5"/>
      <point x="454.0" y="135.5" type="curve" smooth="yes"/>
      <point x="454.0" y="117.5"/>
      <point x="461.0" y="101.5"/>
      <point x="475.0" y="89.5" type="curve"/>
      <point x="353.0" y="188.5" type="line"/>
      <point x="376.0" y="174.5"/>
      <point x="393.0" y="171.5"/>
      <point x="411.0" y="171.5" type="curve" smooth="yes"/>
      <point x="427.0" y="171.5"/>
      <point x="435.0" y="184.5"/>
      <point x="459.0" y="212.5" type="curve" smooth="yes"/>
      <point x="489.0" y="249.5"/>
      <point x="523.0" y="274.5"/>
      <point x="575.0" y="274.5" type="curve" smooth="yes"/>
      <point x="610.0" y="274.5"/>
      <point x="641.0" y="261.5"/>
      <point x="663.0" y="229.5" type="curve" smooth="yes"/>
      <point x="694.0" y="183.5"/>
      <point x="704.0" y="183.5"/>
      <point x="712.0" y="183.5" type="curve"/>
      <point x="717.0" y="183.5"/>
      <point x="720.0" y="191.5"/>
      <point x="720.0" y="197.5" type="curve" smooth="yes"/>
      <point x="720.0" y="302.5"/>
      <point x="635.0" y="472.5"/>
      <point x="515.0" y="472.5" type="curve" smooth="yes"/>
      <point x="354.0" y="472.5"/>
      <point x="204.0" y="326.5"/>
      <point x="204.0" y="177.5" type="curve" smooth="yes"/>
      <point x="204.0" y="8.5"/>
      <point x="358.0" y="-75.5"/>
      <point x="515.0" y="-75.5" type="curve" smooth="yes"/>
      <point x="662.0" y="-75.5"/>
      <point x="708.0" y="-35.5"/>
      <point x="769.0" y="-35.5" type="curve" smooth="yes"/>
      <point x="813.0" y="-35.5"/>
      <point x="836.0" y="-52.5"/>
      <point x="836.0" y="-94.5" type="curve" smooth="yes"/>
      <point x="836.0" y="-140.5"/>
      <point x="804.0" y="-185.5"/>
      <point x="755.0" y="-205.5" type="curve" smooth="yes"/>
      <point x="694.0" y="-232.5"/>
      <point x="627.0" y="-244.5"/>
      <point x="515.0" y="-244.5" type="curve" smooth="yes"/>
      <point x="254.0" y="-244.5"/>
      <point x="35.0" y="-83.5"/>
      <point x="35.0" y="177.5" type="curve" smooth="yes"/>
      <point x="35.0" y="406.5"/>
      <point x="262.0" y="642.5"/>
      <point x="515.0" y="642.5" type="curve" smooth="yes"/>
      <point x="761.0" y="642.5"/>
      <point x="889.0" y="354.5"/>
      <point x="889.0" y="197.5" type="curve" smooth="yes"/>
      <point x="889.0" y="76.5"/>
      <point x="817.0" y="14.5"/>
      <point x="733.0" y="14.5" type="curve" smooth="yes"/>
      <point x="692.0" y="14.5"/>
      <point x="639.0" y="21.5"/>
      <point x="600.0" y="62.5" type="curve" smooth="yes"/>
      <point x="566.0" y="98.5"/>
      <point x="548.0" y="112.5"/>
      <point x="509.0" y="120.5" type="curve"/>
      <point x="592.0" y="130.5" type="line"/>
      <point x="559.0" y="61.5"/>
      <point x="511.0" y="21.5"/>
      <point x="433.0" y="21.5" type="curve" smooth="yes"/>
      <point x="358.0" y="21.5"/>
      <point x="300.0" y="67.5"/>
      <point x="300.0" y="157.5" type="curve" smooth="yes"/>
      <point x="300.0" y="272.5"/>
      <point x="416.0" y="380.5"/>
      <point x="493.0" y="380.5" type="curve" smooth="yes"/>
      <point x="556.0" y="380.5"/>
      <point x="600.0" y="350.5"/>
      <point x="600.0" y="299.5" type="curve" smooth="yes"/>
      <point x="600.0" y="264.5"/>
      <point x="568.0" y="232.5"/>
    </contour>
  </outline>
</glyph>
<glyph name="A" format="2">
  <advance width="780"/>
  <unicode hex="0041"/>
  <anchor x="424" y="724.0" name="top"/>
  <anchor x="424" y="24.0" name="bottom"/>
  <anchor x="424" y="723.0" name="ring"/>
  <anchor x="702" y="24.0" name="ogonek"/>
  <outline>
    <contour>
      <point x="671.0" y="13.0" type="curve" smooth="yes"/>
      <point x="719.0" y="13.0"/>
      <point x="742.0" y="34.37931034482759"/>
      <point x="742.0" y="75.0" type="curve" smooth="yes"/>
      <point x="742.0" y="135.21290322580646"/>
      <point x="673.7839212348523" y="199.17634293649473"/>
      <point x="654.0" y="381.0" type="curve" smooth="yes"/>
      <point x="625.0" y="634.0"/>
      <point x="581.0" y="735.0"/>
      <point x="433.0" y="735.0" type="curve" smooth="yes"/>
      <point x="337.6302521008" y="735.0"/>
      <point x="250.0" y="666.0"/>
      <point x="199.0" y="567.0" type="curve"/>
      <point x="266.0" y="590.0" type="line"/>
      <point x="239.0" y="629.0"/>
      <point x="205.0" y="640.0"/>
      <point x="176.0" y="640.0" type="curve" smooth="yes"/>
      <point x="142.0" y="640.0"/>
      <point x="127.0" y="624.0"/>
      <point x="127.0" y="599.0" type="curve" smooth="yes"/>
      <point x="127.0" y="467.793911007"/>
      <point x="79.0" y="356.0"/>
      <point x="79.0" y="184.0" type="curve" smooth="yes"/>
      <point x="79.0" y="63.0"/>
      <point x="115.0" y="16.0"/>
      <point x="184.0" y="16.0" type="curve" smooth="yes"/>
      <point x="225.0" y="16.0"/>
      <point x="244.0" y="34.0"/>
      <point x="249.0" y="81.0" type="curve" smooth="yes"/>
      <point x="285.8682880481" y="377.8867405978"/>
      <point x="367.0" y="562.0"/>
      <point x="425.0" y="562.0" type="curve" smooth="yes"/>
      <point x="443.0" y="562.0"/>
      <point x="451.0" y="554.0"/>
      <point x="470.0" y="386.0" type="curve" smooth="yes"/>
      <point x="482.3976292043" y="283.9579750108"/>
      <point x="506.0" y="145.0"/>
      <point x="557.0" y="78.0" type="curve" smooth="yes"/>
      <point x="592.0" y="30.0"/>
      <point x="625.0" y="13.0"/>
    </contour>
    <contour>
      <point x="134.0" y="184.0" type="curve" smooth="yes"/>
      <point x="239.0" y="184.0"/>
      <point x="416.0" y="222.0"/>
      <point x="623.0" y="222.0" type="curve" smooth="yes"/>
      <point x="699.0" y="222.0"/>
      <point x="750.0" y="263.0"/>
      <point x="750.0" y="320.0" type="curve" smooth="yes"/>
      <point x="750.0" y="366.0"/>
      <point x="723.0" y="396.0"/>
      <point x="634.0" y="396.0" type="curve" smooth="yes"/>
      <point x="405.0" y="396.0"/>
      <point x="225.0" y="367.0"/>
      <point x="85.0" y="329.0" type="curve" smooth="yes"/>
      <point x="43.006442064736284" y="317.3847605710973"/>
      <point x="24.0" y="294.0"/>
      <point x="24.0" y="264.0" type="curve" smooth="yes"/>
      <point x="24.0" y="216.0"/>
      <point x="56.0" y="184.0"/>
    </contour>
  </outline>
</glyph>
<glyph name="B" format="2">
  <advance width="623"/>
  <unicode hex="0042"/>
  <anchor x="315" y="629.5" name="top"/>
  <anchor x="272" y="-70.5" name="bottom"/>
  <outline>
    <contour>
      <point x="252.0" y="82.5"/>
      <point x="226.0" y="127.34946236559139"/>
      <point x="226.0" y="276.5" type="curve" smooth="yes"/>
      <point x="226.0" y="354.5"/>
      <point x="228.0" y="385.5"/>
      <point x="235.0" y="464.5" type="curve" smooth="yes"/>
      <point x="240.0" y="509.5"/>
      <point x="202.0" y="558.5"/>
      <point x="149.0" y="558.5" type="curve" smooth="yes"/>
      <point x="125.0" y="558.5"/>
      <point x="92.0" y="542.5"/>
      <point x="83.0" y="508.5" type="curve" smooth="yes"/>
      <point x="59.0" y="413.5"/>
      <point x="53.0" y="367.5"/>
      <point x="53.0" y="260.5" type="curve" smooth="yes"/>
      <point x="53.0" y="77.30058651026394"/>
      <point x="128.0" y="-88.5"/>
      <point x="255.0" y="-88.5" type="curve" smooth="yes"/>
      <point x="381.0" y="-88.5"/>
      <point x="561.0" y="-23.32758620689654"/>
      <point x="561.0" y="151.5" type="curve" smooth="yes"/>
      <point x="561.0" y="218.5"/>
      <point x="513.0" y="291.5"/>
      <point x="370.0" y="307.5" type="curve"/>
      <point x="379.0" y="252.5" type="line"/>
      <point x="553.0" y="315.5"/>
      <point x="587.0" y="392.5"/>
      <point x="587.0" y="454.5" type="curve" smooth="yes"/>
      <point x="587.0" y="597.5"/>
      <point x="423.0" y="641.5"/>
      <point x="210.0" y="641.5" type="curve" smooth="yes"/>
      <point x="73.0" y="641.5"/>
      <point x="25.0" y="597.5"/>
      <point x="25.0" y="518.5" type="curve" smooth="yes"/>
      <point x="25.0" y="479.5"/>
      <point x="47.0" y="453.5"/>
      <point x="89.0" y="453.5" type="curve" smooth="yes"/>
      <point x="109.0" y="453.5"/>
      <point x="158.0" y="457.5"/>
      <point x="204.0" y="457.5" type="curve" smooth="yes"/>
      <point x="394.0" y="457.5"/>
      <point x="407.0" y="451.5"/>
      <point x="407.0" y="430.5" type="curve" smooth="yes"/>
      <point x="407.0" y="394.5"/>
      <point x="210.0" y="337.5"/>
      <point x="157.0" y="322.5" type="curve" smooth="yes"/>
      <point x="136.0" y="316.5"/>
      <point x="118.0" y="288.5"/>
      <point x="118.0" y="265.5" type="curve" smooth="yes"/>
      <point x="118.0" y="216.5"/>
      <point x="144.0" y="181.5"/>
      <point x="181.0" y="182.5" type="curve" smooth="yes"/>
      <point x="324.0" y="185.5"/>
      <point x="391.0" y="173.5"/>
      <point x="391.0" y="133.5" type="curve" smooth="yes"/>
      <point x="391.0" y="120.45348837209303"/>
      <point x="302.0" y="82.5"/>
      <point x="264.0" y="82.5" type="curve" smooth="yes"/>
    </contour>
  </outline>
</glyph>
<glyph name="C" format="2">
  <advance width="678"/>
  <unicode hex="0043"/>
  <anchor x="413" y="725.5" name="top"/>
  <anchor x="366" y="25.5" name="bottom"/>
  <outline>
    <contour>
      <point x="369.0" y="15.5" type="curve" smooth="yes"/>
      <point x="544.0" y="15.5"/>
      <point x="635.0" y="86.5"/>
      <point x="635.0" y="173.5" type="curve" smooth="yes"/>
      <point x="635.0" y="215.5"/>
      <point x="618.0" y="241.5"/>
      <point x="576.0" y="241.5" type="curve" smooth="yes"/>
      <point x="515.0" y="241.5"/>
      <point x="504.0" y="182.5"/>
      <point x="380.0" y="182.5" type="curve" smooth="yes"/>
      <point x="281.0" y="182.5"/>
      <point x="218.0" y="223.5"/>
      <point x="218.0" y="299.5" type="curve" smooth="yes"/>
      <point x="218.0" y="419.5"/>
      <point x="321.0" y="549.5"/>
      <point x="458.0" y="549.5" type="curve" smooth="yes"/>
      <point x="484.0" y="549.5"/>
      <point x="489.0" y="542.5"/>
      <point x="489.0" y="525.5" type="curve" smooth="yes"/>
      <point x="489.0" y="502.5"/>
      <point x="508.0" y="484.5"/>
      <point x="537.0" y="484.5" type="curve" smooth="yes"/>
      <point x="601.0" y="484.5"/>
      <point x="633.0" y="546.5"/>
      <point x="633.0" y="622.5" type="curve" smooth="yes"/>
      <point x="633.0" y="694.5"/>
      <point x="597.0" y="736.5"/>
      <point x="499.0" y="736.5" type="curve" smooth="yes"/>
      <point x="262.0" y="736.5"/>
      <point x="43.0" y="529.5"/>
      <point x="43.0" y="309.5" type="curve" smooth="yes"/>
      <point x="43.0" y="138.5"/>
      <point x="165.0" y="15.5"/>
    </contour>
  </outline>
</glyph>
<glyph name="D" format="2">
  <advance width="722"/>
  <unicode hex="0044"/>
  <anchor x="385" y="680.5" name="top"/>
  <anchor x="241" y="-19.5" name="bottom"/>
  <outline>
    <contour>
      <point x="232.0" y="-29.5" type="curve" smooth="yes"/>
      <point x="435.0" y="-29.5"/>
      <point x="683.0" y="148.5"/>
      <point x="683.0" y="402.5" type="curve" smooth="yes"/>
      <point x="683.0" y="560.5"/>
      <point x="565.0" y="689.5"/>
      <point x="351.0" y="689.5" type="curve" smooth="yes"/>
      <point x="252.0" y="689.5"/>
      <point x="132.0" y="669.5"/>
      <point x="62.0" y="650.5" type="curve" smooth="yes"/>
      <point x="29.0" y="641.5"/>
      <point x="15.0" y="612.5"/>
      <point x="15.0" y="587.5" type="curve" smooth="yes"/>
      <point x="15.0" y="531.5"/>
      <point x="59.0" y="474.5"/>
      <point x="141.0" y="474.5" type="curve" smooth="yes"/>
      <point x="195.0" y="474.5"/>
      <point x="242.0" y="512.5"/>
      <point x="358.0" y="512.5" type="curve" smooth="yes"/>
      <point x="462.0" y="512.5"/>
      <point x="504.0" y="465.5"/>
      <point x="504.0" y="394.5" type="curve" smooth="yes"/>
      <point x="504.0" y="279.5"/>
      <point x="398.0" y="166.5"/>
      <point x="177.0" y="125.5" type="curve"/>
      <point x="296.0" y="98.5" type="line"/>
      <point x="275.0" y="139.5"/>
      <point x="269.0" y="170.5"/>
      <point x="269.0" y="207.5" type="curve" smooth="yes"/>
      <point x="269.0" y="289.5"/>
      <point x="274.0" y="407.5"/>
      <point x="269.0" y="499.5" type="curve" smooth="yes"/>
      <point x="267.0" y="539.5"/>
      <point x="228.0" y="571.5"/>
      <point x="180.0" y="571.5" type="curve" smooth="yes"/>
      <point x="119.0" y="571.5"/>
      <point x="96.0" y="554.5"/>
      <point x="95.0" y="512.5" type="curve" smooth="yes"/>
      <point x="91.0" y="402.5"/>
      <point x="91.0" y="304.5"/>
      <point x="91.0" y="188.5" type="curve" smooth="yes"/>
      <point x="91.0" y="80.5"/>
      <point x="150.0" y="-29.5"/>
    </contour>
  </outline>
</glyph>
<glyph name="E" format="2">
  <advance width="704"/>
  <unicode hex="0045"/>
  <anchor x="386" y="628.0" name="top"/>
  <anchor x="386" y="-72.0" name="bottom"/>
  <anchor x="621" y="-18.0" name="ogonek"/>
  <outline>
    <contour>
      <point x="96.0" y="451.0" type="curve" smooth="yes"/>
      <point x="74.0" y="365.0"/>
      <point x="69.0" y="281.0"/>
      <point x="69.0" y="221.0" type="curve" smooth="yes"/>
      <point x="69.0" y="58.0"/>
      <point x="163.0" y="-79.0"/>
      <point x="362.0" y="-79.0" type="curve" smooth="yes"/>
      <point x="558.0" y="-79.0"/>
      <point x="664.0" y="-27.0"/>
      <point x="664.0" y="67.0" type="curve" smooth="yes"/>
      <point x="664.0" y="105.0"/>
      <point x="651.0" y="129.0"/>
      <point x="601.0" y="129.0" type="curve" smooth="yes"/>
      <point x="559.0" y="129.0"/>
      <point x="484.0" y="96.0"/>
      <point x="362.0" y="96.0" type="curve" smooth="yes"/>
      <point x="288.0" y="96.0"/>
      <point x="245.0" y="150.0"/>
      <point x="245.0" y="219.0" type="curve" smooth="yes"/>
      <point x="245.0" y="330.0"/>
      <point x="269.0" y="428.0"/>
      <point x="269.0" y="470.0" type="curve" smooth="yes"/>
      <point x="269.0" y="511.0"/>
      <point x="225.0" y="534.0"/>
      <point x="200.0" y="534.0" type="curve" smooth="yes"/>
      <point x="149.0" y="534.0"/>
      <point x="110.0" y="505.0"/>
    </contour>
    <contour>
      <point x="202.0" y="163.0" type="curve" smooth="yes"/>
      <point x="271.0" y="179.0"/>
      <point x="344.0" y="192.0"/>
      <point x="478.0" y="200.0" type="curve" smooth="yes"/>
      <point x="534.0" y="204.0"/>
      <point x="575.0" y="240.0"/>
      <point x="575.0" y="306.0" type="curve" smooth="yes"/>
      <point x="575.0" y="360.0"/>
      <point x="559.0" y="372.0"/>
      <point x="489.0" y="372.0" type="curve" smooth="yes"/>
      <point x="349.0" y="367.0"/>
      <point x="273.0" y="353.0"/>
      <point x="208.0" y="338.0" type="curve" smooth="yes"/>
      <point x="171.0" y="329.0"/>
      <point x="143.0" y="292.0"/>
      <point x="143.0" y="250.0" type="curve" smooth="yes"/>
      <point x="143.0" y="197.0"/>
      <point x="155.0" y="153.0"/>
    </contour>
    <contour>
      <point x="181.0" y="430.0" type="curve" smooth="yes"/>
      <point x="241.0" y="430.0"/>
      <point x="429.0" y="473.0"/>
      <point x="626.0" y="473.0" type="curve" smooth="yes"/>
      <point x="657.0" y="473.0"/>
      <point x="667.0" y="496.0"/>
      <point x="667.0" y="525.0" type="curve" smooth="yes"/>
      <point x="667.0" y="589.0"/>
      <point x="601.0" y="640.0"/>
      <point x="490.0" y="640.0" type="curve" smooth="yes"/>
      <point x="404.0" y="640.0"/>
      <point x="232.0" y="626.0"/>
      <point x="91.0" y="580.0" type="curve" smooth="yes"/>
      <point x="57.0" y="569.0"/>
      <point x="50.0" y="550.0"/>
      <point x="50.0" y="525.0" type="curve" smooth="yes"/>
      <point x="50.0" y="474.0"/>
      <point x="95.0" y="430.0"/>
    </contour>
  </outline>
</glyph>
<glyph name="F" format="2">
  <advance width="594"/>
  <unicode hex="0046"/>
  <anchor x="321.0" y="631.0" name="top"/>
  <anchor x="260.0" y="-69.0" name="bottom"/>
  <outline>
    <contour>
      <point x="252.0" y="201.0" type="curve" smooth="yes"/>
      <point x="252.0" y="359.0"/>
      <point x="265.0" y="423.0"/>
      <point x="265.0" y="456.0" type="curve" smooth="yes"/>
      <point x="265.0" y="487.0"/>
      <point x="248.0" y="520.0"/>
      <point x="197.0" y="520.0" type="curve" smooth="yes"/>
      <point x="143.0" y="520.0"/>
      <point x="108.0" y="486.0"/>
      <point x="95.0" y="422.0" type="curve" smooth="yes"/>
      <point x="85.0" y="368.0"/>
      <point x="78.0" y="312.0"/>
      <point x="78.0" y="225.0" type="curve" smooth="yes"/>
      <point x="78.0" y="105.0"/>
      <point x="99.0" y="32.0"/>
      <point x="133.0" y="-14.0" type="curve" smooth="yes"/>
      <point x="170.0" y="-66.0"/>
      <point x="219.0" y="-82.0"/>
      <point x="251.0" y="-82.0" type="curve" smooth="yes"/>
      <point x="294.0" y="-82.0"/>
      <point x="314.0" y="-56.0"/>
      <point x="314.0" y="-23.0" type="curve" smooth="yes"/>
      <point x="314.0" y="42.0"/>
      <point x="252.0" y="53.0"/>
    </contour>
    <contour>
      <point x="481.0" y="467.0" type="curve" smooth="yes"/>
      <point x="537.0" y="467.0"/>
      <point x="559.0" y="492.0"/>
      <point x="559.0" y="532.0" type="curve" smooth="yes"/>
      <point x="559.0" y="593.0"/>
      <point x="496.0" y="639.0"/>
      <point x="426.0" y="639.0" type="curve" smooth="yes"/>
      <point x="305.0" y="639.0"/>
      <point x="176.0" y="616.0"/>
      <point x="71.0" y="588.0" type="curve" smooth="yes"/>
      <point x="34.0" y="578.0"/>
      <point x="16.0" y="556.0"/>
      <point x="16.0" y="525.0" type="curve" smooth="yes"/>
      <point x="16.0" y="474.0"/>
      <point x="52.0" y="421.0"/>
      <point x="147.0" y="421.0" type="curve" smooth="yes"/>
      <point x="189.0" y="421.0"/>
      <point x="294.0" y="467.0"/>
    </contour>
    <contour>
      <point x="200.0" y="112.0" type="curve" smooth="yes"/>
      <point x="252.0" y="126.0"/>
      <point x="365.0" y="143.0"/>
      <point x="449.0" y="149.0" type="curve" smooth="yes"/>
      <point x="502.0" y="153.0"/>
      <point x="553.0" y="186.0"/>
      <point x="553.0" y="250.0" type="curve" smooth="yes"/>
      <point x="553.0" y="293.0"/>
      <point x="534.0" y="318.0"/>
      <point x="477.0" y="318.0" type="curve" smooth="yes"/>
      <point x="368.0" y="318.0"/>
      <point x="262.0" y="303.0"/>
      <point x="186.0" y="285.0" type="curve" smooth="yes"/>
      <point x="148.0" y="275.0"/>
      <point x="107.0" y="224.0"/>
      <point x="107.0" y="181.0" type="curve" smooth="yes"/>
      <point x="107.0" y="135.0"/>
      <point x="137.0" y="96.0"/>
    </contour>
  </outline>
</glyph>
<glyph name="G" format="2">
  <advance width="818"/>
  <unicode hex="0047"/>
  <anchor x="451" y="673.0" name="top"/>
  <anchor x="400" y="-27.0" name="bottom"/>
  <outline>
    <contour>
      <point x="430.0" y="219.0" type="curve" smooth="yes"/>
      <point x="485.0" y="219.0"/>
      <point x="547.0" y="246.0"/>
      <point x="711.0" y="246.0" type="curve" smooth="yes"/>
      <point x="777.0" y="246.0"/>
      <point x="805.0" y="293.0"/>
      <point x="805.0" y="344.0" type="curve" smooth="yes"/>
      <point x="805.0" y="389.0"/>
      <point x="786.0" y="412.0"/>
      <point x="689.0" y="412.0" type="curve" smooth="yes"/>
      <point x="572.0" y="410.0"/>
      <point x="482.0" y="395.0"/>
      <point x="402.0" y="371.0" type="curve" smooth="yes"/>
      <point x="352.0" y="357.0"/>
      <point x="339.0" y="341.0"/>
      <point x="339.0" y="306.0" type="curve" smooth="yes"/>
      <point x="339.0" y="256.0"/>
      <point x="381.0" y="219.0"/>
    </contour>
    <contour>
      <point x="719.0" y="-136.0" type="curve" smooth="yes"/>
      <point x="744.0" y="-136.0"/>
      <point x="783.0" y="-118.0"/>
      <point x="783.0" y="-78.0" type="curve" smooth="yes"/>
      <point x="783.0" y="-55.0"/>
      <point x="779.0" y="-46.0"/>
      <point x="757.0" y="1.0" type="curve" smooth="yes"/>
      <point x="724.0" y="68.0"/>
      <point x="714.0" y="120.0"/>
      <point x="714.0" y="262.0" type="curve" smooth="yes"/>
      <point x="714.0" y="299.0"/>
      <point x="684.0" y="321.0"/>
      <point x="630.0" y="321.0" type="curve" smooth="yes"/>
      <point x="585.0" y="321.0"/>
      <point x="571.0" y="308.0"/>
      <point x="546.0" y="269.0" type="curve" smooth="yes"/>
      <point x="482.0" y="169.0"/>
      <point x="385.0" y="140.0"/>
      <point x="309.0" y="140.0" type="curve" smooth="yes"/>
      <point x="256.0" y="140.0"/>
      <point x="229.0" y="168.0"/>
      <point x="229.0" y="227.0" type="curve" smooth="yes"/>
      <point x="229.0" y="337.0"/>
      <point x="340.0" y="487.0"/>
      <point x="458.0" y="487.0" type="curve" smooth="yes"/>
      <point x="501.0" y="487.0"/>
      <point x="468.0" y="438.0"/>
      <point x="518.0" y="438.0" type="curve" smooth="yes"/>
      <point x="590.0" y="438.0"/>
      <point x="638.0" y="506.0"/>
      <point x="638.0" y="586.0" type="curve" smooth="yes"/>
      <point x="638.0" y="640.0"/>
      <point x="601.0" y="681.0"/>
      <point x="510.0" y="681.0" type="curve" smooth="yes"/>
      <point x="273.0" y="681.0"/>
      <point x="40.0" y="452.0"/>
      <point x="40.0" y="210.0" type="curve" smooth="yes"/>
      <point x="40.0" y="61.0"/>
      <point x="133.0" y="-37.0"/>
      <point x="292.0" y="-37.0" type="curve" smooth="yes"/>
      <point x="403.0" y="-37.0"/>
      <point x="524.0" y="6.0"/>
      <point x="576.0" y="93.0" type="curve"/>
      <point x="550.0" y="97.0" type="line"/>
      <point x="565.0" y="4.0"/>
      <point x="578.0" y="-38.0"/>
      <point x="601.0" y="-78.0" type="curve" smooth="yes"/>
      <point x="627.0" y="-119.0"/>
      <point x="664.0" y="-136.0"/>
    </contour>
  </outline>
</glyph>
<glyph name="H" format="2">
  <advance width="715"/>
  <unicode hex="0048"/>
  <anchor x="360" y="677.5" name="top"/>
  <anchor x="360" y="-22.5" name="bottom"/>
  <outline>
    <contour>
      <point x="191.0" y="-34.5" type="curve" smooth="yes"/>
      <point x="237.0" y="-34.5"/>
      <point x="266.0" y="-9.5"/>
      <point x="266.0" y="33.5" type="curve" smooth="yes"/>
      <point x="266.0" y="166.5"/>
      <point x="251.0" y="360.5"/>
      <point x="251.0" y="557.5" type="curve" smooth="yes"/>
      <point x="251.0" y="647.5"/>
      <point x="207.0" y="686.5"/>
      <point x="146.0" y="686.5" type="curve" smooth="yes"/>
      <point x="88.0" y="686.5"/>
      <point x="62.0" y="658.5"/>
      <point x="62.0" y="589.5" type="curve" smooth="yes"/>
      <point x="62.0" y="535.5"/>
      <point x="91.0" y="236.5"/>
      <point x="81.0" y="96.5" type="curve" smooth="yes"/>
      <point x="76.0" y="20.5"/>
      <point x="128.0" y="-34.5"/>
    </contour>
    <contour>
      <point x="592.0" y="-32.5" type="curve" smooth="yes"/>
      <point x="633.0" y="-32.5"/>
      <point x="651.0" y="-7.5"/>
      <point x="651.0" y="34.5" type="curve" smooth="yes"/>
      <point x="651.0" y="95.5"/>
      <point x="632.0" y="123.5"/>
      <point x="632.0" y="210.5" type="curve" smooth="yes"/>
      <point x="632.0" y="293.5"/>
      <point x="638.0" y="425.5"/>
      <point x="638.0" y="531.5" type="curve" smooth="yes"/>
      <point x="638.0" y="632.5"/>
      <point x="593.0" y="681.5"/>
      <point x="531.0" y="681.5" type="curve" smooth="yes"/>
      <point x="482.0" y="681.5"/>
      <point x="461.0" y="653.5"/>
      <point x="461.0" y="594.5" type="curve" smooth="yes"/>
      <point x="461.0" y="515.5"/>
      <point x="453.0" y="394.5"/>
      <point x="453.0" y="268.5" type="curve" smooth="yes"/>
      <point x="453.0" y="54.5"/>
      <point x="499.0" y="-32.5"/>
    </contour>
    <contour>
      <point x="196.0" y="213.5" type="curve" smooth="yes"/>
      <point x="257.0" y="213.5"/>
      <point x="356.0" y="243.5"/>
      <point x="628.0" y="243.5" type="curve" smooth="yes"/>
      <point x="659.0" y="243.5"/>
      <point x="677.0" y="266.5"/>
      <point x="677.0" y="301.5" type="curve" smooth="yes"/>
      <point x="677.0" y="359.5"/>
      <point x="618.0" y="406.5"/>
      <point x="515.0" y="406.5" type="curve" smooth="yes"/>
      <point x="365.0" y="406.5"/>
      <point x="210.0" y="404.5"/>
      <point x="67.0" y="360.5" type="curve" smooth="yes"/>
      <point x="39.0" y="352.5"/>
      <point x="33.0" y="336.5"/>
      <point x="33.0" y="311.5" type="curve" smooth="yes"/>
      <point x="33.0" y="260.5"/>
      <point x="70.0" y="213.5"/>
    </contour>
  </outline>
</glyph>
<glyph name="I" format="2">
  <advance width="621"/>
  <unicode hex="0049"/>
  <anchor x="316.0" y="718.0" name="top"/>
  <anchor x="316.0" y="18.0" name="bottom"/>
  <anchor x="526.0" y="34.0" name="ogonek"/>
  <outline>
    <contour>
      <point x="195.0" y="7.0" type="curve" smooth="yes"/>
      <point x="236.0" y="7.0"/>
      <point x="329.0" y="18.0"/>
      <point x="442.0" y="18.0" type="curve" smooth="yes"/>
      <point x="548.0" y="18.0"/>
      <point x="593.0" y="62.0"/>
      <point x="593.0" y="116.0" type="curve" smooth="yes"/>
      <point x="593.0" y="153.0"/>
      <point x="570.0" y="182.0"/>
      <point x="467.0" y="182.0" type="curve" smooth="yes"/>
      <point x="314.0" y="182.0"/>
      <point x="278.0" y="201.0"/>
      <point x="87.0" y="169.0" type="curve" smooth="yes"/>
      <point x="51.0" y="163.0"/>
      <point x="32.0" y="136.0"/>
      <point x="32.0" y="106.0" type="curve" smooth="yes"/>
      <point x="32.0" y="49.0"/>
      <point x="79.0" y="7.0"/>
    </contour>
    <contour>
      <point x="134.0" y="531.0" type="curve" smooth="yes"/>
      <point x="191.0" y="531.0"/>
      <point x="271.0" y="549.0"/>
      <point x="441.0" y="549.0" type="curve" smooth="yes"/>
      <point x="513.0" y="549.0"/>
      <point x="578.0" y="591.0"/>
      <point x="578.0" y="653.0" type="curve" smooth="yes"/>
      <point x="578.0" y="714.0"/>
      <point x="550.0" y="728.0"/>
      <point x="458.0" y="728.0" type="curve" smooth="yes"/>
      <point x="372.0" y="728.0"/>
      <point x="251.0" y="719.0"/>
      <point x="116.0" y="700.0" type="curve" smooth="yes"/>
      <point x="65.0" y="693.0"/>
      <point x="28.0" y="665.0"/>
      <point x="28.0" y="620.0" type="curve" smooth="yes"/>
      <point x="28.0" y="572.0"/>
      <point x="55.0" y="531.0"/>
    </contour>
    <contour>
      <point x="319.0" y="138.0" type="curve" smooth="yes"/>
      <point x="360.0" y="138.0"/>
      <point x="383.0" y="161.0"/>
      <point x="383.0" y="207.0" type="curve" smooth="yes"/>
      <point x="383.0" y="345.0"/>
      <point x="400.0" y="455.0"/>
      <point x="400.0" y="513.0" type="curve" smooth="yes"/>
      <point x="400.0" y="563.0"/>
      <point x="351.0" y="603.0"/>
      <point x="292.0" y="603.0" type="curve" smooth="yes"/>
      <point x="241.0" y="603.0"/>
      <point x="225.0" y="576.0"/>
      <point x="225.0" y="522.0" type="curve" smooth="yes"/>
      <point x="225.0" y="440.0"/>
      <point x="210.0" y="328.0"/>
      <point x="210.0" y="215.0" type="curve" smooth="yes"/>
      <point x="210.0" y="168.0"/>
      <point x="253.0" y="138.0"/>
    </contour>
  </outline>
</glyph>
<glyph name="J" format="2">
  <advance width="648"/>
  <unicode hex="004A"/>
  <anchor x="340" y="632.5" name="top"/>
  <anchor x="310" y="-67.5" name="bottom"/>
  <outline>
    <contour>
      <point x="294.0" y="-79.5" type="curve" smooth="yes"/>
      <point x="484.0" y="-79.5"/>
      <point x="585.0" y="0.5"/>
      <point x="585.0" y="178.5" type="curve" smooth="yes"/>
      <point x="585.0" y="268.5"/>
      <point x="546.0" y="434.5"/>
      <point x="513.0" y="523.5" type="curve" smooth="yes"/>
      <point x="489.0" y="588.5"/>
      <point x="448.0" y="606.5"/>
      <point x="373.0" y="608.5" type="curve" smooth="yes"/>
      <point x="339.0" y="608.5"/>
      <point x="311.0" y="576.5"/>
      <point x="325.0" y="539.5" type="curve" smooth="yes"/>
      <point x="364.0" y="446.5"/>
      <point x="407.0" y="288.5"/>
      <point x="407.0" y="204.5" type="curve" smooth="yes"/>
      <point x="407.0" y="127.5"/>
      <point x="379.0" y="93.5"/>
      <point x="294.0" y="93.5" type="curve" smooth="yes"/>
      <point x="220.0" y="93.5"/>
      <point x="200.0" y="115.5"/>
      <point x="200.0" y="136.5" type="curve" smooth="yes"/>
      <point x="200.0" y="166.5"/>
      <point x="226.0" y="190.5"/>
      <point x="226.0" y="221.5" type="curve" smooth="yes"/>
      <point x="226.0" y="248.5"/>
      <point x="209.0" y="262.5"/>
      <point x="176.0" y="262.5" type="curve" smooth="yes"/>
      <point x="71.0" y="262.5"/>
      <point x="31.0" y="164.5"/>
      <point x="31.0" y="103.5" type="curve" smooth="yes"/>
      <point x="31.0" y="-10.5"/>
      <point x="138.0" y="-79.5"/>
    </contour>
    <contour>
      <point x="218.0" y="458.5" type="curve" smooth="yes"/>
      <point x="298.0" y="458.5"/>
      <point x="425.0" y="476.5"/>
      <point x="556.0" y="476.5" type="curve" smooth="yes"/>
      <point x="602.0" y="476.5"/>
      <point x="626.0" y="497.5"/>
      <point x="626.0" y="536.5" type="curve" smooth="yes"/>
      <point x="626.0" y="625.5"/>
      <point x="538.0" y="644.5"/>
      <point x="460.0" y="644.5" type="curve" smooth="yes"/>
      <point x="360.0" y="644.5"/>
      <point x="309.0" y="632.5"/>
      <point x="237.0" y="632.5" type="curve" smooth="yes"/>
      <point x="196.0" y="632.5"/>
      <point x="156.0" y="645.5"/>
      <point x="107.0" y="645.5" type="curve" smooth="yes"/>
      <point x="75.0" y="645.5"/>
      <point x="57.0" y="623.5"/>
      <point x="57.0" y="589.5" type="curve" smooth="yes"/>
      <point x="57.0" y="493.5"/>
      <point x="152.0" y="458.5"/>
    </contour>
  </outline>
</glyph>
<glyph name="K" format="2">
  <advance width="684"/>
  <unicode hex="004B"/>
  <anchor x="331" y="640.0" name="top"/>
  <anchor x="331" y="-60.0" name="bottom"/>
  <outline>
    <contour>
      <point x="163.0" y="-72.0" type="curve" smooth="yes"/>
      <point x="210.0" y="-72.0"/>
      <point x="240.0" y="-47.0"/>
      <point x="240.0" y="-4.0" type="curve" smooth="yes"/>
      <point x="240.0" y="39.0"/>
      <point x="229.0" y="71.0"/>
      <point x="229.0" y="133.0" type="curve" smooth="yes"/>
      <point x="229.0" y="272.0"/>
      <point x="252.0" y="407.0"/>
      <point x="252.0" y="492.0" type="curve" smooth="yes"/>
      <point x="252.0" y="557.0"/>
      <point x="238.0" y="651.0"/>
      <point x="137.0" y="651.0" type="curve" smooth="yes"/>
      <point x="85.0" y="651.0"/>
      <point x="67.0" y="628.0"/>
      <point x="67.0" y="590.0" type="curve" smooth="yes"/>
      <point x="67.0" y="560.0"/>
      <point x="77.0" y="538.0"/>
      <point x="77.0" y="477.0" type="curve" smooth="yes"/>
      <point x="77.0" y="411.0"/>
      <point x="55.0" y="279.0"/>
      <point x="55.0" y="127.0" type="curve" smooth="yes"/>
      <point x="55.0" y="-20.0"/>
      <point x="79.0" y="-72.0"/>
    </contour>
    <contour>
      <point x="613.0" y="-71.0" type="curve" smooth="yes"/>
      <point x="671.21875" y="-71.0"/>
      <point x="694.0" y="-39.2647058824"/>
      <point x="694.0" y="12.0" type="curve" smooth="yes"/>
      <point x="694.0" y="59.64646464649999"/>
      <point x="672.0" y="91.0"/>
      <point x="615.0" y="105.0" type="curve" smooth="yes"/>
      <point x="451.0" y="147.0"/>
      <point x="369.0" y="225.02484472050003"/>
      <point x="369.0" y="257.0" type="curve" smooth="yes"/>
      <point x="369.0" y="304.0"/>
      <point x="461.0" y="411.0"/>
      <point x="548.0" y="463.0" type="curve" smooth="yes"/>
      <point x="603.0" y="495.0"/>
      <point x="614.0" y="518.0"/>
      <point x="614.0" y="557.0" type="curve" smooth="yes"/>
      <point x="614.0" y="628.0"/>
      <point x="581.0" y="653.0"/>
      <point x="530.0" y="653.0" type="curve" smooth="yes"/>
      <point x="508.0" y="653.0"/>
      <point x="480.0" y="643.0"/>
      <point x="450.0" y="622.0" type="curve" smooth="yes"/>
      <point x="323.0" y="528.0"/>
      <point x="209.0" y="364.0"/>
      <point x="209.0" y="232.0" type="curve" smooth="yes"/>
      <point x="209.0" y="42.0"/>
      <point x="500.0" y="-71.0"/>
    </contour>
  </outline>
</glyph>
<glyph name="L" format="2">
  <advance width="536"/>
  <unicode hex="004C"/>
  <anchor x="184" y="775.0" name="top"/>
  <anchor x="290" y="75.0" name="bottom"/>
  <outline>
    <contour>
      <point x="290.0" y="66.0" type="curve" smooth="yes"/>
      <point x="353.0" y="66.0"/>
      <point x="428.0" y="81.0"/>
      <point x="471.0" y="117.0" type="curve" smooth="yes"/>
      <point x="506.0" y="147.0"/>
      <point x="519.0" y="186.0"/>
      <point x="519.0" y="228.0" type="curve" smooth="yes"/>
      <point x="519.0" y="263.0"/>
      <point x="497.0" y="297.0"/>
      <point x="465.0" y="297.0" type="curve" smooth="yes"/>
      <point x="427.0" y="297.0"/>
      <point x="396.0" y="239.0"/>
      <point x="297.0" y="239.0" type="curve" smooth="yes"/>
      <point x="235.0" y="239.0"/>
      <point x="212.0" y="260.0"/>
      <point x="212.0" y="309.0" type="curve" smooth="yes"/>
      <point x="212.0" y="368.0"/>
      <point x="264.0" y="516.0"/>
      <point x="264.0" y="645.0" type="curve" smooth="yes"/>
      <point x="264.0" y="705.0"/>
      <point x="230.0" y="785.0"/>
      <point x="158.0" y="785.0" type="curve" smooth="yes"/>
      <point x="110.0" y="785.0"/>
      <point x="91.0" y="755.0"/>
      <point x="91.0" y="713.0" type="curve" smooth="yes"/>
      <point x="91.0" y="608.0"/>
      <point x="40.0" y="476.0"/>
      <point x="40.0" y="326.0" type="curve" smooth="yes"/>
      <point x="40.0" y="158.0"/>
      <point x="127.0" y="66.0"/>
    </contour>
  </outline>
</glyph>
<glyph name="M" format="2">
  <advance width="1050"/>
  <unicode hex="004D"/>
  <anchor x="554" y="752.5" name="top"/>
  <anchor x="534" y="52.5" name="bottom"/>
  <outline>
    <contour>
      <point x="240.0" y="593.5" type="curve"/>
      <point x="185.0" y="571.5" type="line"/>
      <point x="229.0" y="680.5"/>
      <point x="296.0" y="761.5"/>
      <point x="372.0" y="761.5" type="curve" smooth="yes"/>
      <point x="442.1656050955414" y="761.5"/>
      <point x="488.0" y="713.5"/>
      <point x="518.0" y="542.5" type="curve" smooth="yes"/>
      <point x="544.0364507400874" y="395.29391312335184"/>
      <point x="539.0" y="347.5"/>
      <point x="565.0" y="255.5" type="curve"/>
      <point x="505.0" y="310.5" type="line"/>
      <point x="536.0" y="395.5"/>
      <point x="562.4700907058161" y="525.4176320799648"/>
      <point x="610.0" y="622.5" type="curve" smooth="yes"/>
      <point x="649.0" y="697.5"/>
      <point x="695.0" y="768.5"/>
      <point x="776.0" y="768.5" type="curve" smooth="yes"/>
      <point x="870.0" y="768.5"/>
      <point x="930.0" y="701.5"/>
      <point x="948.0" y="538.5" type="curve" smooth="yes"/>
      <point x="964.0" y="390.5"/>
      <point x="983.0" y="246.5"/>
      <point x="1019.0" y="156.5" type="curve" smooth="yes"/>
      <point x="1044.0" y="94.5"/>
      <point x="1020.0" y="43.5"/>
      <point x="949.0" y="43.5" type="curve" smooth="yes"/>
      <point x="894.0" y="43.5"/>
      <point x="859.0" y="68.5"/>
      <point x="832.0" y="117.5" type="curve" smooth="yes"/>
      <point x="787.0" y="201.5"/>
      <point x="778.0" y="360.5"/>
      <point x="767.0" y="459.5" type="curve" smooth="yes"/>
      <point x="762.0" y="514.5"/>
      <point x="753.0" y="562.5"/>
      <point x="726.0" y="607.5" type="curve"/>
      <point x="791.0" y="580.5" type="line"/>
      <point x="724.0" y="501.5"/>
      <point x="700.0" y="331.5"/>
      <point x="613.0" y="103.5" type="curve" smooth="yes"/>
      <point x="596.0" y="57.5"/>
      <point x="573.0" y="42.5"/>
      <point x="534.0" y="42.5" type="curve" smooth="yes"/>
      <point x="495.0" y="42.5"/>
      <point x="473.0" y="56.5"/>
      <point x="454.0" y="89.5" type="curve" smooth="yes"/>
      <point x="416.0" y="153.5"/>
      <point x="394.0" y="232.5"/>
      <point x="375.0" y="352.5" type="curve" smooth="yes"/>
      <point x="363.0" y="431.5"/>
      <point x="356.0" y="483.5"/>
      <point x="332.0" y="539.5" type="curve"/>
      <point x="353.0" y="537.5" type="line"/>
      <point x="272.0" y="413.5"/>
      <point x="251.0" y="278.5"/>
      <point x="240.0" y="119.5" type="curve" smooth="yes"/>
      <point x="236.0" y="61.5"/>
      <point x="208.0" y="40.5"/>
      <point x="158.0" y="40.5" type="curve" smooth="yes"/>
      <point x="59.0" y="40.5"/>
      <point x="54.0" y="190.5"/>
      <point x="54.0" y="295.5" type="curve" smooth="yes"/>
      <point x="54.0" y="375.5"/>
      <point x="62.0" y="455.5"/>
      <point x="62.0" y="526.5" type="curve" smooth="yes"/>
      <point x="62.0" y="572.5"/>
      <point x="50.0" y="618.5"/>
      <point x="50.0" y="654.5" type="curve" smooth="yes"/>
      <point x="50.0" y="695.5"/>
      <point x="67.0" y="724.5"/>
      <point x="116.0" y="724.5" type="curve" smooth="yes"/>
      <point x="194.0" y="724.5"/>
      <point x="240.0" y="653.5"/>
    </contour>
  </outline>
</glyph>
<glyph name="N" format="2">
  <advance width="801"/>
  <unicode hex="004E"/>
  <anchor x="388" y="661.0" name="top"/>
  <anchor x="388" y="-39.0" name="bottom"/>
  <outline>
    <contour>
      <point x="131.0" y="-57.0" type="curve" smooth="yes"/>
      <point x="179.0" y="-57.0"/>
      <point x="206.0" y="-35.0"/>
      <point x="216.0" y="2.0" type="curve" smooth="yes"/>
      <point x="236.0" y="75.0"/>
      <point x="247.0" y="178.0"/>
      <point x="247.0" y="303.0" type="curve" smooth="yes"/>
      <point x="247.0" y="353.0"/>
      <point x="245.0" y="381.0"/>
      <point x="234.0" y="449.0" type="curve"/>
      <point x="203.0" y="443.0" type="line"/>
      <point x="358.0" y="218.0"/>
      <point x="405.0" y="-56.0"/>
      <point x="581.0" y="-56.0" type="curve" smooth="yes"/>
      <point x="711.0" y="-56.0"/>
      <point x="732.0" y="53.0"/>
      <point x="732.0" y="203.0" type="curve" smooth="yes"/>
      <point x="732.0" y="352.0"/>
      <point x="711.0" y="429.0"/>
      <point x="737.0" y="558.0" type="curve" smooth="yes"/>
      <point x="746.0" y="601.0"/>
      <point x="730.0" y="676.0"/>
      <point x="646.0" y="676.0" type="curve" smooth="yes"/>
      <point x="609.0" y="676.0"/>
      <point x="587.0" y="656.0"/>
      <point x="573.0" y="604.0" type="curve" smooth="yes"/>
      <point x="537.0" y="469.0"/>
      <point x="570.0" y="349.0"/>
      <point x="570.0" y="188.0" type="curve" smooth="yes"/>
      <point x="570.0" y="100.0"/>
      <point x="533.0" y="77.0"/>
      <point x="510.0" y="67.0" type="curve"/>
      <point x="609.0" y="113.0" type="line"/>
      <point x="479.0" y="197.0"/>
      <point x="380.0" y="671.0"/>
      <point x="140.0" y="671.0" type="curve" smooth="yes"/>
      <point x="88.0" y="671.0"/>
      <point x="61.0" y="639.0"/>
      <point x="61.0" y="599.0" type="curve" smooth="yes"/>
      <point x="61.0" y="566.0"/>
      <point x="77.0" y="418.0"/>
      <point x="77.0" y="303.0" type="curve" smooth="yes"/>
      <point x="77.0" y="94.0"/>
      <point x="53.0" y="63.0"/>
      <point x="53.0" y="7.0" type="curve" smooth="yes"/>
      <point x="53.0" y="-26.0"/>
      <point x="73.0" y="-57.0"/>
    </contour>
  </outline>
</glyph>
<glyph name="O" format="2">
  <advance width="756"/>
  <unicode hex="004F"/>
  <anchor x="367" y="674.5" name="top"/>
  <anchor x="367" y="-25.5" name="bottom"/>
  <anchor x="510" y="3.5" name="ogonek"/>
  <outline>
    <contour>
      <point x="335.0" y="455.5" type="curve" smooth="yes"/>
      <point x="241.0" y="381.5"/>
      <point x="215.0" y="337.5"/>
      <point x="215.0" y="264.5" type="curve" smooth="yes"/>
      <point x="215.0" y="178.5"/>
      <point x="279.0" y="138.5"/>
      <point x="362.0" y="138.5" type="curve" smooth="yes"/>
      <point x="458.0" y="138.5"/>
      <point x="541.0" y="198.5"/>
      <point x="541.0" y="274.5" type="curve" smooth="yes"/>
      <point x="541.0" y="375.5"/>
      <point x="460.0" y="512.5"/>
      <point x="376.0" y="512.5" type="curve" smooth="yes"/>
      <point x="367.0" y="512.5"/>
      <point x="364.0" y="502.5"/>
      <point x="364.0" y="488.5" type="curve" smooth="yes"/>
      <point x="364.0" y="458.5"/>
      <point x="347.0" y="443.5"/>
      <point x="329.0" y="443.5" type="curve" smooth="yes"/>
      <point x="275.0" y="443.5"/>
      <point x="220.0" y="489.5"/>
      <point x="220.0" y="580.5" type="curve" smooth="yes"/>
      <point x="220.0" y="635.5"/>
      <point x="274.0" y="685.5"/>
      <point x="369.0" y="685.5" type="curve" smooth="yes"/>
      <point x="559.0" y="685.5"/>
      <point x="711.0" y="467.5"/>
      <point x="711.0" y="274.5" type="curve" smooth="yes"/>
      <point x="711.0" y="105.5"/>
      <point x="545.0" y="-35.5"/>
      <point x="362.0" y="-35.5" type="curve" smooth="yes"/>
      <point x="190.0" y="-35.5"/>
      <point x="45.0" y="84.5"/>
      <point x="45.0" y="264.5" type="curve" smooth="yes"/>
      <point x="45.0" y="462.5"/>
      <point x="230.0" y="592.5"/>
      <point x="272.0" y="592.5" type="curve" smooth="yes"/>
      <point x="290.0" y="592.5"/>
      <point x="323.0" y="581.5"/>
      <point x="337.0" y="563.5" type="curve" smooth="yes"/>
      <point x="360.0" y="533.5"/>
      <point x="365.0" y="479.5"/>
    </contour>
  </outline>
</glyph>
<glyph name="P" format="2">
  <advance width="642"/>
  <unicode hex="0050"/>
  <anchor x="339" y="725.5" name="top"/>
  <anchor x="186" y="25.5" name="bottom"/>
  <outline>
    <contour>
      <point x="80.0" y="160.5" type="curve" smooth="yes"/>
      <point x="80.0" y="55.5"/>
      <point x="128.0" y="15.5"/>
      <point x="186.0" y="15.5" type="curve" smooth="yes"/>
      <point x="248.0" y="15.5"/>
      <point x="258.0" y="59.5"/>
      <point x="258.0" y="122.5" type="curve" smooth="yes"/>
      <point x="258.0" y="295.5"/>
      <point x="214.0" y="390.3095238095"/>
      <point x="214.0" y="491.5" type="curve" smooth="yes"/>
      <point x="214.0" y="534.5"/>
      <point x="259.0" y="558.5"/>
      <point x="348.0" y="558.5" type="curve" smooth="yes"/>
      <point x="393.0" y="558.5"/>
      <point x="436.0" y="541.5"/>
      <point x="436.0" y="505.5" type="curve" smooth="yes"/>
      <point x="436.0" y="443.5"/>
      <point x="359.0" y="373.5"/>
      <point x="284.0" y="373.5" type="curve" smooth="yes"/>
      <point x="227.0" y="373.5"/>
      <point x="215.0" y="391.5"/>
      <point x="190.0" y="391.5" type="curve" smooth="yes"/>
      <point x="155.0" y="391.5"/>
      <point x="127.0" y="369.5"/>
      <point x="127.0" y="328.5" type="curve" smooth="yes"/>
      <point x="127.0" y="261.5"/>
      <point x="197.0" y="198.5"/>
      <point x="291.0" y="198.5" type="curve" smooth="yes"/>
      <point x="464.0" y="198.5"/>
      <point x="609.0" y="356.5"/>
      <point x="609.0" y="505.5" type="curve" smooth="yes"/>
      <point x="609.0" y="650.5"/>
      <point x="491.0" y="733.5"/>
      <point x="347.0" y="733.5" type="curve" smooth="yes"/>
      <point x="123.0" y="733.5"/>
      <point x="41.0" y="637.5"/>
      <point x="41.0" y="491.5" type="curve" smooth="yes"/>
      <point x="41.0" y="388.5"/>
      <point x="80.0" y="336.5"/>
    </contour>
  </outline>
</glyph>
<glyph name="Q" format="2">
  <advance width="784"/>
  <unicode hex="0051"/>
  <anchor x="434.0" y="635.5" name="top"/>
  <anchor x="434.0" y="-64.5" name="bottom"/>
  <outline>
    <contour>
      <point x="506.0" y="192.5" type="curve" smooth="yes"/>
      <point x="529.7902314003474" y="162.14694614438446"/>
      <point x="571.3177097518071" y="69.10507856782934"/>
      <point x="618.0" y="8.5" type="curve" smooth="yes"/>
      <point x="686.0" y="-79.5"/>
      <point x="680.0" y="-172.5"/>
      <point x="600.0" y="-172.5" type="curve" smooth="yes"/>
      <point x="564.0" y="-172.5"/>
      <point x="544.0" y="-163.5"/>
      <point x="508.0" y="-123.5" type="curve" smooth="yes"/>
      <point x="453.03490221446623" y="-62.42766912718469"/>
      <point x="398.3992810548335" y="63.34361297367188"/>
      <point x="346.0" y="135.5" type="curve" smooth="yes"/>
      <point x="295.0" y="206.5"/>
      <point x="312.0" y="259.5"/>
      <point x="386.0" y="259.5" type="curve" smooth="yes"/>
      <point x="440.0" y="259.5"/>
      <point x="471.0" y="237.5"/>
    </contour>
    <contour>
      <point x="334.0" y="445.5" type="curve" smooth="yes"/>
      <point x="259.0" y="411.5"/>
      <point x="216.0" y="327.5"/>
      <point x="216.0" y="248.5" type="curve" smooth="yes"/>
      <point x="216.0" y="172.5"/>
      <point x="264.0" y="101.5"/>
      <point x="395.0" y="101.5" type="curve" smooth="yes"/>
      <point x="499.0" y="101.5"/>
      <point x="564.0" y="174.5"/>
      <point x="564.0" y="250.5" type="curve" smooth="yes"/>
      <point x="564.0" y="345.5"/>
      <point x="500.0" y="459.5"/>
      <point x="419.0" y="459.5" type="curve" smooth="yes"/>
      <point x="374.0" y="459.5"/>
      <point x="351.0" y="435.5"/>
      <point x="328.0" y="390.5" type="curve" smooth="yes"/>
      <point x="312.0" y="359.5"/>
      <point x="297.0" y="349.5"/>
      <point x="274.0" y="349.5" type="curve" smooth="yes"/>
      <point x="220.0" y="349.5"/>
      <point x="193.0" y="373.5"/>
      <point x="193.0" y="432.5" type="curve" smooth="yes"/>
      <point x="193.0" y="522.5"/>
      <point x="313.0" y="644.5"/>
      <point x="434.0" y="644.5" type="curve" smooth="yes"/>
      <point x="599.0" y="644.5"/>
      <point x="739.0" y="481.5"/>
      <point x="739.0" y="262.5" type="curve" smooth="yes"/>
      <point x="739.0" y="91.5"/>
      <point x="610.0" y="-73.5"/>
      <point x="395.0" y="-73.5" type="curve" smooth="yes"/>
      <point x="138.0" y="-73.5"/>
      <point x="45.0" y="79.5"/>
      <point x="45.0" y="248.5" type="curve" smooth="yes"/>
      <point x="45.0" y="431.5"/>
      <point x="198.0" y="591.5"/>
      <point x="288.0" y="591.5" type="curve" smooth="yes"/>
      <point x="327.0" y="591.5"/>
      <point x="385.0" y="552.5"/>
      <point x="385.0" y="509.5" type="curve" smooth="yes"/>
      <point x="385.0" y="482.5"/>
      <point x="380.0" y="466.5"/>
    </contour>
  </outline>
</glyph>
<glyph name="R" format="2">
  <advance width="756"/>
  <unicode hex="0052"/>
  <anchor x="369" y="727.0" name="top"/>
  <anchor x="369" y="27.0" name="bottom"/>
  <outline>
    <contour>
      <point x="117.0" y="706.0" type="curve" smooth="yes"/>
      <point x="53.0" y="706.0"/>
      <point x="33.0" y="670.0"/>
      <point x="48.0" y="615.0" type="curve" smooth="yes"/>
      <point x="76.0" y="516.0"/>
      <point x="102.0" y="449.0"/>
      <point x="99.0" y="340.0" type="curve"/>
      <point x="64.0" y="267.0"/>
      <point x="48.0" y="202.0"/>
      <point x="48.0" y="153.0" type="curve" smooth="yes"/>
      <point x="48.0" y="62.0"/>
      <point x="100.0" y="14.0"/>
      <point x="156.0" y="14.0" type="curve" smooth="yes"/>
      <point x="207.0" y="14.0"/>
      <point x="233.0" y="42.0"/>
      <point x="233.0" y="92.0" type="curve" smooth="yes"/>
      <point x="233.0" y="500.29787234042556"/>
      <point x="479.0" y="567.0"/>
      <point x="506.0" y="567.0" type="curve" smooth="yes"/>
      <point x="520.0" y="567.0"/>
      <point x="526.0" y="561.0"/>
      <point x="526.0" y="547.0" type="curve" smooth="yes"/>
      <point x="526.0" y="509.0"/>
      <point x="445.24178013139425" y="398.0493848779018"/>
      <point x="210.0" y="350.0" type="curve" smooth="yes"/>
      <point x="171.0" y="342.0"/>
      <point x="156.0" y="264.0"/>
      <point x="179.0" y="233.0" type="curve" smooth="yes"/>
      <point x="258.0" y="131.0"/>
      <point x="527.0" y="15.0"/>
      <point x="621.0" y="15.0" type="curve" smooth="yes"/>
      <point x="694.0" y="15.0"/>
      <point x="734.0" y="48.72631578947368"/>
      <point x="734.0" y="104.0" type="curve" smooth="yes"/>
      <point x="734.0" y="137.86153846153846"/>
      <point x="715.0" y="157.0"/>
      <point x="646.0" y="173.0" type="curve" smooth="yes"/>
      <point x="570.0" y="192.0"/>
      <point x="484.0" y="220.0"/>
      <point x="403.0" y="260.0" type="curve"/>
      <point x="578.0" y="313.0"/>
      <point x="700.0" y="427.0"/>
      <point x="700.0" y="556.0" type="curve" smooth="yes"/>
      <point x="700.0" y="657.0"/>
      <point x="648.0" y="737.0"/>
      <point x="520.0" y="737.0" type="curve" smooth="yes"/>
      <point x="403.0" y="737.0"/>
      <point x="294.0" y="663.0"/>
      <point x="223.0" y="555.0" type="curve"/>
      <point x="253.0" y="551.0" type="line"/>
      <point x="227.36827019431" y="666.8554187217187"/>
      <point x="192.0" y="706.0"/>
    </contour>
  </outline>
</glyph>
<glyph name="S" format="2">
  <advance width="578"/>
  <unicode hex="0053"/>
  <anchor x="294" y="781.0" name="top"/>
  <anchor x="294" y="81.0" name="bottom"/>
  <outline>
    <contour>
      <point x="253.0" y="72.0" type="curve" smooth="yes"/>
      <point x="450.0" y="72.0"/>
      <point x="547.0" y="127.0"/>
      <point x="547.0" y="249.0" type="curve" smooth="yes"/>
      <point x="547.0" y="443.0"/>
      <point x="217.0" y="466.0"/>
      <point x="217.0" y="532.0" type="curve" smooth="yes"/>
      <point x="217.0" y="562.0"/>
      <point x="322.0" y="599.0"/>
      <point x="471.0" y="627.0" type="curve" smooth="yes"/>
      <point x="508.0" y="634.0"/>
      <point x="525.0" y="662.0"/>
      <point x="525.0" y="696.0" type="curve" smooth="yes"/>
      <point x="525.0" y="745.0"/>
      <point x="501.0" y="791.0"/>
      <point x="429.0" y="791.0" type="curve" smooth="yes"/>
      <point x="306.0" y="791.0"/>
      <point x="38.0" y="693.0"/>
      <point x="38.0" y="536.0" type="curve" smooth="yes"/>
      <point x="38.0" y="338.0"/>
      <point x="333.0" y="317.0"/>
      <point x="366.0" y="253.0" type="curve"/>
      <point x="322.58270238410796" y="242.38688280500415"/>
      <point x="297.64925373134326" y="239.0"/>
      <point x="237.0" y="239.0" type="curve" smooth="yes"/>
      <point x="159.18045112781954" y="239.0"/>
      <point x="140.50375939849624" y="266.0"/>
      <point x="99.0" y="266.0" type="curve" smooth="yes"/>
      <point x="65.0" y="266.0"/>
      <point x="51.0" y="244.0"/>
      <point x="51.0" y="210.0" type="curve" smooth="yes"/>
      <point x="51.0" y="135.0"/>
      <point x="120.0" y="72.0"/>
    </contour>
  </outline>
</glyph>
<glyph name="T" format="2">
  <advance width="625"/>
  <unicode hex="0054"/>
  <anchor x="319" y="778.0" name="top"/>
  <anchor x="319" y="78.0" name="bottom"/>
  <outline>
    <contour>
      <point x="217.0" y="646.0" type="curve" smooth="yes"/>
      <point x="193.0" y="364.0"/>
      <point x="190.0" y="273.0"/>
      <point x="219.0" y="163.0" type="curve" smooth="yes"/>
      <point x="241.84071256926018" y="87.52634107548806"/>
      <point x="282.0" y="65.0"/>
      <point x="327.0" y="65.0" type="curve" smooth="yes"/>
      <point x="378.0" y="65.0"/>
      <point x="402.0" y="84.0"/>
      <point x="402.0" y="139.0" type="curve" smooth="yes"/>
      <point x="402.0" y="208.0"/>
      <point x="372.380236833873" y="250.99737187972443"/>
      <point x="394.0" y="592.0" type="curve" smooth="yes"/>
      <point x="399.0" y="680.0"/>
      <point x="372.0" y="718.0"/>
      <point x="289.0" y="718.0" type="curve" smooth="yes"/>
      <point x="248.0" y="718.0"/>
      <point x="220.0" y="688.0"/>
    </contour>
    <contour>
      <point x="123.0" y="621.0" type="curve" smooth="yes"/>
      <point x="234.0" y="610.0"/>
      <point x="338.0" y="610.0"/>
      <point x="474.0" y="610.0" type="curve" smooth="yes"/>
      <point x="542.0" y="610.0"/>
      <point x="613.0" y="644.0"/>
      <point x="613.0" y="727.0" type="curve" smooth="yes"/>
      <point x="613.0" y="764.0"/>
      <point x="593.0" y="789.0"/>
      <point x="551.0" y="789.0" type="curve" smooth="yes"/>
      <point x="468.0" y="789.0"/>
      <point x="419.0" y="778.0"/>
      <point x="355.0" y="778.0" type="curve" smooth="yes"/>
      <point x="263.0" y="778.0"/>
      <point x="178.0" y="788.0"/>
      <point x="65.0" y="788.0" type="curve" smooth="yes"/>
      <point x="27.0" y="788.0"/>
      <point x="12.0" y="761.0"/>
      <point x="12.0" y="729.0" type="curve" smooth="yes"/>
      <point x="12.0" y="663.0"/>
      <point x="39.0" y="629.0"/>
    </contour>
  </outline>
</glyph>
<glyph name="U" format="2">
  <advance width="689"/>
  <unicode hex="0055"/>
  <anchor x="354" y="731.5" name="top"/>
  <anchor x="354" y="31.5" name="bottom"/>
  <anchor x="482" y="42.5" name="ogonek"/>
  <outline>
    <contour>
      <point x="365.0" y="18.5" type="curve" smooth="yes"/>
      <point x="557.0" y="18.5"/>
      <point x="643.0" y="145.5"/>
      <point x="643.0" y="329.5" type="curve" smooth="yes"/>
      <point x="643.0" y="413.5"/>
      <point x="634.0" y="479.5"/>
      <point x="634.0" y="551.5" type="curve" smooth="yes"/>
      <point x="634.0" y="609.5"/>
      <point x="643.0" y="636.5"/>
      <point x="643.0" y="669.5" type="curve" smooth="yes"/>
      <point x="643.0" y="718.5"/>
      <point x="612.0" y="743.5"/>
      <point x="562.0" y="743.5" type="curve" smooth="yes"/>
      <point x="490.37735849056605" y="743.5"/>
      <point x="458.0" y="686.5"/>
      <point x="458.0" y="605.5" type="curve" smooth="yes"/>
      <point x="458.0" y="503.5"/>
      <point x="464.0" y="444.1"/>
      <point x="464.0" y="336.5" type="curve" smooth="yes"/>
      <point x="464.0" y="229.5"/>
      <point x="428.0" y="196.5"/>
      <point x="358.0" y="196.5" type="curve" smooth="yes"/>
      <point x="279.0" y="196.5"/>
      <point x="244.0" y="225.5"/>
      <point x="244.0" y="363.5" type="curve" smooth="yes"/>
      <point x="244.0" y="426.5"/>
      <point x="253.0" y="514.5"/>
      <point x="253.0" y="575.5" type="curve" smooth="yes"/>
      <point x="253.0" y="711.5"/>
      <point x="201.0" y="747.5"/>
      <point x="133.0" y="747.5" type="curve" smooth="yes"/>
      <point x="80.28571428571428" y="747.5"/>
      <point x="51.0" y="727.2142857142857"/>
      <point x="51.0" y="676.5" type="curve" smooth="yes"/>
      <point x="51.0" y="626.8125"/>
      <point x="65.0" y="614.8875"/>
      <point x="65.0" y="517.5" type="curve" smooth="yes"/>
      <point x="65.0" y="481.2551020408163"/>
      <point x="60.0" y="427.5"/>
      <point x="60.0" y="373.5" type="curve" smooth="yes"/>
      <point x="60.0" y="153.5"/>
      <point x="142.0" y="18.5"/>
    </contour>
  </outline>
</glyph>
<glyph name="V" format="2">
  <advance width="714"/>
  <unicode hex="0056"/>
  <anchor x="360.0" y="649.0" name="top"/>
  <anchor x="360.0" y="-51.0" name="bottom"/>
  <outline>
    <contour>
      <point x="367.0" y="-63.0" type="curve" smooth="yes"/>
      <point x="424.0" y="-63.0"/>
      <point x="444.0" y="-34.0"/>
      <point x="460.0" y="19.0" type="curve" smooth="yes"/>
      <point x="517.0" y="193.0"/>
      <point x="583.0" y="307.0"/>
      <point x="662.0" y="436.0" type="curve" smooth="yes"/>
      <point x="697.0" y="494.0"/>
      <point x="702.0" y="504.0"/>
      <point x="702.0" y="555.0" type="curve" smooth="yes"/>
      <point x="702.0" y="615.0"/>
      <point x="670.0" y="664.0"/>
      <point x="617.0" y="664.0" type="curve" smooth="yes"/>
      <point x="586.0" y="664.0"/>
      <point x="561.0" y="658.0"/>
      <point x="512.0" y="582.0" type="curve" smooth="yes"/>
      <point x="429.0" y="453.0"/>
      <point x="361.0" y="315.0"/>
      <point x="317.0" y="147.0" type="curve"/>
      <point x="363.0" y="206.0" type="line"/>
      <point x="307.0" y="286.0"/>
      <point x="276.0" y="512.0"/>
      <point x="184.0" y="618.0" type="curve" smooth="yes"/>
      <point x="154.0" y="652.0"/>
      <point x="128.0" y="661.0"/>
      <point x="97.0" y="661.0" type="curve" smooth="yes"/>
      <point x="38.0" y="661.0"/>
      <point x="12.0" y="620.0"/>
      <point x="12.0" y="578.0" type="curve" smooth="yes"/>
      <point x="12.0" y="535.0"/>
      <point x="37.0" y="503.0"/>
      <point x="58.0" y="473.0" type="curve" smooth="yes"/>
      <point x="132.0" y="366.0"/>
      <point x="115.0" y="264.0"/>
      <point x="239.0" y="38.0" type="curve" smooth="yes"/>
      <point x="279.0" y="-36.0"/>
      <point x="307.0" y="-63.0"/>
    </contour>
  </outline>
</glyph>
<glyph name="W" format="2">
  <advance width="1005"/>
  <unicode hex="0057"/>
  <anchor x="517" y="743.5" name="top"/>
  <anchor x="517" y="43.5" name="bottom"/>
  <outline>
    <contour>
      <point x="230.0" y="642.5" type="curve" smooth="yes"/>
      <point x="226.35925157787688" y="703.1791403687185"/>
      <point x="190.21897810218974" y="755.5"/>
      <point x="121.0" y="755.5" type="curve" smooth="yes"/>
      <point x="54.64406779661017" y="755.5"/>
      <point x="30.991842026311282" y="719.6223696053307"/>
      <point x="34.0" y="674.5" type="curve" smooth="yes"/>
      <point x="46.0" y="493.5"/>
      <point x="96.0" y="298.5"/>
      <point x="163.0" y="127.5" type="curve" smooth="yes"/>
      <point x="195.0" y="46.5"/>
      <point x="236.0" y="35.5"/>
      <point x="263.0" y="35.5" type="curve" smooth="yes"/>
      <point x="306.0" y="35.5"/>
      <point x="327.0" y="56.5"/>
      <point x="341.0" y="102.5" type="curve" smooth="yes"/>
      <point x="392.0" y="265.5"/>
      <point x="448.0" y="395.5"/>
      <point x="524.0" y="484.5" type="curve"/>
      <point x="466.0" y="503.5" type="line"/>
      <point x="530.0" y="418.5"/>
      <point x="563.0" y="209.5"/>
      <point x="648.0" y="102.5" type="curve" smooth="yes"/>
      <point x="687.0" y="53.5"/>
      <point x="719.0" y="31.5"/>
      <point x="772.0" y="31.5" type="curve" smooth="yes"/>
      <point x="797.0" y="31.5"/>
      <point x="823.0" y="42.5"/>
      <point x="841.0" y="85.5" type="curve" smooth="yes"/>
      <point x="902.0" y="236.5"/>
      <point x="920.0" y="458.5"/>
      <point x="960.0" y="602.5" type="curve" smooth="yes"/>
      <point x="981.0" y="677.5"/>
      <point x="965.0" y="755.5"/>
      <point x="875.0" y="755.5" type="curve" smooth="yes"/>
      <point x="831.0" y="755.5"/>
      <point x="803.0" y="735.5"/>
      <point x="784.0" y="688.5" type="curve" smooth="yes"/>
      <point x="752.0" y="613.5"/>
      <point x="743.0" y="410.5"/>
      <point x="701.0" y="285.5" type="curve"/>
      <point x="764.0" y="288.5" type="line"/>
      <point x="698.0" y="379.5"/>
      <point x="678.0" y="541.5"/>
      <point x="636.0" y="621.5" type="curve" smooth="yes"/>
      <point x="605.0" y="678.5"/>
      <point x="578.0" y="698.5"/>
      <point x="539.0" y="698.5" type="curve" smooth="yes"/>
      <point x="481.0" y="698.5"/>
      <point x="443.0" y="673.5"/>
      <point x="408.0" y="633.5" type="curve" smooth="yes"/>
      <point x="336.0" y="552.5"/>
      <point x="281.0" y="450.5"/>
      <point x="244.0" y="323.5" type="curve"/>
      <point x="281.0" y="337.5" type="line"/>
      <point x="248.92708496320924" y="448.81188159827377"/>
      <point x="238.44880024153514" y="518.5842631241514"/>
    </contour>
  </outline>
</glyph>
<glyph name="X" format="2">
  <advance width="672"/>
  <unicode hex="0058"/>
  <anchor x="340.0" y="758.5" name="top"/>
  <anchor x="340.0" y="58.5" name="bottom"/>
  <outline>
    <contour>
      <point x="221.0" y="693.5" type="curve" smooth="yes"/>
      <point x="325.0" y="450.5"/>
      <point x="508.0" y="373.5"/>
      <point x="598.0" y="238.5" type="curve" smooth="yes"/>
      <point x="674.0" y="125.5"/>
      <point x="632.0" y="46.5"/>
      <point x="553.0" y="46.5" type="curve" smooth="yes"/>
      <point x="512.0" y="46.5"/>
      <point x="477.0" y="66.5"/>
      <point x="444.0" y="124.5" type="curve" smooth="yes"/>
      <point x="371.0" y="251.5"/>
      <point x="109.0" y="439.5"/>
      <point x="44.0" y="604.5" type="curve" smooth="yes"/>
      <point x="4.0" y="708.5"/>
      <point x="31.0" y="769.5"/>
      <point x="117.0" y="770.5" type="curve" smooth="yes"/>
      <point x="166.0" y="771.5"/>
      <point x="199.0" y="745.5"/>
    </contour>
    <contour>
      <point x="614.0" y="594.5" type="curve" smooth="yes"/>
      <point x="487.0" y="462.5"/>
      <point x="293.0" y="263.5"/>
      <point x="206.0" y="110.5" type="curve" smooth="yes"/>
      <point x="183.13143820099026" y="69.73430288002612"/>
      <point x="165.0120481927711" y="53.5"/>
      <point x="125.0" y="53.5" type="curve" smooth="yes"/>
      <point x="59.480000000000004" y="53.5"/>
      <point x="6.129141511873115" y="145.24649157012038"/>
      <point x="73.0" y="241.5" type="curve" smooth="yes"/>
      <point x="240.0" y="481.5"/>
      <point x="390.0" y="645.5"/>
      <point x="469.0" y="721.5" type="curve" smooth="yes"/>
      <point x="500.0" y="753.5"/>
      <point x="521.0" y="765.5"/>
      <point x="555.0" y="765.5" type="curve" smooth="yes"/>
      <point x="626.0" y="764.5"/>
      <point x="685.0" y="668.5"/>
    </contour>
  </outline>
</glyph>
<glyph name="Y" format="2">
  <advance width="626"/>
  <unicode hex="0059"/>
  <anchor x="300" y="745.0" name="top"/>
  <anchor x="242" y="45.0" name="bottom"/>
  <outline>
    <contour>
      <point x="563.0" y="568.0" type="curve" smooth="yes"/>
      <point x="418.0" y="443.0"/>
      <point x="331.50636375974676" y="258.7512126832909"/>
      <point x="296.0" y="97.0" type="curve" smooth="yes"/>
      <point x="284.1690178246394" y="45.37389596206281"/>
      <point x="263.8918918918919" y="29.0"/>
      <point x="224.0" y="29.0" type="curve" smooth="yes"/>
      <point x="159.0684931506849" y="29.0"/>
      <point x="127.51437614501367" y="89.54331461595147"/>
      <point x="145.0" y="178.0" type="curve" smooth="yes"/>
      <point x="175.7973813112118" y="339.93461786217824"/>
      <point x="309.1911477722351" y="596.3655111267234"/>
      <point x="477.0" y="728.0" type="curve" smooth="yes"/>
      <point x="506.0" y="751.0"/>
      <point x="523.3142857142857" y="758.0"/>
      <point x="545.0" y="758.0" type="curve" smooth="yes"/>
      <point x="588.5230769230769" y="758.0"/>
      <point x="614.0" y="724.0"/>
      <point x="614.0" y="670.0" type="curve" smooth="yes"/>
      <point x="614.0" y="633.2087912087912"/>
      <point x="603.0" y="606.0"/>
    </contour>
    <contour>
      <point x="165.0" y="706.0" type="curve" smooth="yes"/>
      <point x="236.0" y="580.0"/>
      <point x="276.0" y="576.0"/>
      <point x="354.0" y="424.0" type="curve" smooth="yes"/>
      <point x="379.72780739337566" y="373.5734975089837"/>
      <point x="352.88461538461536" y="287.0"/>
      <point x="296.0" y="287.0" type="curve" smooth="yes"/>
      <point x="270.0" y="287.0"/>
      <point x="250.0" y="298.0"/>
      <point x="238.0" y="319.0" type="curve" smooth="yes"/>
      <point x="144.2130988136659" y="474.9716943642295"/>
      <point x="112.85761051090935" y="484.8175370228371"/>
      <point x="46.0" y="577.0" type="curve" smooth="yes"/>
      <point x="26.656378940961538" y="604.0810694826539"/>
      <point x="14.0" y="631.15"/>
      <point x="14.0" y="672.0" type="curve" smooth="yes"/>
      <point x="14.0" y="721.2209302325582"/>
      <point x="41.594202898550726" y="755.0"/>
      <point x="82.0" y="755.0" type="curve" smooth="yes"/>
      <point x="112.0875" y="755.0"/>
      <point x="140.83989388049207" y="748.521786770334"/>
    </contour>
  </outline>
</glyph>
<glyph name="Z" format="2">
  <advance width="650"/>
  <unicode hex="005A"/>
  <anchor x="337.0" y="772.0" name="top"/>
  <anchor x="337.0" y="72.0" name="bottom"/>
  <outline>
    <contour>
      <point x="92.0" y="752.0" type="curve" smooth="yes"/>
      <point x="178.0" y="771.0"/>
      <point x="261.0" y="782.0"/>
      <point x="342.0" y="782.0" type="curve" smooth="yes"/>
      <point x="552.0" y="782.0"/>
      <point x="606.0" y="704.0"/>
      <point x="606.0" y="601.0" type="curve" smooth="yes"/>
      <point x="606.0" y="511.0"/>
      <point x="556.0" y="451.0"/>
      <point x="399.0" y="361.0" type="curve" smooth="yes"/>
      <point x="237.0" y="268.0"/>
      <point x="234.0" y="256.0"/>
      <point x="213.0" y="208.0" type="curve"/>
      <point x="175.0" y="250.0" type="line"/>
      <point x="199.0" y="239.0"/>
      <point x="219.0" y="234.0"/>
      <point x="259.0" y="234.0" type="curve" smooth="yes"/>
      <point x="312.0" y="234.0"/>
      <point x="382.0" y="246.0"/>
      <point x="451.0" y="246.0" type="curve" smooth="yes"/>
      <point x="541.0" y="246.0"/>
      <point x="624.0" y="221.0"/>
      <point x="624.0" y="136.0" type="curve" smooth="yes"/>
      <point x="624.0" y="92.0"/>
      <point x="596.0" y="65.0"/>
      <point x="558.0" y="65.0" type="curve" smooth="yes"/>
      <point x="518.0" y="65.0"/>
      <point x="493.0" y="72.0"/>
      <point x="430.0" y="72.0" type="curve" smooth="yes"/>
      <point x="359.0" y="72.0"/>
      <point x="294.0" y="61.0"/>
      <point x="237.0" y="61.0" type="curve" smooth="yes"/>
      <point x="95.0" y="61.0"/>
      <point x="45.0" y="132.0"/>
      <point x="45.0" y="217.0" type="curve" smooth="yes"/>
      <point x="45.0" y="299.0"/>
      <point x="74.0" y="363.0"/>
      <point x="289.0" y="489.0" type="curve" smooth="yes"/>
      <point x="423.0" y="567.0"/>
      <point x="424.0" y="588.0"/>
      <point x="428.0" y="633.0" type="curve"/>
      <point x="460.0" y="591.0" type="line"/>
      <point x="444.0" y="603.0"/>
      <point x="440.0" y="609.0"/>
      <point x="389.0" y="609.0" type="curve" smooth="yes"/>
      <point x="280.0" y="609.0"/>
      <point x="204.0" y="583.0"/>
      <point x="143.0" y="583.0" type="curve" smooth="yes"/>
      <point x="86.0" y="583.0"/>
      <point x="37.0" y="616.0"/>
      <point x="37.0" y="673.0" type="curve" smooth="yes"/>
      <point x="37.0" y="715.0"/>
      <point x="54.0" y="743.0"/>
    </contour>
  </outline>
</glyph>
<glyph name="bracketleft" format="2">
  <advance width="553"/>
  <unicode hex="005B"/>
  <outline>
    <contour>
      <point x="432.0" y="724.0"/>
      <point x="422.0" y="726.0"/>
      <point x="409.0" y="726.0" type="curve" smooth="yes"/>
      <point x="347.0" y="726.0"/>
      <point x="240.0" y="700.0"/>
      <point x="185.0" y="700.0" type="curve"/>
      <point x="270.0" y="772.0" type="line"/>
      <point x="248.0" y="655.0"/>
      <point x="269.0" y="414.0"/>
      <point x="263.0" y="319.0" type="curve" smooth="yes"/>
      <point x="259.0" y="233.0"/>
      <point x="224.0" y="41.0"/>
      <point x="284.0" y="-52.0" type="curve"/>
      <point x="189.0" y="-25.0" type="line"/>
      <point x="254.0" y="-13.0"/>
      <point x="295.0" y="-8.0"/>
      <point x="355.0" y="-8.0" type="curve" smooth="yes"/>
      <point x="396.0" y="-8.0"/>
      <point x="431.0" y="-5.0"/>
      <point x="464.0" y="-5.0" type="curve" smooth="yes"/>
      <point x="505.0" y="-5.0"/>
      <point x="533.0" y="-32.0"/>
      <point x="533.0" y="-72.0" type="curve" smooth="yes"/>
      <point x="533.0" y="-137.0"/>
      <point x="493.0" y="-176.0"/>
      <point x="411.0" y="-176.0" type="curve" smooth="yes"/>
      <point x="364.0" y="-176.0"/>
      <point x="328.0" y="-177.0"/>
      <point x="293.0" y="-181.0" type="curve" smooth="yes"/>
      <point x="259.0" y="-184.0"/>
      <point x="235.0" y="-189.0"/>
      <point x="211.0" y="-189.0" type="curve" smooth="yes"/>
      <point x="182.0" y="-189.0"/>
      <point x="151.0" y="-173.0"/>
      <point x="136.0" y="-148.0" type="curve" smooth="yes"/>
      <point x="60.0" y="-29.0"/>
      <point x="81.0" y="215.0"/>
      <point x="87.0" y="329.0" type="curve" smooth="yes"/>
      <point x="93.0" y="430.0"/>
      <point x="74.0" y="681.0"/>
      <point x="96.0" y="804.0" type="curve" smooth="yes"/>
      <point x="104.0" y="846.0"/>
      <point x="141.0" y="876.0"/>
      <point x="184.0" y="876.0" type="curve" smooth="yes"/>
      <point x="282.0" y="876.0"/>
      <point x="375.0" y="900.0"/>
      <point x="454.0" y="900.0" type="curve" smooth="yes"/>
      <point x="506.0" y="900.0"/>
      <point x="531.0" y="869.0"/>
      <point x="531.0" y="831.0" type="curve" smooth="yes"/>
      <point x="531.0" y="787.0"/>
      <point x="505.0" y="724.0"/>
      <point x="442.0" y="724.0" type="curve" smooth="yes"/>
    </contour>
  </outline>
</glyph>
<glyph name="backslash" format="2">
  <advance width="455"/>
  <unicode hex="005C"/>
  <outline>
    <contour>
      <point x="249.0" y="607.0" type="curve" smooth="yes"/>
      <point x="263.0" y="333.0"/>
      <point x="317.0" y="75.0"/>
      <point x="449.0" y="-214.0" type="curve" smooth="yes"/>
      <point x="485.0" y="-293.0"/>
      <point x="433.0" y="-348.0"/>
      <point x="370.0" y="-348.0" type="curve" smooth="yes"/>
      <point x="332.0" y="-348.0"/>
      <point x="298.0" y="-322.0"/>
      <point x="280.0" y="-280.0" type="curve" smooth="yes"/>
      <point x="155.0" y="11.0"/>
      <point x="69.0" y="384.0"/>
      <point x="60.0" y="594.0" type="curve" smooth="yes"/>
      <point x="56.0" y="683.0"/>
      <point x="83.0" y="729.0"/>
      <point x="146.0" y="729.0" type="curve" smooth="yes"/>
      <point x="203.0" y="729.0"/>
      <point x="245.0" y="686.0"/>
    </contour>
  </outline>
</glyph>
<glyph name="bracketright" format="2">
  <advance width="553"/>
  <unicode hex="005D"/>
  <outline>
    <contour>
      <point x="97.0" y="-154.0" type="curve" smooth="yes"/>
      <point x="157.0" y="-153.0"/>
      <point x="291.0" y="-140.0"/>
      <point x="347.0" y="-122.0" type="curve"/>
      <point x="287.0" y="-195.0" type="line"/>
      <point x="329.0" y="38.0"/>
      <point x="246.0" y="345.0"/>
      <point x="271.0" y="669.0" type="curve"/>
      <point x="360.0" y="549.0" type="line"/>
      <point x="298.0" y="576.0"/>
      <point x="243.0" y="584.0"/>
      <point x="126.0" y="584.0" type="curve" smooth="yes"/>
      <point x="67.0" y="584.0"/>
      <point x="19.0" y="639.0"/>
      <point x="20.0" y="699.0" type="curve" smooth="yes"/>
      <point x="21.0" y="739.0"/>
      <point x="50.0" y="761.0"/>
      <point x="100.0" y="760.0" type="curve" smooth="yes"/>
      <point x="156.0" y="759.0"/>
      <point x="229.0" y="746.0"/>
      <point x="292.0" y="746.0" type="curve" smooth="yes"/>
      <point x="312.0" y="746.0"/>
      <point x="332.0" y="751.0"/>
      <point x="350.0" y="751.0" type="curve" smooth="yes"/>
      <point x="407.0" y="751.0"/>
      <point x="451.0" y="712.0"/>
      <point x="447.0" y="655.0" type="curve" smooth="yes"/>
      <point x="420.0" y="325.0"/>
      <point x="503.0" y="11.0"/>
      <point x="461.0" y="-227.0" type="curve" smooth="yes"/>
      <point x="455.0" y="-259.0"/>
      <point x="432.0" y="-285.0"/>
      <point x="401.0" y="-295.0" type="curve" smooth="yes"/>
      <point x="344.0" y="-313.0"/>
      <point x="209.0" y="-329.0"/>
      <point x="149.0" y="-330.0" type="curve" smooth="yes"/>
      <point x="81.0" y="-331.0"/>
      <point x="21.0" y="-287.0"/>
      <point x="20.0" y="-233.0" type="curve" smooth="yes"/>
      <point x="19.0" y="-191.0"/>
      <point x="55.0" y="-155.0"/>
    </contour>
  </outline>
</glyph>
<glyph name="asciicircum" format="2">
  <advance width="610"/>
  <unicode hex="005E"/>
  <outline>
    <contour>
      <point x="263.0" y="739.0" type="curve"/>
      <point x="336.0" y="737.0" type="line"/>
      <point x="188.0" y="578.0"/>
      <point x="173.0" y="566.0"/>
      <point x="134.0" y="566.0" type="curve" smooth="yes"/>
      <point x="91.0" y="566.0"/>
      <point x="47.0" y="609.0"/>
      <point x="47.0" y="645.0" type="curve" smooth="yes"/>
      <point x="47.0" y="678.0"/>
      <point x="59.0" y="700.0"/>
      <point x="187.0" y="807.0" type="curve" smooth="yes"/>
      <point x="246.0" y="857.0"/>
      <point x="263.0" y="865.0"/>
      <point x="320.0" y="865.0" type="curve" smooth="yes"/>
      <point x="353.0" y="865.0"/>
      <point x="376.0" y="857.0"/>
      <point x="404.0" y="817.0" type="curve" smooth="yes"/>
      <point x="501.0" y="681.0"/>
      <point x="564.0" y="672.0"/>
      <point x="564.0" y="628.0" type="curve" smooth="yes"/>
      <point x="564.0" y="596.0"/>
      <point x="530.0" y="571.0"/>
      <point x="479.0" y="571.0" type="curve" smooth="yes"/>
      <point x="415.0" y="571.0"/>
      <point x="361.0" y="612.0"/>
    </contour>
  </outline>
</glyph>
<glyph name="a" format="2">
  <advance width="704"/>
  <unicode hex="0061"/>
  <anchor x="338" y="467.0" name="top"/>
  <anchor x="347" y="-48.0" name="bottom"/>
  <anchor x="622" y="-48.0" name="ogonek"/>
  <outline>
    <contour>
      <point x="362.0" y="344.0" type="curve" smooth="yes"/>
      <point x="339.0" y="190.0"/>
      <point x="276.0" y="110.0"/>
      <point x="214.0" y="110.0" type="curve" smooth="yes"/>
      <point x="182.0" y="110.0"/>
      <point x="160.0" y="116.0"/>
      <point x="127.0" y="139.0" type="curve"/>
      <point x="201.0" y="25.0" type="line"/>
      <point x="194.0" y="47.0"/>
      <point x="192.0" y="60.0"/>
      <point x="192.0" y="79.0" type="curve" smooth="yes"/>
      <point x="192.0" y="194.0"/>
      <point x="281.0" y="310.0"/>
      <point x="405.0" y="333.0" type="curve" smooth="yes"/>
      <point x="422.0" y="337.0"/>
      <point x="437.0" y="349.0"/>
      <point x="437.0" y="372.0" type="curve" smooth="yes"/>
      <point x="437.0" y="440.0"/>
      <point x="393.0" y="478.0"/>
      <point x="337.0" y="478.0" type="curve" smooth="yes"/>
      <point x="186.0" y="478.0"/>
      <point x="25.0" y="270.0"/>
      <point x="25.0" y="95.0" type="curve" smooth="yes"/>
      <point x="25.0" y="3.0"/>
      <point x="99.0" y="-58.0"/>
      <point x="207.0" y="-58.0" type="curve" smooth="yes"/>
      <point x="315.0" y="-58.0"/>
      <point x="423.0" y="4.0"/>
      <point x="483.0" y="207.0" type="curve"/>
      <point x="423.0" y="201.0" type="line"/>
      <point x="462.0" y="93.0"/>
      <point x="493.0" y="39.0"/>
      <point x="551.0" y="-32.0" type="curve" smooth="yes"/>
      <point x="561.0" y="-44.0"/>
      <point x="577.0" y="-55.0"/>
      <point x="602.0" y="-55.0" type="curve" smooth="yes"/>
      <point x="678.0" y="-55.0"/>
      <point x="716.0" y="57.0"/>
      <point x="677.0" y="99.0" type="curve" smooth="yes"/>
      <point x="606.0" y="175.0"/>
      <point x="590.0" y="237.0"/>
      <point x="550.0" y="324.0" type="curve" smooth="yes"/>
      <point x="533.0" y="365.0"/>
      <point x="489.0" y="398.0"/>
      <point x="432.0" y="398.0" type="curve" smooth="yes"/>
      <point x="399.0" y="398.0"/>
      <point x="367.0" y="378.0"/>
    </contour>
  </outline>
</glyph>
<glyph name="b" format="2">
  <advance width="635"/>
  <unicode hex="0062"/>
  <anchor x="135" y="783.5" name="top"/>
  <anchor x="312" y="-16.5" name="bottom"/>
  <outline>
    <contour>
      <point x="222.0" y="676.5" type="curve" smooth="yes"/>
      <point x="222.0" y="630.5"/>
      <point x="205.0" y="548.5"/>
      <point x="205.0" y="463.5" type="curve" smooth="yes"/>
      <point x="205.0" y="411.5"/>
      <point x="202.0" y="379.5"/>
      <point x="209.0" y="329.5" type="curve" smooth="yes"/>
      <point x="213.0" y="301.5"/>
      <point x="152.0" y="334.5"/>
      <point x="168.0" y="370.5" type="curve" smooth="yes"/>
      <point x="196.0" y="432.5"/>
      <point x="283.0" y="510.5"/>
      <point x="386.0" y="510.5" type="curve" smooth="yes"/>
      <point x="501.0" y="510.5"/>
      <point x="597.0" y="444.5"/>
      <point x="597.0" y="288.5" type="curve" smooth="yes"/>
      <point x="597.0" y="104.5"/>
      <point x="410.0" y="-26.5"/>
      <point x="220.0" y="-26.5" type="curve" smooth="yes"/>
      <point x="135.0" y="-26.5"/>
      <point x="34.0" y="3.5"/>
      <point x="34.0" y="88.5" type="curve" smooth="yes"/>
      <point x="34.0" y="133.5"/>
      <point x="68.0" y="154.5"/>
      <point x="118.0" y="154.5" type="curve" smooth="yes"/>
      <point x="143.0" y="154.5"/>
      <point x="176.0" y="146.5"/>
      <point x="208.0" y="146.5" type="curve" smooth="yes"/>
      <point x="287.0" y="146.5"/>
      <point x="420.0" y="189.5"/>
      <point x="420.0" y="297.5" type="curve" smooth="yes"/>
      <point x="420.0" y="322.5"/>
      <point x="411.0" y="336.5"/>
      <point x="383.0" y="336.5" type="curve" smooth="yes"/>
      <point x="290.0" y="336.5"/>
      <point x="227.0" y="256.5"/>
      <point x="203.0" y="141.5" type="curve" smooth="yes"/>
      <point x="197.0" y="112.5"/>
      <point x="180.0" y="93.5"/>
      <point x="151.0" y="93.5" type="curve" smooth="yes"/>
      <point x="113.0" y="93.5"/>
      <point x="76.0" y="122.5"/>
      <point x="67.0" y="173.5" type="curve" smooth="yes"/>
      <point x="49.0" y="275.5"/>
      <point x="38.0" y="385.5"/>
      <point x="38.0" y="447.5" type="curve" smooth="yes"/>
      <point x="38.0" y="591.5"/>
      <point x="59.0" y="649.5"/>
      <point x="52.0" y="723.5" type="curve" smooth="yes"/>
      <point x="48.0" y="763.5"/>
      <point x="62.0" y="794.5"/>
      <point x="113.0" y="794.5" type="curve" smooth="yes"/>
      <point x="181.0" y="794.5"/>
      <point x="222.0" y="757.5"/>
    </contour>
  </outline>
</glyph>
<glyph name="c" format="2">
  <advance width="539"/>
  <unicode hex="0063"/>
  <anchor x="295" y="579.5" name="top"/>
  <anchor x="295" y="64.5" name="bottom"/>
  <outline>
    <contour>
      <point x="494.0" y="212.5" type="curve" smooth="yes"/>
      <point x="494.0" y="270.5"/>
      <point x="477.0" y="292.5"/>
      <point x="441.0" y="292.5" type="curve" smooth="yes"/>
      <point x="387.0" y="292.5"/>
      <point x="396.0" y="230.5"/>
      <point x="287.0" y="230.5" type="curve" smooth="yes"/>
      <point x="209.0" y="230.5"/>
      <point x="198.0" y="253.5"/>
      <point x="198.0" y="280.5" type="curve" smooth="yes"/>
      <point x="198.0" y="348.5"/>
      <point x="267.0" y="417.5"/>
      <point x="361.0" y="417.5" type="curve" smooth="yes"/>
      <point x="391.0" y="417.5"/>
      <point x="392.0" y="388.5"/>
      <point x="413.0" y="388.5" type="curve" smooth="yes"/>
      <point x="459.0" y="388.5"/>
      <point x="483.0" y="432.5"/>
      <point x="483.0" y="488.5" type="curve" smooth="yes"/>
      <point x="483.0" y="570.5"/>
      <point x="427.0" y="589.5"/>
      <point x="371.0" y="589.5" type="curve" smooth="yes"/>
      <point x="185.0" y="589.5"/>
      <point x="26.0" y="454.5"/>
      <point x="26.0" y="284.5" type="curve" smooth="yes"/>
      <point x="26.0" y="150.5"/>
      <point x="119.0" y="55.5"/>
      <point x="296.0" y="55.5" type="curve" smooth="yes"/>
      <point x="411.0" y="55.5"/>
      <point x="494.0" y="113.5"/>
    </contour>
  </outline>
</glyph>
<glyph name="d" format="2">
  <advance width="708"/>
  <unicode hex="0064"/>
  <anchor x="528" y="755.0" name="top"/>
  <anchor x="309" y="-45.0" name="bottom"/>
  <outline>
    <contour>
      <point x="293.0" y="-54.0" type="curve" smooth="yes"/>
      <point x="369.0" y="-54.0"/>
      <point x="481.0" y="-3.0"/>
      <point x="529.0" y="147.0" type="curve"/>
      <point x="432.0" y="118.0" type="line"/>
      <point x="432.0" y="22.0"/>
      <point x="493.0" y="-65.0"/>
      <point x="577.0" y="-65.0" type="curve" smooth="yes"/>
      <point x="634.0" y="-65.0"/>
      <point x="672.0" y="-17.0"/>
      <point x="672.0" y="26.0" type="curve" smooth="yes"/>
      <point x="672.0" y="65.0"/>
      <point x="597.0" y="48.0"/>
      <point x="597.0" y="249.0" type="curve" smooth="yes"/>
      <point x="597.0" y="374.0"/>
      <point x="628.0" y="451.0"/>
      <point x="638.0" y="598.0" type="curve" smooth="yes"/>
      <point x="644.0" y="707.0"/>
      <point x="599.0" y="765.0"/>
      <point x="512.0" y="765.0" type="curve" smooth="yes"/>
      <point x="481.0" y="765.0"/>
      <point x="458.0" y="749.0"/>
      <point x="458.0" y="696.0" type="curve" smooth="yes"/>
      <point x="458.0" y="326.0"/>
      <point x="385.0" y="121.0"/>
      <point x="288.0" y="121.0" type="curve" smooth="yes"/>
      <point x="257.0" y="121.0"/>
      <point x="214.0" y="184.0"/>
      <point x="214.0" y="234.0" type="curve" smooth="yes"/>
      <point x="214.0" y="281.0"/>
      <point x="259.0" y="307.0"/>
      <point x="327.0" y="307.0" type="curve" smooth="yes"/>
      <point x="388.0" y="307.0"/>
      <point x="399.0" y="288.0"/>
      <point x="426.0" y="288.0" type="curve" smooth="yes"/>
      <point x="446.0" y="288.0"/>
      <point x="462.0" y="311.0"/>
      <point x="462.0" y="344.0" type="curve" smooth="yes"/>
      <point x="462.0" y="435.0"/>
      <point x="393.0" y="482.0"/>
      <point x="282.0" y="482.0" type="curve" smooth="yes"/>
      <point x="131.0" y="484.0"/>
      <point x="30.0" y="384.0"/>
      <point x="30.0" y="234.0" type="curve" smooth="yes"/>
      <point x="30.0" y="79.0"/>
      <point x="138.0" y="-54.0"/>
    </contour>
  </outline>
</glyph>
<glyph name="e" format="2">
  <advance width="611"/>
  <unicode hex="0065"/>
  <anchor x="309" y="578.0" name="top"/>
  <anchor x="309" y="63.0" name="bottom"/>
  <anchor x="505" y="104.0" name="ogonek"/>
  <outline>
    <contour>
      <point x="276.0" y="249.0" type="curve" smooth="yes"/>
      <point x="416.0" y="249.0"/>
      <point x="535.0" y="297.0"/>
      <point x="535.0" y="412.0" type="curve" smooth="yes"/>
      <point x="535.0" y="527.0"/>
      <point x="452.0" y="588.0"/>
      <point x="332.0" y="588.0" type="curve" smooth="yes"/>
      <point x="150.0" y="588.0"/>
      <point x="34.0" y="420.0"/>
      <point x="34.0" y="273.0" type="curve" smooth="yes"/>
      <point x="34.0" y="145.0"/>
      <point x="114.0" y="53.0"/>
      <point x="298.0" y="53.0" type="curve" smooth="yes"/>
      <point x="472.0" y="53.0"/>
      <point x="582.0" y="132.0"/>
      <point x="582.0" y="208.0" type="curve" smooth="yes"/>
      <point x="582.0" y="244.0"/>
      <point x="568.0" y="262.0"/>
      <point x="539.0" y="262.0" type="curve" smooth="yes"/>
      <point x="484.0" y="262.0"/>
      <point x="441.0" y="209.0"/>
      <point x="281.0" y="209.0" type="curve" smooth="yes"/>
      <point x="222.0" y="209.0"/>
      <point x="203.0" y="221.0"/>
      <point x="203.0" y="250.0" type="curve" smooth="yes"/>
      <point x="203.0" y="334.0"/>
      <point x="267.0" y="418.0"/>
      <point x="356.0" y="418.0" type="curve" smooth="yes"/>
      <point x="370.0" y="418.0"/>
      <point x="376.0" y="412.0"/>
      <point x="376.0" y="401.0" type="curve" smooth="yes"/>
      <point x="376.0" y="370.0"/>
      <point x="305.0" y="344.0"/>
      <point x="257.0" y="344.0" type="curve" smooth="yes"/>
      <point x="225.0" y="344.0"/>
      <point x="207.0" y="349.0"/>
      <point x="193.0" y="349.0" type="curve" smooth="yes"/>
      <point x="172.0" y="349.0"/>
      <point x="163.0" y="339.0"/>
      <point x="163.0" y="319.0" type="curve" smooth="yes"/>
      <point x="163.0" y="282.0"/>
      <point x="206.0" y="249.0"/>
    </contour>
  </outline>
</glyph>
<glyph name="f" format="2">
  <advance width="417"/>
  <unicode hex="0066"/>
  <anchor x="289" y="746.0" name="top"/>
  <anchor x="172" y="-54.0" name="bottom"/>
  <outline>
    <contour>
      <point x="346.0" y="312.0" type="curve" smooth="yes"/>
      <point x="378.0" y="315.0"/>
      <point x="393.0" y="341.0"/>
      <point x="393.0" y="370.0" type="curve" smooth="yes"/>
      <point x="393.0" y="430.0"/>
      <point x="338.0" y="462.0"/>
      <point x="297.0" y="462.0" type="curve" smooth="yes"/>
      <point x="261.0" y="462.0"/>
      <point x="216.0" y="454.0"/>
      <point x="160.0" y="434.0" type="curve" smooth="yes"/>
      <point x="113.0" y="417.0"/>
      <point x="86.0" y="374.0"/>
      <point x="86.0" y="323.0" type="curve" smooth="yes"/>
      <point x="86.0" y="286.0"/>
      <point x="124.0" y="260.0"/>
      <point x="167.0" y="260.0" type="curve" smooth="yes"/>
      <point x="197.0" y="260.0"/>
      <point x="224.0" y="301.0"/>
    </contour>
    <contour>
      <point x="180.0" y="-64.0" type="curve" smooth="yes"/>
      <point x="228.0" y="-64.0"/>
      <point x="251.0" y="-40.0"/>
      <point x="251.0" y="50.0" type="curve" smooth="yes"/>
      <point x="251.0" y="204.76363636360003"/>
      <point x="221.0" y="291.6484848485"/>
      <point x="221.0" y="386.0" type="curve" smooth="yes"/>
      <point x="221.0" y="526.0"/>
      <point x="239.0" y="558.0"/>
      <point x="360.0" y="602.0" type="curve" smooth="yes"/>
      <point x="390.0" y="613.0"/>
      <point x="407.0" y="634.0"/>
      <point x="407.0" y="669.0" type="curve" smooth="yes"/>
      <point x="407.0" y="732.0"/>
      <point x="361.0" y="756.0"/>
      <point x="312.0" y="756.0" type="curve" smooth="yes"/>
      <point x="180.0" y="756.0"/>
      <point x="52.0" y="622.0"/>
      <point x="52.0" y="420.0" type="curve" smooth="yes"/>
      <point x="52.0" y="290.5573770492"/>
      <point x="77.0" y="239.3196721311"/>
      <point x="77.0" y="91.0" type="curve" smooth="yes"/>
      <point x="77.0" y="-9.0"/>
      <point x="128.0" y="-64.0"/>
    </contour>
  </outline>
</glyph>
<glyph name="g" format="2">
  <advance width="660"/>
  <unicode hex="0067"/>
  <anchor x="307" y="479.0" name="top"/>
  <anchor x="368" y="-286.0" name="bottom"/>
  <outline>
    <contour>
      <point x="471.0" y="431.0" type="curve" smooth="yes"/>
      <point x="542.0" y="431.0"/>
      <point x="574.0" y="389.0"/>
      <point x="577.0" y="349.0" type="curve" smooth="yes"/>
      <point x="590.0" y="193.0"/>
      <point x="635.0" y="126.0"/>
      <point x="635.0" y="-59.0" type="curve" smooth="yes"/>
      <point x="635.0" y="-206.0"/>
      <point x="548.0" y="-296.0"/>
      <point x="395.0" y="-296.0" type="curve" smooth="yes"/>
      <point x="147.0" y="-296.0"/>
      <point x="108.0" y="-211.0"/>
      <point x="108.0" y="-151.0" type="curve" smooth="yes"/>
      <point x="108.0" y="-93.0625"/>
      <point x="142.0" y="-48.0"/>
      <point x="197.0" y="-48.0" type="curve" smooth="yes"/>
      <point x="234.0" y="-48.0"/>
      <point x="248.0" y="-63.0"/>
      <point x="248.0" y="-87.0" type="curve" smooth="yes"/>
      <point x="248.0" y="-109.70270270270271"/>
      <point x="274.0" y="-129.0"/>
      <point x="385.0" y="-129.0" type="curve" smooth="yes"/>
      <point x="443.0" y="-129.0"/>
      <point x="462.0" y="-102.26388888888889"/>
      <point x="462.0" y="-52.0" type="curve" smooth="yes"/>
      <point x="462.0" y="35.0"/>
      <point x="437.0" y="77.0"/>
      <point x="425.0" y="176.0" type="curve"/>
      <point x="489.0" y="169.0" type="line"/>
      <point x="450.0" y="40.0"/>
      <point x="326.0" y="5.0"/>
      <point x="242.0" y="5.0" type="curve" smooth="yes"/>
      <point x="108.0" y="5.0"/>
      <point x="25.0" y="80.0"/>
      <point x="25.0" y="206.0" type="curve" smooth="yes"/>
      <point x="25.0" y="369.0"/>
      <point x="159.0" y="494.0"/>
      <point x="308.0" y="494.0" type="curve" smooth="yes"/>
      <point x="419.0" y="494.0"/>
      <point x="457.0" y="424.0"/>
      <point x="457.0" y="359.0" type="curve" smooth="yes"/>
      <point x="457.0" y="320.0"/>
      <point x="437.0" y="296.0"/>
      <point x="420.0" y="296.0" type="curve" smooth="yes"/>
      <point x="385.0" y="296.0"/>
      <point x="378.0" y="330.0"/>
      <point x="333.0" y="330.0" type="curve" smooth="yes"/>
      <point x="273.0" y="330.0"/>
      <point x="198.0" y="271.0"/>
      <point x="198.0" y="220.0" type="curve" smooth="yes"/>
      <point x="198.0" y="194.0"/>
      <point x="212.0" y="180.0"/>
      <point x="243.0" y="180.0" type="curve" smooth="yes"/>
      <point x="348.0" y="180.0"/>
      <point x="425.0" y="245.0"/>
      <point x="425.0" y="368.0" type="curve" smooth="yes"/>
      <point x="425.0" y="412.0"/>
      <point x="436.0" y="431.0"/>
    </contour>
  </outline>
</glyph>
<glyph name="h" format="2">
  <advance width="693"/>
  <unicode hex="0068"/>
  <anchor x="143" y="725.0" name="top"/>
  <anchor x="350" y="-75.0" name="bottom"/>
  <outline>
    <contour>
      <point x="593.0" y="-87.0" type="curve" smooth="yes"/>
      <point x="638.0" y="-87.0"/>
      <point x="672.0" y="-61.0"/>
      <point x="672.0" y="-27.0" type="curve" smooth="yes"/>
      <point x="672.0" y="-11.0"/>
      <point x="667.0" y="4.0"/>
      <point x="660.0" y="18.0" type="curve" smooth="yes"/>
      <point x="642.0" y="50.0"/>
      <point x="607.0" y="82.0"/>
      <point x="596.0" y="193.0" type="curve" smooth="yes"/>
      <point x="581.0" y="359.0"/>
      <point x="549.0" y="457.0"/>
      <point x="429.0" y="457.0" type="curve" smooth="yes"/>
      <point x="346.0" y="457.0"/>
      <point x="265.0" y="380.0"/>
      <point x="194.0" y="222.0" type="curve"/>
      <point x="230.0" y="149.0" type="line"/>
      <point x="230.0" y="372.0"/>
      <point x="252.0" y="471.0"/>
      <point x="252.0" y="552.0" type="curve" smooth="yes"/>
      <point x="252.0" y="695.0"/>
      <point x="188.0" y="735.0"/>
      <point x="136.0" y="735.0" type="curve" smooth="yes"/>
      <point x="82.0" y="735.0"/>
      <point x="63.0" y="706.0"/>
      <point x="63.0" y="676.0" type="curve" smooth="yes"/>
      <point x="63.0" y="635.0"/>
      <point x="78.0" y="607.0"/>
      <point x="78.0" y="530.0" type="curve" smooth="yes"/>
      <point x="78.0" y="414.0"/>
      <point x="55.0" y="271.0"/>
      <point x="55.0" y="60.0" type="curve" smooth="yes"/>
      <point x="55.0" y="-15.0"/>
      <point x="103.0" y="-85.0"/>
      <point x="163.0" y="-85.0" type="curve" smooth="yes"/>
      <point x="192.0" y="-85.0"/>
      <point x="213.0" y="-74.0"/>
      <point x="232.0" y="-33.0" type="curve" smooth="yes"/>
      <point x="308.0" y="135.0"/>
      <point x="379.0" y="233.0"/>
      <point x="416.0" y="246.0" type="curve"/>
      <point x="423.0" y="214.0"/>
      <point x="428.0" y="176.0"/>
      <point x="434.0" y="74.0" type="curve" smooth="yes"/>
      <point x="440.0" y="-14.0"/>
      <point x="495.0" y="-87.0"/>
    </contour>
  </outline>
</glyph>
<glyph name="k" format="2">
  <advance width="678"/>
  <unicode hex="006B"/>
  <anchor x="162" y="750.5" name="top"/>
  <anchor x="332" y="-49.5" name="bottom"/>
  <outline>
    <contour>
      <point x="555.0" y="-56.5" type="curve" smooth="yes"/>
      <point x="602.0" y="-56.5"/>
      <point x="627.0" y="-28.5"/>
      <point x="627.0" y="15.5" type="curve" smooth="yes"/>
      <point x="627.0" y="64.5"/>
      <point x="601.0" y="116.5"/>
      <point x="533.0" y="130.5" type="curve" smooth="yes"/>
      <point x="405.0" y="161.5"/>
      <point x="363.0" y="183.5"/>
      <point x="363.0" y="199.5" type="curve" smooth="yes"/>
      <point x="363.0" y="220.5"/>
      <point x="433.0" y="272.5"/>
      <point x="545.0" y="305.5" type="curve" smooth="yes"/>
      <point x="612.0" y="325.5"/>
      <point x="629.0" y="346.5"/>
      <point x="629.0" y="382.5" type="curve" smooth="yes"/>
      <point x="629.0" y="443.5"/>
      <point x="591.0" y="477.5"/>
      <point x="533.0" y="477.5" type="curve" smooth="yes"/>
      <point x="422.0" y="477.5"/>
      <point x="172.0" y="326.5"/>
      <point x="172.0" y="179.5" type="curve" smooth="yes"/>
      <point x="172.0" y="88.5"/>
      <point x="414.0" y="-56.5"/>
    </contour>
    <contour>
      <point x="139.0" y="760.5" type="curve" smooth="yes"/>
      <point x="94.0" y="760.5"/>
      <point x="73.0" y="736.5"/>
      <point x="73.0" y="691.5" type="curve" smooth="yes"/>
      <point x="73.0" y="655.5"/>
      <point x="82.0" y="624.5"/>
      <point x="82.0" y="544.5" type="curve" smooth="yes"/>
      <point x="82.0" y="355.5"/>
      <point x="55.0" y="173.5"/>
      <point x="55.0" y="87.5" type="curve" smooth="yes"/>
      <point x="55.0" y="-30.5"/>
      <point x="110.0" y="-59.5"/>
      <point x="164.0" y="-59.5" type="curve" smooth="yes"/>
      <point x="206.0" y="-59.5"/>
      <point x="229.0" y="-40.5"/>
      <point x="229.0" y="3.5" type="curve" smooth="yes"/>
      <point x="229.0" y="52.5"/>
      <point x="224.0" y="95.5"/>
      <point x="224.0" y="159.5" type="curve" smooth="yes"/>
      <point x="224.0" y="275.5"/>
      <point x="261.0" y="402.5"/>
      <point x="261.0" y="546.5" type="curve" smooth="yes"/>
      <point x="261.0" y="702.5"/>
      <point x="221.0" y="760.5"/>
    </contour>
  </outline>
</glyph>
<glyph name="l" format="2">
  <advance width="373"/>
  <unicode hex="006C"/>
  <anchor x="164" y="828.5" name="top"/>
  <anchor x="233" y="28.5" name="bottom"/>
  <outline>
    <contour>
      <point x="251.0" y="703.5" type="curve" smooth="yes"/>
      <point x="251.0" y="620.5"/>
      <point x="229.0" y="524.5"/>
      <point x="229.0" y="375.5" type="curve" smooth="yes"/>
      <point x="229.0" y="197.5327868852459"/>
      <point x="249.45454545454547" y="191.5"/>
      <point x="274.0" y="191.5" type="curve" smooth="yes"/>
      <point x="293.55555555555554" y="191.5"/>
      <point x="304.8" y="196.5"/>
      <point x="318.0" y="196.5" type="curve" smooth="yes"/>
      <point x="352.0" y="196.5"/>
      <point x="363.0" y="166.5"/>
      <point x="363.0" y="125.5" type="curve" smooth="yes"/>
      <point x="363.0" y="58.36486486486487"/>
      <point x="308.4074074074074" y="17.5"/>
      <point x="231.0" y="17.5" type="curve" smooth="yes"/>
      <point x="166.0" y="17.5"/>
      <point x="52.0" y="54.5"/>
      <point x="52.0" y="395.5" type="curve" smooth="yes"/>
      <point x="52.0" y="541.5"/>
      <point x="62.0" y="659.5"/>
      <point x="83.0" y="774.5" type="curve" smooth="yes"/>
      <point x="91.0" y="819.5"/>
      <point x="114.0" y="838.5"/>
      <point x="157.0" y="838.5" type="curve" smooth="yes"/>
      <point x="217.0" y="838.5"/>
      <point x="251.0" y="798.5"/>
    </contour>
  </outline>
</glyph>
<glyph name="m" format="2">
  <advance width="962"/>
  <unicode hex="006D"/>
  <anchor x="508" y="564.5" name="top"/>
  <anchor x="482" y="49.5" name="bottom"/>
  <outline>
    <contour>
      <point x="218.0" y="450.5" type="curve" smooth="yes"/>
      <point x="218.0" y="340.5"/>
      <point x="157.24813778035093" y="367.21782715030093"/>
      <point x="185.0" y="447.5" type="curve" smooth="yes"/>
      <point x="208.9688877924471" y="515.4118487452669"/>
      <point x="268.01176470588234" y="575.5"/>
      <point x="353.0" y="575.5" type="curve" smooth="yes"/>
      <point x="435.1788617886179" y="575.5"/>
      <point x="464.8714757612496" y="531.9834959457753"/>
      <point x="486.0" y="452.5" type="curve" smooth="yes"/>
      <point x="500.0" y="398.5"/>
      <point x="505.0" y="349.5"/>
      <point x="506.0" y="318.5" type="curve" smooth="yes"/>
      <point x="509.0" y="241.5"/>
      <point x="448.0" y="243.5"/>
      <point x="468.0" y="329.5" type="curve" smooth="yes"/>
      <point x="505.9065288104405" y="492.0990577921525"/>
      <point x="594.8878923766815" y="575.5"/>
      <point x="684.0" y="575.5" type="curve" smooth="yes"/>
      <point x="810.0" y="575.5"/>
      <point x="864.0" y="489.5"/>
      <point x="879.0" y="324.5" type="curve" smooth="yes"/>
      <point x="894.0" y="163.5"/>
      <point x="935.0" y="153.8119266055046"/>
      <point x="935.0" y="104.5" type="curve" smooth="yes"/>
      <point x="935.0" y="73.02459016393442"/>
      <point x="910.4492753623189" y="40.5"/>
      <point x="858.0" y="40.5" type="curve" smooth="yes"/>
      <point x="777.5033112582781" y="40.5"/>
      <point x="731.9707990106201" y="74.72158397823571"/>
      <point x="715.0" y="203.5" type="curve" smooth="yes"/>
      <point x="697.0" y="341.5"/>
      <point x="688.0" y="370.5"/>
      <point x="667.0" y="415.5" type="curve" smooth="yes"/>
      <point x="642.0426870586913" y="468.66992757061405"/>
      <point x="775.3447366424834" y="461.0831023179679"/>
      <point x="704.0" y="398.5" type="curve" smooth="yes"/>
      <point x="635.0" y="338.5"/>
      <point x="601.0" y="232.5"/>
      <point x="565.0" y="99.5" type="curve" smooth="yes"/>
      <point x="556.0" y="60.5"/>
      <point x="527.0" y="40.5"/>
      <point x="488.0" y="40.5" type="curve" smooth="yes"/>
      <point x="405.0" y="40.5"/>
      <point x="374.0" y="90.5"/>
      <point x="361.0" y="201.5" type="curve" smooth="yes"/>
      <point x="346.0" y="326.5"/>
      <point x="336.0" y="376.5"/>
      <point x="305.0" y="418.5" type="curve" smooth="yes"/>
      <point x="286.54155015767316" y="443.4189072871413"/>
      <point x="365.0153487690365" y="413.8802603751282"/>
      <point x="342.0" y="383.5" type="curve" smooth="yes"/>
      <point x="273.0" y="296.5"/>
      <point x="256.0" y="201.5"/>
      <point x="244.0" y="91.5" type="curve" smooth="yes"/>
      <point x="240.0" y="58.5"/>
      <point x="218.0" y="40.5"/>
      <point x="172.0" y="40.5" type="curve" smooth="yes"/>
      <point x="79.0" y="40.5"/>
      <point x="52.0" y="139.5"/>
      <point x="52.0" y="239.5" type="curve" smooth="yes"/>
      <point x="52.0" y="296.97938144329896"/>
      <point x="62.0" y="359.7445652173913"/>
      <point x="62.0" y="416.5" type="curve" smooth="yes"/>
      <point x="62.0" y="444.5"/>
      <point x="57.0" y="469.5"/>
      <point x="57.0" y="493.5" type="curve" smooth="yes"/>
      <point x="57.0" y="520.1590909090909"/>
      <point x="76.0" y="544.5"/>
      <point x="114.0" y="544.5" type="curve" smooth="yes"/>
      <point x="187.89473684210526" y="544.5"/>
      <point x="218.0" y="483.5"/>
    </contour>
  </outline>
</glyph>
<glyph name="n" format="2">
  <advance width="692"/>
  <unicode hex="006E"/>
  <anchor x="348" y="539.0" name="top"/>
  <anchor x="348" y="24.0" name="bottom"/>
  <outline>
    <contour>
      <point x="586.0" y="14.0" type="curve" smooth="yes"/>
      <point x="625.0" y="14.0"/>
      <point x="668.0" y="53.0"/>
      <point x="668.0" y="107.0" type="curve" smooth="yes"/>
      <point x="668.0" y="132.0"/>
      <point x="661.0" y="149.0"/>
      <point x="643.0" y="164.0" type="curve" smooth="yes"/>
      <point x="602.0" y="198.0"/>
      <point x="595.0" y="263.0"/>
      <point x="595.0" y="394.0" type="curve" smooth="yes"/>
      <point x="595.0" y="480.0"/>
      <point x="534.0" y="548.0"/>
      <point x="440.0" y="548.0" type="curve" smooth="yes"/>
      <point x="342.0" y="548.0"/>
      <point x="235.0" y="465.0"/>
      <point x="168.0" y="276.0" type="curve"/>
      <point x="218.0" y="210.0" type="line"/>
      <point x="218.0" y="349.0"/>
      <point x="245.0" y="365.0"/>
      <point x="245.0" y="436.0" type="curve" smooth="yes"/>
      <point x="245.0" y="501.0"/>
      <point x="183.0" y="535.0"/>
      <point x="142.0" y="535.0" type="curve" smooth="yes"/>
      <point x="105.0" y="535.0"/>
      <point x="85.0" y="514.0"/>
      <point x="85.0" y="485.0" type="curve" smooth="yes"/>
      <point x="85.0" y="362.0"/>
      <point x="56.0" y="310.0"/>
      <point x="56.0" y="175.0" type="curve" smooth="yes"/>
      <point x="56.0" y="82.0"/>
      <point x="86.0" y="15.0"/>
      <point x="155.0" y="15.0" type="curve" smooth="yes"/>
      <point x="196.0" y="15.0"/>
      <point x="217.0" y="30.0"/>
      <point x="233.0" y="83.0" type="curve" smooth="yes"/>
      <point x="283.0" y="251.0"/>
      <point x="375.0" y="381.0"/>
      <point x="426.0" y="381.0" type="curve" smooth="yes"/>
      <point x="444.0" y="381.0"/>
      <point x="457.0" y="370.0"/>
      <point x="484.0" y="341.0" type="curve"/>
      <point x="489.0" y="398.0"/>
      <point x="458.0" y="400.0"/>
      <point x="405.0" y="403.0" type="curve"/>
      <point x="438.0" y="388.0"/>
      <point x="439.0" y="365.0"/>
      <point x="439.0" y="323.0" type="curve" smooth="yes"/>
      <point x="439.0" y="119.0"/>
      <point x="494.0" y="14.0"/>
    </contour>
  </outline>
</glyph>
<glyph name="o" format="2">
  <advance width="664"/>
  <unicode hex="006F"/>
  <anchor x="346" y="570.5" name="top"/>
  <anchor x="346" y="55.5" name="bottom"/>
  <anchor x="502" y="92.5" name="ogonek"/>
  <outline>
    <contour>
      <point x="347.0" y="43.5" type="curve" smooth="yes"/>
      <point x="506.0" y="43.5"/>
      <point x="627.0" y="163.5"/>
      <point x="627.0" y="321.5" type="curve" smooth="yes"/>
      <point x="627.0" y="475.5"/>
      <point x="523.0" y="571.5"/>
      <point x="343.0" y="571.5" type="curve" smooth="yes"/>
      <point x="258.0" y="571.5"/>
      <point x="163.0" y="483.5"/>
      <point x="163.0" y="400.5" type="curve" smooth="yes"/>
      <point x="163.0" y="340.5"/>
      <point x="188.0" y="324.5"/>
      <point x="213.0" y="324.5" type="curve" smooth="yes"/>
      <point x="245.0" y="324.5"/>
      <point x="262.0" y="334.5"/>
      <point x="290.0" y="362.5" type="curve" smooth="yes"/>
      <point x="315.0" y="387.5"/>
      <point x="329.0" y="402.5"/>
      <point x="355.0" y="402.5" type="curve" smooth="yes"/>
      <point x="415.0" y="402.5"/>
      <point x="457.0" y="367.5"/>
      <point x="457.0" y="313.5" type="curve" smooth="yes"/>
      <point x="457.0" y="251.5"/>
      <point x="409.0" y="209.5"/>
      <point x="342.0" y="209.5" type="curve" smooth="yes"/>
      <point x="260.0" y="209.5"/>
      <point x="208.0" y="251.5"/>
      <point x="208.0" y="314.5" type="curve" smooth="yes"/>
      <point x="208.0" y="353.5"/>
      <point x="250.0" y="391.5"/>
      <point x="289.0" y="403.5" type="curve" smooth="yes"/>
      <point x="357.0" y="424.5"/>
      <point x="374.0" y="467.5"/>
      <point x="374.0" y="521.5" type="curve" smooth="yes"/>
      <point x="374.0" y="566.5"/>
      <point x="336.0" y="584.5"/>
      <point x="297.0" y="584.5" type="curve" smooth="yes"/>
      <point x="171.0" y="584.5"/>
      <point x="37.0" y="450.5"/>
      <point x="37.0" y="321.5" type="curve" smooth="yes"/>
      <point x="37.0" y="159.5"/>
      <point x="167.0" y="43.5"/>
    </contour>
  </outline>
</glyph>
<glyph name="p" format="2">
  <advance width="610"/>
  <unicode hex="0070"/>
  <anchor x="299" y="441.5" name="top"/>
  <anchor x="153" y="-323.5" name="bottom"/>
  <outline>
    <contour>
      <point x="211.0" y="284.5" type="curve" smooth="yes"/>
      <point x="211.0" y="133.5"/>
      <point x="257.0" y="18.5"/>
      <point x="257.0" y="-119.5" type="curve" smooth="yes"/>
      <point x="257.0" y="-217.5"/>
      <point x="250.0" y="-334.5"/>
      <point x="157.0" y="-334.5" type="curve" smooth="yes"/>
      <point x="114.0" y="-334.5"/>
      <point x="63.0" y="-299.5"/>
      <point x="63.0" y="-224.5" type="curve" smooth="yes"/>
      <point x="63.0" y="-161.5"/>
      <point x="75.0" y="-137.5"/>
      <point x="75.0" y="-71.5" type="curve" smooth="yes"/>
      <point x="75.0" y="79.5"/>
      <point x="36.0" y="192.5"/>
      <point x="25.0" y="332.5" type="curve" smooth="yes"/>
      <point x="23.0" y="361.5"/>
      <point x="46.0" y="382.5"/>
      <point x="80.0" y="382.5" type="curve" smooth="yes"/>
      <point x="145.0" y="382.5"/>
      <point x="211.0" y="337.5"/>
    </contour>
    <contour>
      <point x="233.0" y="454.5" type="curve" smooth="yes"/>
      <point x="422.0" y="454.5"/>
      <point x="584.0" y="337.5"/>
      <point x="584.0" y="126.5" type="curve" smooth="yes"/>
      <point x="584.0" y="29.5"/>
      <point x="494.0" y="-83.5"/>
      <point x="342.0" y="-83.5" type="curve" smooth="yes"/>
      <point x="219.0" y="-83.5"/>
      <point x="126.0" y="-4.5"/>
      <point x="126.0" y="87.5" type="curve" smooth="yes"/>
      <point x="126.0" y="112.5"/>
      <point x="150.0" y="138.5"/>
      <point x="174.0" y="138.5" type="curve" smooth="yes"/>
      <point x="219.0" y="138.5"/>
      <point x="250.0" y="85.5"/>
      <point x="313.0" y="85.5" type="curve" smooth="yes"/>
      <point x="366.0" y="85.5"/>
      <point x="402.0" y="104.5"/>
      <point x="402.0" y="153.5" type="curve" smooth="yes"/>
      <point x="402.0" y="236.5"/>
      <point x="298.0" y="279.5"/>
      <point x="226.0" y="279.5" type="curve" smooth="yes"/>
      <point x="213.0" y="279.5"/>
      <point x="205.0" y="274.5"/>
      <point x="178.0" y="274.5" type="curve" smooth="yes"/>
      <point x="133.0" y="274.5"/>
      <point x="84.0" y="314.5"/>
      <point x="84.0" y="363.5" type="curve" smooth="yes"/>
      <point x="84.0" y="435.5"/>
      <point x="135.0" y="454.5"/>
    </contour>
  </outline>
</glyph>
<glyph name="q" format="2">
  <advance width="630"/>
  <unicode hex="0071"/>
  <anchor x="338" y="600.5" name="top"/>
  <anchor x="503" y="-164.5" name="bottom"/>
  <outline>
    <contour>
      <point x="235.0" y="75.5" type="curve" smooth="yes"/>
      <point x="319.0" y="75.5"/>
      <point x="373.0" y="98.5"/>
      <point x="437.0" y="142.5" type="curve"/>
      <point x="406.0" y="156.5" type="line"/>
      <point x="402.0" y="69.5"/>
      <point x="405.0" y="-13.5"/>
      <point x="411.0" y="-82.5" type="curve" smooth="yes"/>
      <point x="414.0" y="-116.5"/>
      <point x="451.0" y="-174.5"/>
      <point x="505.0" y="-174.5" type="curve" smooth="yes"/>
      <point x="555.0" y="-174.5"/>
      <point x="608.0" y="-147.5"/>
      <point x="655.0" y="-106.5" type="curve" smooth="yes"/>
      <point x="675.0" y="-87.5"/>
      <point x="687.0" y="-57.5"/>
      <point x="687.0" y="-24.5" type="curve" smooth="yes"/>
      <point x="687.0" y="17.5"/>
      <point x="660.0" y="51.5"/>
      <point x="624.0" y="51.5" type="curve" smooth="yes"/>
      <point x="601.0" y="51.5"/>
      <point x="582.0" y="37.5"/>
      <point x="557.0" y="21.5" type="curve"/>
      <point x="576.0" y="7.5" type="line"/>
      <point x="570.0" y="117.5"/>
      <point x="570.9096434032479" y="174.34967398795382"/>
      <point x="572.0" y="236.5" type="curve"/>
      <point x="577.0" y="256.5"/>
      <point x="602.0" y="303.5"/>
      <point x="602.0" y="369.5" type="curve" smooth="yes"/>
      <point x="602.0" y="417.5"/>
      <point x="561.0" y="453.5"/>
      <point x="494.0" y="453.5" type="curve" smooth="yes"/>
      <point x="472.0" y="453.5"/>
      <point x="460.0" y="441.5"/>
      <point x="454.0" y="422.5" type="curve" smooth="yes"/>
      <point x="417.0" y="317.5"/>
      <point x="336.0" y="245.5"/>
      <point x="235.0" y="245.5" type="curve" smooth="yes"/>
      <point x="208.0" y="245.5"/>
      <point x="192.0" y="259.5"/>
      <point x="192.0" y="284.5" type="curve" smooth="yes"/>
      <point x="192.0" y="344.5"/>
      <point x="285.0" y="439.5"/>
      <point x="339.0" y="439.5" type="curve" smooth="yes"/>
      <point x="362.0" y="439.5"/>
      <point x="373.0" y="433.5"/>
      <point x="382.0" y="418.5" type="curve" smooth="yes"/>
      <point x="394.0" y="397.5"/>
      <point x="408.0" y="390.5"/>
      <point x="423.0" y="390.5" type="curve" smooth="yes"/>
      <point x="466.0" y="390.5"/>
      <point x="500.0" y="423.5"/>
      <point x="500.0" y="460.5" type="curve" smooth="yes"/>
      <point x="500.0" y="538.5"/>
      <point x="437.0" y="610.5"/>
      <point x="339.0" y="610.5" type="curve" smooth="yes"/>
      <point x="179.0" y="610.5"/>
      <point x="15.0" y="445.5"/>
      <point x="15.0" y="293.5" type="curve" smooth="yes"/>
      <point x="15.0" y="162.5"/>
      <point x="88.0" y="75.5"/>
    </contour>
  </outline>
</glyph>
<glyph name="r" format="2">
  <advance width="558"/>
  <unicode hex="0072"/>
  <anchor x="290" y="477.5" name="top"/>
  <anchor x="176" y="-37.5" name="bottom"/>
  <outline>
    <contour>
      <point x="183.0" y="-49.5" type="curve" smooth="yes"/>
      <point x="229.0" y="-49.5"/>
      <point x="240.0" y="-25.5"/>
      <point x="255.0" y="58.5" type="curve" smooth="yes"/>
      <point x="273.0" y="164.5"/>
      <point x="313.0" y="227.5"/>
      <point x="478.0" y="294.5" type="curve" smooth="yes"/>
      <point x="524.0" y="313.5"/>
      <point x="532.0" y="342.5"/>
      <point x="532.0" y="372.5" type="curve" smooth="yes"/>
      <point x="532.0" y="439.5"/>
      <point x="515.0" y="483.5"/>
      <point x="465.0" y="483.5" type="curve" smooth="yes"/>
      <point x="360.0" y="483.5"/>
      <point x="233.0" y="380.5"/>
      <point x="174.0" y="227.5" type="curve"/>
      <point x="245.0" y="265.5" type="line"/>
      <point x="218.0" y="423.5"/>
      <point x="177.0" y="473.5"/>
      <point x="78.0" y="473.5" type="curve" smooth="yes"/>
      <point x="46.0" y="473.5"/>
      <point x="21.0" y="456.5"/>
      <point x="21.0" y="430.5" type="curve" smooth="yes"/>
      <point x="21.0" y="411.5"/>
      <point x="24.0" y="399.5"/>
      <point x="40.0" y="365.5" type="curve" smooth="yes"/>
      <point x="71.0" y="298.5"/>
      <point x="81.0" y="216.5"/>
      <point x="81.0" y="77.5" type="curve" smooth="yes"/>
      <point x="81.0" y="7.5"/>
      <point x="131.0" y="-49.5"/>
    </contour>
  </outline>
</glyph>
<glyph name="s" format="2">
  <advance width="537"/>
  <unicode hex="0073"/>
  <anchor x="262" y="555.5" name="top"/>
  <anchor x="262" y="40.5" name="bottom"/>
  <outline>
    <contour>
      <point x="213.0" y="30.5" type="curve" smooth="yes"/>
      <point x="386.0546623794212" y="30.5"/>
      <point x="512.0" y="84.5"/>
      <point x="512.0" y="216.5" type="curve" smooth="yes"/>
      <point x="512.0" y="369.5"/>
      <point x="240.0" y="327.5"/>
      <point x="205.0" y="372.5" type="curve"/>
      <point x="227.94955025887396" y="388.1474206310504"/>
      <point x="268.0" y="398.5"/>
      <point x="325.0" y="398.5" type="curve" smooth="yes"/>
      <point x="369.0" y="398.5"/>
      <point x="377.0" y="392.5"/>
      <point x="412.0" y="392.5" type="curve" smooth="yes"/>
      <point x="444.0" y="392.5"/>
      <point x="463.0" y="416.5"/>
      <point x="463.0" y="455.5" type="curve" smooth="yes"/>
      <point x="463.0" y="515.8539823008849"/>
      <point x="422.9993570648409" y="564.5000069132814"/>
      <point x="330.0" y="565.5" type="curve" smooth="yes"/>
      <point x="198.0" y="566.5"/>
      <point x="42.0" y="520.5"/>
      <point x="42.0" y="384.5" type="curve" smooth="yes"/>
      <point x="42.0" y="221.5"/>
      <point x="296.0" y="264.5"/>
      <point x="340.0" y="221.5" type="curve"/>
      <point x="319.70292763503363" y="202.33054276642062"/>
      <point x="283.8976377952756" y="188.5"/>
      <point x="215.0" y="188.5" type="curve" smooth="yes"/>
      <point x="157.12977099236642" y="188.5"/>
      <point x="121.0" y="217.5"/>
      <point x="82.0" y="217.5" type="curve" smooth="yes"/>
      <point x="42.0" y="217.5"/>
      <point x="22.0" y="195.5"/>
      <point x="22.0" y="162.5" type="curve" smooth="yes"/>
      <point x="22.0" y="92.61764705882352"/>
      <point x="75.35195530726259" y="30.5"/>
    </contour>
  </outline>
</glyph>
<glyph name="t" format="2">
  <advance width="503"/>
  <unicode hex="0074"/>
  <anchor x="152" y="659.5" name="top"/>
  <anchor x="273" y="-40.5" name="bottom"/>
  <outline>
    <contour>
      <point x="224.0" y="257.5" type="curve" smooth="yes"/>
      <point x="224.0" y="371.5"/>
      <point x="244.0" y="449.5"/>
      <point x="244.0" y="517.5" type="curve" smooth="yes"/>
      <point x="244.0" y="634.5"/>
      <point x="198.0" y="675.5"/>
      <point x="126.0" y="675.5" type="curve" smooth="yes"/>
      <point x="74.0" y="675.5"/>
      <point x="54.0" y="652.5"/>
      <point x="54.0" y="613.5" type="curve" smooth="yes"/>
      <point x="54.0" y="578.5"/>
      <point x="68.0" y="547.5"/>
      <point x="68.0" y="489.5" type="curve" smooth="yes"/>
      <point x="68.0" y="405.9571428571"/>
      <point x="51.0" y="348.5047393365"/>
      <point x="51.0" y="251.5" type="curve" smooth="yes"/>
      <point x="51.0" y="68.5"/>
      <point x="119.0" y="-53.5"/>
      <point x="317.0" y="-53.5" type="curve" smooth="yes"/>
      <point x="417.277027027" y="-53.5"/>
      <point x="470.0" y="-0.5"/>
      <point x="470.0" y="75.5" type="curve" smooth="yes"/>
      <point x="470.0" y="119.4436619718"/>
      <point x="455.0" y="140.5"/>
      <point x="426.0" y="140.5" type="curve" smooth="yes"/>
      <point x="396.3626373626" y="140.5"/>
      <point x="380.010989011" y="120.5"/>
      <point x="333.0" y="120.5" type="curve" smooth="yes"/>
      <point x="261.3153153153" y="120.5"/>
      <point x="224.0" y="155.0114503817"/>
    </contour>
    <contour>
      <point x="200.0" y="286.5" type="curve" smooth="yes"/>
      <point x="278.0" y="317.5"/>
      <point x="338.0" y="327.5"/>
      <point x="441.0" y="333.5" type="curve" smooth="yes"/>
      <point x="467.0" y="335.5"/>
      <point x="482.0" y="357.5"/>
      <point x="482.0" y="381.5" type="curve" smooth="yes"/>
      <point x="482.0" y="436.5"/>
      <point x="427.0" y="484.5"/>
      <point x="357.0" y="484.5" type="curve" smooth="yes"/>
      <point x="300.0" y="484.5"/>
      <point x="227.0" y="471.5"/>
      <point x="171.0" y="451.5" type="curve" smooth="yes"/>
      <point x="109.0" y="428.5"/>
      <point x="103.0" y="392.5"/>
      <point x="103.0" y="350.5" type="curve" smooth="yes"/>
      <point x="103.0" y="297.5"/>
      <point x="139.0" y="261.5"/>
    </contour>
  </outline>
</glyph>
<glyph name="u" format="2">
  <advance width="655"/>
  <unicode hex="0075"/>
  <anchor x="342.0" y="443.0" name="top"/>
  <anchor x="342.0" y="-72.0" name="bottom"/>
  <anchor x="414.0" y="-67.0" name="ogonek"/>
  <outline>
    <contour>
      <point x="349.0" y="-82.0" type="curve" smooth="yes"/>
      <point x="490.0" y="-82.0"/>
      <point x="601.0" y="46.0"/>
      <point x="601.0" y="311.0" type="curve" smooth="yes"/>
      <point x="601.0" y="401.0"/>
      <point x="563.0" y="445.0"/>
      <point x="498.0" y="445.0" type="curve" smooth="yes"/>
      <point x="444.0" y="445.0"/>
      <point x="429.0" y="416.0"/>
      <point x="429.0" y="367.0" type="curve" smooth="yes"/>
      <point x="429.0" y="335.0"/>
      <point x="433.0" y="310.0"/>
      <point x="433.0" y="270.0" type="curve" smooth="yes"/>
      <point x="433.0" y="184.0"/>
      <point x="400.0" y="93.0"/>
      <point x="337.0" y="93.0" type="curve" smooth="yes"/>
      <point x="287.0" y="93.0"/>
      <point x="224.0" y="173.0"/>
      <point x="224.0" y="245.0" type="curve" smooth="yes"/>
      <point x="224.0" y="278.0"/>
      <point x="246.0" y="314.0"/>
      <point x="246.0" y="339.0" type="curve" smooth="yes"/>
      <point x="246.0" y="396.0"/>
      <point x="193.0" y="446.0"/>
      <point x="137.0" y="446.0" type="curve" smooth="yes"/>
      <point x="111.0" y="446.0"/>
      <point x="91.0" y="429.0"/>
      <point x="83.0" y="407.0" type="curve" smooth="yes"/>
      <point x="61.0" y="353.0"/>
      <point x="51.0" y="304.0"/>
      <point x="51.0" y="245.0" type="curve" smooth="yes"/>
      <point x="51.0" y="109.0"/>
      <point x="168.0" y="-82.0"/>
    </contour>
  </outline>
</glyph>
<glyph name="v" format="2">
  <advance width="632"/>
  <unicode hex="0076"/>
  <anchor x="306" y="545.0" name="top"/>
  <anchor x="306" y="30.0" name="bottom"/>
  <outline>
    <contour>
      <point x="195.0" y="97.0" type="curve" smooth="yes"/>
      <point x="230.0" y="43.0"/>
      <point x="264.0" y="20.0"/>
      <point x="315.0" y="20.0" type="curve" smooth="yes"/>
      <point x="346.0" y="20.0"/>
      <point x="361.0" y="33.0"/>
      <point x="376.0" y="69.0" type="curve" smooth="yes"/>
      <point x="440.0" y="219.0"/>
      <point x="515.0" y="271.0"/>
      <point x="597.0" y="399.0" type="curve" smooth="yes"/>
      <point x="604.0" y="410.0"/>
      <point x="609.0" y="426.0"/>
      <point x="609.0" y="442.0" type="curve" smooth="yes"/>
      <point x="609.0" y="497.0"/>
      <point x="561.0" y="556.0"/>
      <point x="524.0" y="556.0" type="curve" smooth="yes"/>
      <point x="497.0" y="556.0"/>
      <point x="483.0" y="552.0"/>
      <point x="464.0" y="528.0" type="curve" smooth="yes"/>
      <point x="389.0" y="433.0"/>
      <point x="320.0" y="354.0"/>
      <point x="267.0" y="230.0" type="curve"/>
      <point x="316.0" y="220.0" type="line"/>
      <point x="289.0" y="286.0"/>
      <point x="261.0" y="357.0"/>
      <point x="238.0" y="422.0" type="curve" smooth="yes"/>
      <point x="212.0" y="493.0"/>
      <point x="161.0" y="554.0"/>
      <point x="72.0" y="554.0" type="curve" smooth="yes"/>
      <point x="37.0" y="554.0"/>
      <point x="19.0" y="532.0"/>
      <point x="19.0" y="504.0" type="curve" smooth="yes"/>
      <point x="19.0" y="441.0"/>
      <point x="59.0" y="404.0"/>
      <point x="107.0" y="282.0" type="curve" smooth="yes"/>
      <point x="129.0" y="227.0"/>
      <point x="168.0" y="138.0"/>
    </contour>
  </outline>
</glyph>
<glyph name="w" format="2">
  <advance width="917"/>
  <unicode hex="0077"/>
  <anchor x="444" y="467.0" name="top"/>
  <anchor x="444" y="-48.0" name="bottom"/>
  <outline>
    <contour>
      <point x="172.0" y="421.0" type="curve" smooth="yes"/>
      <point x="218.0" y="327.0"/>
      <point x="213.0" y="185.0"/>
      <point x="280.0" y="115.0" type="curve" smooth="yes"/>
      <point x="303.0" y="91.0"/>
      <point x="201.0" y="93.0"/>
      <point x="216.0" y="114.0" type="curve" smooth="yes"/>
      <point x="258.0" y="180.0"/>
      <point x="260.0" y="212.0"/>
      <point x="301.0" y="320.0" type="curve" smooth="yes"/>
      <point x="338.0" y="418.0"/>
      <point x="372.0" y="478.0"/>
      <point x="442.0" y="478.0" type="curve" smooth="yes"/>
      <point x="516.0" y="478.0"/>
      <point x="557.0" y="423.0"/>
      <point x="592.0" y="333.0" type="curve" smooth="yes"/>
      <point x="639.0" y="211.0"/>
      <point x="631.0" y="151.0"/>
      <point x="691.0" y="124.0" type="curve" smooth="yes"/>
      <point x="749.0" y="99.0"/>
      <point x="606.0" y="78.0"/>
      <point x="635.0" y="112.0" type="curve" smooth="yes"/>
      <point x="682.0" y="167.0"/>
      <point x="688.0" y="319.0"/>
      <point x="720.0" y="394.0" type="curve" smooth="yes"/>
      <point x="736.0" y="431.0"/>
      <point x="771.0" y="480.0"/>
      <point x="826.0" y="480.0" type="curve" smooth="yes"/>
      <point x="874.0" y="480.0"/>
      <point x="918.0" y="433.0"/>
      <point x="918.0" y="384.0" type="curve" smooth="yes"/>
      <point x="918.0" y="363.0"/>
      <point x="907.0" y="343.0"/>
      <point x="892.0" y="325.0" type="curve" smooth="yes"/>
      <point x="845.0" y="267.0"/>
      <point x="838.0" y="190.0"/>
      <point x="816.0" y="109.0" type="curve" smooth="yes"/>
      <point x="780.0" y="-29.0"/>
      <point x="726.0" y="-61.0"/>
      <point x="682.0" y="-61.0" type="curve" smooth="yes"/>
      <point x="632.0" y="-61.0"/>
      <point x="592.0" y="-37.0"/>
      <point x="549.0" y="34.0" type="curve" smooth="yes"/>
      <point x="484.0" y="141.0"/>
      <point x="472.0" y="263.0"/>
      <point x="437.0" y="304.0" type="curve" smooth="yes"/>
      <point x="414.0" y="329.0"/>
      <point x="488.0" y="334.0"/>
      <point x="463.0" y="303.0" type="curve" smooth="yes"/>
      <point x="416.0" y="238.0"/>
      <point x="409.0" y="135.0"/>
      <point x="357.0" y="24.0" type="curve" smooth="yes"/>
      <point x="332.0" y="-32.0"/>
      <point x="293.0" y="-63.0"/>
      <point x="253.0" y="-63.0" type="curve" smooth="yes"/>
      <point x="172.0" y="-63.0"/>
      <point x="122.0" y="-3.0"/>
      <point x="84.0" y="134.0" type="curve" smooth="yes"/>
      <point x="52.0" y="250.0"/>
      <point x="35.0" y="311.0"/>
      <point x="12.0" y="357.0" type="curve" smooth="yes"/>
      <point x="-30.0" y="432.0"/>
      <point x="16.0" y="481.0"/>
      <point x="80.0" y="481.0" type="curve" smooth="yes"/>
      <point x="124.0" y="481.0"/>
      <point x="148.0" y="469.0"/>
    </contour>
  </outline>
</glyph>
<glyph name="x" format="2">
  <advance width="589"/>
  <unicode hex="0078"/>
  <anchor x="274" y="591.5" name="top"/>
  <anchor x="288" y="76.5" name="bottom"/>
  <outline>
    <contour>
      <point x="509.0" y="441.5" type="curve" smooth="yes"/>
      <point x="383.9969105811" y="366.4981463486"/>
      <point x="282.0" y="248.5"/>
      <point x="197.0" y="124.5" type="curve" smooth="yes"/>
      <point x="165.0" y="76.5"/>
      <point x="135.0" y="59.5"/>
      <point x="98.0" y="59.5" type="curve" smooth="yes"/>
      <point x="46.0" y="59.5"/>
      <point x="17.0" y="101.5"/>
      <point x="53.0" y="189.5" type="curve" smooth="yes"/>
      <point x="100.0" y="306.5"/>
      <point x="220.342552601" y="466.8092752613"/>
      <point x="376.0" y="566.5" type="curve" smooth="yes"/>
      <point x="412.0" y="589.5"/>
      <point x="449.0" y="601.5"/>
      <point x="466.0" y="601.5" type="curve" smooth="yes"/>
      <point x="520.0" y="601.5"/>
      <point x="543.0" y="565.5"/>
      <point x="543.0" y="499.5" type="curve" smooth="yes"/>
      <point x="543.0" y="473.5"/>
      <point x="535.0" y="457.5"/>
    </contour>
    <contour>
      <point x="520.0" y="222.5" type="curve" smooth="yes"/>
      <point x="561.0" y="164.5"/>
      <point x="567.0" y="137.5"/>
      <point x="567.0" y="118.5" type="curve" smooth="yes"/>
      <point x="567.0" y="81.5"/>
      <point x="537.0" y="60.5"/>
      <point x="481.0" y="60.5" type="curve" smooth="yes"/>
      <point x="459.0" y="60.5"/>
      <point x="425.0" y="68.5"/>
      <point x="388.0" y="119.5" type="curve" smooth="yes"/>
      <point x="319.0" y="215.5"/>
      <point x="183.0" y="352.5"/>
      <point x="92.0" y="429.5" type="curve" smooth="yes"/>
      <point x="59.0" y="456.5"/>
      <point x="37.0" y="474.7815533981"/>
      <point x="37.0" y="517.5" type="curve" smooth="yes"/>
      <point x="37.0" y="564.9782608696"/>
      <point x="63.2153846154" y="601.5"/>
      <point x="108.0" y="601.5" type="curve" smooth="yes"/>
      <point x="135.1290322581" y="601.5"/>
      <point x="156.5919431485" y="592.2662440599"/>
      <point x="195.0" y="562.5" type="curve" smooth="yes"/>
      <point x="266.0" y="509.5"/>
      <point x="455.0" y="311.5"/>
    </contour>
  </outline>
</glyph>
<glyph name="y" format="2">
  <advance width="623"/>
  <unicode hex="0079"/>
  <anchor x="300" y="566.0" name="top"/>
  <anchor x="320" y="-199.0" name="bottom"/>
  <outline>
    <contour>
      <point x="235.0" y="486.0" type="curve" smooth="yes"/>
      <point x="235.0" y="530.0"/>
      <point x="206.0" y="574.0"/>
      <point x="129.0" y="574.0" type="curve" smooth="yes"/>
      <point x="72.0" y="574.0"/>
      <point x="38.0" y="545.0"/>
      <point x="38.0" y="394.0" type="curve" smooth="yes"/>
      <point x="38.0" y="209.0"/>
      <point x="124.0" y="129.0"/>
      <point x="266.0" y="129.0" type="curve" smooth="yes"/>
      <point x="321.0" y="129.0"/>
      <point x="398.0" y="151.0"/>
      <point x="454.0" y="256.0" type="curve" smooth="yes"/>
      <point x="468.0" y="283.0"/>
      <point x="403.0" y="306.0"/>
      <point x="403.0" y="292.0" type="curve" smooth="yes"/>
      <point x="403.0" y="200.0"/>
      <point x="408.0" y="150.0"/>
      <point x="408.0" y="46.0" type="curve" smooth="yes"/>
      <point x="408.0" y="-6.0"/>
      <point x="385.0" y="-33.0"/>
      <point x="323.0" y="-33.0" type="curve" smooth="yes"/>
      <point x="204.0" y="-33.0"/>
      <point x="184.0" y="7.0"/>
      <point x="137.0" y="7.0" type="curve" smooth="yes"/>
      <point x="97.0" y="7.0"/>
      <point x="74.0" y="-16.0"/>
      <point x="74.0" y="-59.0" type="curve" smooth="yes"/>
      <point x="74.0" y="-145.0"/>
      <point x="140.0" y="-210.0"/>
      <point x="329.0" y="-210.0" type="curve" smooth="yes"/>
      <point x="471.0" y="-210.0"/>
      <point x="575.0" y="-126.0"/>
      <point x="575.0" y="46.0" type="curve" smooth="yes"/>
      <point x="575.0" y="237.0"/>
      <point x="533.0" y="283.0"/>
      <point x="552.0" y="451.0" type="curve" smooth="yes"/>
      <point x="561.0" y="531.0"/>
      <point x="510.0" y="573.0"/>
      <point x="450.0" y="573.0" type="curve" smooth="yes"/>
      <point x="406.0" y="573.0"/>
      <point x="389.0" y="554.0"/>
      <point x="384.0" y="511.0" type="curve" smooth="yes"/>
      <point x="371.0" y="402.0"/>
      <point x="326.0" y="304.0"/>
      <point x="256.0" y="304.0" type="curve" smooth="yes"/>
      <point x="185.0" y="304.0"/>
      <point x="235.0" y="422.0"/>
    </contour>
  </outline>
</glyph>
<glyph name="z" format="2">
  <advance width="625"/>
  <unicode hex="007A"/>
  <anchor x="297" y="458.0" name="top"/>
  <anchor x="297" y="-57.0" name="bottom"/>
  <outline>
    <contour>
      <point x="92.0" y="447.0" type="curve" smooth="yes"/>
      <point x="169.0" y="460.0"/>
      <point x="249.0" y="467.0"/>
      <point x="325.0" y="467.0" type="curve" smooth="yes"/>
      <point x="477.0" y="467.0"/>
      <point x="523.0" y="392.0"/>
      <point x="523.0" y="317.0" type="curve" smooth="yes"/>
      <point x="523.0" y="257.4090909091"/>
      <point x="450.0" y="144.0"/>
      <point x="203.0" y="93.0" type="curve"/>
      <point x="255.0" y="123.0" type="line"/>
      <point x="248.0" y="108.0"/>
      <point x="248.0" y="99.0"/>
      <point x="253.0" y="99.0" type="curve" smooth="yes"/>
      <point x="328.0" y="99.0"/>
      <point x="389.0" y="115.0"/>
      <point x="483.0" y="115.0" type="curve" smooth="yes"/>
      <point x="547.0" y="115.0"/>
      <point x="584.0" y="64.0"/>
      <point x="584.0" y="3.0" type="curve" smooth="yes"/>
      <point x="584.0" y="-33.0"/>
      <point x="565.0" y="-57.0"/>
      <point x="520.0" y="-57.0" type="curve" smooth="yes"/>
      <point x="440.0" y="-57.0"/>
      <point x="318.0" y="-67.0"/>
      <point x="223.0" y="-67.0" type="curve" smooth="yes"/>
      <point x="80.0" y="-67.0"/>
      <point x="44.0" y="0.375"/>
      <point x="44.0" y="73.0" type="curve" smooth="yes"/>
      <point x="44.0" y="141.0"/>
      <point x="73.0" y="169.0"/>
      <point x="106.0" y="178.0" type="curve" smooth="yes"/>
      <point x="279.102004904" y="227.6023288906"/>
      <point x="330.9287767975" y="273.857553595"/>
      <point x="359.0" y="330.0" type="curve"/>
      <point x="401.0" y="279.0" type="line"/>
      <point x="373.0" y="293.0"/>
      <point x="360.0" y="298.0"/>
      <point x="302.0" y="298.0" type="curve" smooth="yes"/>
      <point x="203.0" y="298.0"/>
      <point x="150.0" y="275.0"/>
      <point x="119.0" y="275.0" type="curve" smooth="yes"/>
      <point x="80.0" y="275.0"/>
      <point x="40.0" y="328.0"/>
      <point x="40.0" y="383.0" type="curve" smooth="yes"/>
      <point x="40.0" y="416.0"/>
      <point x="51.0" y="438.0"/>
    </contour>
  </outline>
</glyph>
<glyph name="braceleft" format="2">
  <advance width="553"/>
  <unicode hex="007B"/>
  <outline>
    <contour>
      <point x="448.0" y="701.0" type="curve" smooth="yes"/>
      <point x="346.0" y="687.0"/>
      <point x="321.0" y="672.0"/>
      <point x="321.0" y="638.0" type="curve" smooth="yes"/>
      <point x="321.0" y="585.0"/>
      <point x="377.0" y="551.0"/>
      <point x="377.0" y="450.0" type="curve" smooth="yes"/>
      <point x="377.0" y="375.0"/>
      <point x="269.0" y="284.0"/>
      <point x="136.0" y="262.0" type="curve"/>
      <point x="135.0" y="342.0" type="line"/>
      <point x="346.0" y="327.0"/>
      <point x="392.0" y="259.0"/>
      <point x="392.0" y="179.0" type="curve" smooth="yes"/>
      <point x="392.0" y="114.0"/>
      <point x="354.0" y="66.0"/>
      <point x="354.0" y="25.0" type="curve" smooth="yes"/>
      <point x="354.0" y="-6.230769230799993"/>
      <point x="391.0" y="-25.0"/>
      <point x="477.0" y="-31.0" type="curve" smooth="yes"/>
      <point x="510.9854068299" y="-32.999141578199996"/>
      <point x="535.0" y="-53.0"/>
      <point x="535.0" y="-96.0" type="curve" smooth="yes"/>
      <point x="535.0" y="-153.0"/>
      <point x="488.0" y="-201.0"/>
      <point x="422.0" y="-201.0" type="curve" smooth="yes"/>
      <point x="294.0" y="-201.0"/>
      <point x="174.0" y="-106.0"/>
      <point x="174.0" y="-11.0" type="curve" smooth="yes"/>
      <point x="174.0" y="76.0"/>
      <point x="216.0" y="105.0"/>
      <point x="216.0" y="150.0" type="curve" smooth="yes"/>
      <point x="216.0" y="184.0"/>
      <point x="197.0" y="196.0"/>
      <point x="82.0" y="214.0" type="curve" smooth="yes"/>
      <point x="34.8072951975" y="221.0287007153"/>
      <point x="10.0" y="257.8095238095"/>
      <point x="10.0" y="314.0" type="curve" smooth="yes"/>
      <point x="10.0" y="339.9047619048"/>
      <point x="23.5367939997" y="368.1789313332"/>
      <point x="65.0" y="382.0" type="curve" smooth="yes"/>
      <point x="170.0" y="416.0"/>
      <point x="201.0" y="446.0"/>
      <point x="201.0" y="464.0" type="curve" smooth="yes"/>
      <point x="201.0" y="530.0"/>
      <point x="145.0" y="576.0"/>
      <point x="145.0" y="656.0" type="curve" smooth="yes"/>
      <point x="145.0" y="757.0"/>
      <point x="251.0" y="875.0"/>
      <point x="420.0" y="875.0" type="curve" smooth="yes"/>
      <point x="479.0" y="875.0"/>
      <point x="522.0" y="829.0"/>
      <point x="522.0" y="782.0" type="curve" smooth="yes"/>
      <point x="522.0" y="734.0"/>
      <point x="495.0" y="707.0"/>
    </contour>
  </outline>
</glyph>
<glyph name="bar" format="2">
  <advance width="349"/>
  <unicode hex="007C"/>
  <outline>
    <contour>
      <point x="262.0" y="648.5" type="curve" smooth="yes"/>
      <point x="262.0" y="545.5"/>
      <point x="247.0" y="427.5"/>
      <point x="247.0" y="285.5" type="curve" smooth="yes"/>
      <point x="247.0" y="48.5"/>
      <point x="273.0" y="-17.5"/>
      <point x="273.0" y="-109.5" type="curve" smooth="yes"/>
      <point x="273.0" y="-167.5"/>
      <point x="244.0" y="-195.5"/>
      <point x="198.0" y="-195.5" type="curve" smooth="yes"/>
      <point x="154.0" y="-195.5"/>
      <point x="124.0" y="-166.5"/>
      <point x="112.0" y="-103.5" type="curve" smooth="yes"/>
      <point x="86.0" y="32.5"/>
      <point x="80.0" y="120.5"/>
      <point x="80.0" y="262.5" type="curve" smooth="yes"/>
      <point x="80.0" y="452.5"/>
      <point x="100.0" y="553.5"/>
      <point x="95.0" y="711.5" type="curve" smooth="yes"/>
      <point x="93.0" y="756.5"/>
      <point x="108.0" y="786.5"/>
      <point x="157.0" y="786.5" type="curve" smooth="yes"/>
      <point x="222.0" y="786.5"/>
      <point x="262.0" y="746.5"/>
    </contour>
  </outline>
</glyph>
<glyph name="braceright" format="2">
  <advance width="553"/>
  <unicode hex="007D"/>
  <outline>
    <contour>
      <point x="132.0" y="-1.5" type="curve" smooth="yes"/>
      <point x="208.8358208955" y="-1.5"/>
      <point x="236.0" y="12.5"/>
      <point x="236.0" y="50.5" type="curve" smooth="yes"/>
      <point x="236.0" y="105.5"/>
      <point x="174.0" y="140.5"/>
      <point x="174.0" y="225.5" type="curve" smooth="yes"/>
      <point x="174.0" y="308.5"/>
      <point x="273.0" y="388.5"/>
      <point x="425.0" y="414.5" type="curve"/>
      <point x="426.0" y="332.5" type="line"/>
      <point x="243.0" y="344.5"/>
      <point x="165.0" y="430.5"/>
      <point x="165.0" y="504.5" type="curve" smooth="yes"/>
      <point x="165.0" y="575.5"/>
      <point x="217.0" y="617.5"/>
      <point x="217.0" y="663.5" type="curve" smooth="yes"/>
      <point x="217.0" y="693.8384615385"/>
      <point x="201.1749872093" y="711.4663486136"/>
      <point x="97.0" y="731.5" type="curve" smooth="yes"/>
      <point x="50.0496400581" y="740.490494457"/>
      <point x="24.0" y="780.9545454545"/>
      <point x="24.0" y="827.5" type="curve" smooth="yes"/>
      <point x="24.0" y="880.5"/>
      <point x="62.0" y="899.5"/>
      <point x="126.0" y="899.5" type="curve" smooth="yes"/>
      <point x="275.0" y="899.5"/>
      <point x="393.0" y="805.5"/>
      <point x="393.0" y="677.5" type="curve" smooth="yes"/>
      <point x="393.0" y="609.5"/>
      <point x="341.0" y="575.5"/>
      <point x="341.0" y="517.5" type="curve" smooth="yes"/>
      <point x="341.0" y="487.5"/>
      <point x="360.0" y="478.5"/>
      <point x="475.0" y="457.5" type="curve" smooth="yes"/>
      <point x="517.0" y="449.5"/>
      <point x="538.0" y="405.0862068966"/>
      <point x="538.0" y="362.5" type="curve" smooth="yes"/>
      <point x="538.0" y="333.7"/>
      <point x="527.0" y="296.5"/>
      <point x="495.0" y="290.5" type="curve" smooth="yes"/>
      <point x="373.0" y="267.5"/>
      <point x="350.0" y="257.5"/>
      <point x="350.0" y="214.5" type="curve" smooth="yes"/>
      <point x="350.0" y="166.5"/>
      <point x="412.0" y="111.5"/>
      <point x="412.0" y="34.5" type="curve" smooth="yes"/>
      <point x="412.0" y="-93.5"/>
      <point x="333.5306859206" y="-177.5"/>
      <point x="165.0" y="-177.5" type="curve" smooth="yes"/>
      <point x="99.0" y="-177.5"/>
      <point x="44.0" y="-127.5"/>
      <point x="44.0" y="-66.5" type="curve" smooth="yes"/>
      <point x="44.0" y="-21.5"/>
      <point x="69.0" y="-1.5"/>
    </contour>
  </outline>
</glyph>
<glyph name="asciitilde" format="2">
  <advance width="700"/>
  <unicode hex="007E"/>
  <outline>
    <contour>
      <point x="141.0" y="148.0" type="curve" smooth="yes"/>
      <point x="196.0" y="148.0"/>
      <point x="191.0" y="228.0"/>
      <point x="251.0" y="228.0" type="curve" smooth="yes"/>
      <point x="308.0" y="228.0"/>
      <point x="363.0" y="142.0"/>
      <point x="464.0" y="142.0" type="curve" smooth="yes"/>
      <point x="582.0" y="142.0"/>
      <point x="650.0" y="219.0"/>
      <point x="650.0" y="327.0" type="curve" smooth="yes"/>
      <point x="650.0" y="385.0"/>
      <point x="629.0" y="408.0"/>
      <point x="589.0" y="408.0" type="curve" smooth="yes"/>
      <point x="525.0" y="408.0"/>
      <point x="518.0" y="328.0"/>
      <point x="460.0" y="328.0" type="curve" smooth="yes"/>
      <point x="398.0" y="328.0"/>
      <point x="338.0" y="417.0"/>
      <point x="218.0" y="417.0" type="curve" smooth="yes"/>
      <point x="92.0" y="417.0"/>
      <point x="50.0" y="340.0"/>
      <point x="50.0" y="261.0" type="curve" smooth="yes"/>
      <point x="50.0" y="205.0"/>
      <point x="84.0" y="148.0"/>
    </contour>
  </outline>
</glyph>
